G04*
G04 #@! TF.GenerationSoftware,Altium Limited,Altium Designer,25.1.2 (22)*
G04*
G04 Layer_Color=8388736*
%FSLAX25Y25*%
%MOIN*%
G70*
G04*
G04 #@! TF.SameCoordinates,3AA37EA1-F988-493A-ACA0-F71776FBCFF4*
G04*
G04*
G04 #@! TF.FilePolarity,Negative*
G04*
G01*
G75*
%ADD21R,0.06844X0.05500*%
%ADD22R,0.05700X0.04400*%
%ADD23R,0.02600X0.07300*%
%ADD25R,0.02100X0.07200*%
%ADD26R,0.02200X0.05750*%
%ADD28R,0.04600X0.05700*%
%ADD29R,0.04800X0.04900*%
%ADD30R,0.03800X0.03400*%
%ADD31R,0.03600X0.00700*%
%ADD32R,0.00700X0.03600*%
%ADD33R,0.03600X0.01000*%
%ADD34R,0.01000X0.03600*%
%ADD37R,0.01400X0.07000*%
%ADD39R,0.03200X0.03000*%
%ADD40R,0.05100X0.04200*%
%ADD41R,0.04724X0.03543*%
%ADD44R,0.05800X0.02000*%
%ADD45R,0.02600X0.06100*%
%ADD46R,0.03400X0.04200*%
%ADD47R,0.03940X0.04759*%
%ADD48R,0.05000X0.05500*%
%ADD49R,0.05121X0.04169*%
%ADD50R,0.05200X0.05900*%
%ADD53R,0.04331X0.05512*%
%ADD54R,0.04200X0.03400*%
%ADD55R,0.05900X0.05200*%
%ADD56R,0.04200X0.05100*%
%ADD57R,0.05000X0.05000*%
%ADD58R,0.05000X0.05000*%
%ADD59R,0.05500X0.05000*%
%ADD60R,0.05700X0.04600*%
%ADD61R,0.04400X0.05700*%
%ADD62R,0.05512X0.04331*%
%ADD63R,0.07300X0.02600*%
%ADD64C,0.10800*%
%ADD65R,0.03300X0.09800*%
%ADD66R,0.04658X0.03989*%
%ADD67R,0.12600X0.12600*%
%ADD68R,0.14200X0.14200*%
%ADD69R,0.06699X0.02172*%
%ADD70R,0.12605X0.20794*%
%ADD71R,0.06706X0.08674*%
%ADD72R,0.11030X0.13392*%
%ADD73R,0.11030X0.04337*%
%ADD74R,0.03162X0.05288*%
%ADD75R,0.01981X0.05288*%
%ADD76C,0.08100*%
%ADD77R,0.07887X0.07887*%
%ADD78C,0.07887*%
%ADD79C,0.10839*%
%ADD80O,0.07874X0.15748*%
%ADD81O,0.17717X0.07874*%
%ADD82O,0.15748X0.07874*%
%ADD83R,0.05900X0.05900*%
%ADD84C,0.05900*%
%ADD85C,0.11627*%
%ADD86C,0.06737*%
%ADD87R,0.06737X0.06737*%
%ADD88R,0.08182X0.08182*%
%ADD89C,0.08182*%
%ADD90C,0.05600*%
%ADD91C,0.05000*%
%ADD92C,0.03359*%
%ADD93O,0.04343X0.07887*%
%ADD94O,0.04934X0.09068*%
%ADD95C,0.09461*%
%ADD96C,0.02600*%
%ADD97C,0.02400*%
G36*
X474450Y180300D02*
X485750D01*
Y193700D01*
X474450D01*
Y180300D01*
D02*
G37*
G36*
X782700Y104450D02*
Y115750D01*
X769300D01*
Y104450D01*
X782700D01*
D02*
G37*
G36*
X468400Y428650D02*
Y439950D01*
X455000D01*
Y428650D01*
X468400D01*
D02*
G37*
G36*
X442300Y475650D02*
Y486950D01*
X428900D01*
Y475650D01*
X442300D01*
D02*
G37*
D21*
X550278Y453500D02*
D03*
X541722D02*
D03*
D22*
X327000Y195750D02*
D03*
Y202250D02*
D03*
X407000Y201750D02*
D03*
Y208250D02*
D03*
X419000D02*
D03*
Y201750D02*
D03*
X305000Y195750D02*
D03*
Y202250D02*
D03*
X316000Y195750D02*
D03*
Y202250D02*
D03*
X511000Y433250D02*
D03*
Y426750D02*
D03*
X677000Y250750D02*
D03*
Y257250D02*
D03*
X772000Y274750D02*
D03*
Y281250D02*
D03*
X757000Y277250D02*
D03*
Y270750D02*
D03*
X824000Y244250D02*
D03*
Y237750D02*
D03*
X802000D02*
D03*
Y244250D02*
D03*
X813000Y237750D02*
D03*
Y244250D02*
D03*
X791000D02*
D03*
Y237750D02*
D03*
X807000Y74250D02*
D03*
Y67750D02*
D03*
X820000D02*
D03*
Y74250D02*
D03*
X287090Y411623D02*
D03*
Y418123D02*
D03*
D23*
X766950Y84100D02*
D03*
X776000D02*
D03*
X785050D02*
D03*
X452650Y408300D02*
D03*
X461700D02*
D03*
X470750D02*
D03*
X444650Y455300D02*
D03*
X435600D02*
D03*
X426550D02*
D03*
D25*
X352500Y376050D02*
D03*
X357500D02*
D03*
X362500D02*
D03*
X367500D02*
D03*
Y405150D02*
D03*
X362500D02*
D03*
X357500D02*
D03*
X352500D02*
D03*
D26*
X558000Y484225D02*
D03*
X563000D02*
D03*
X568000D02*
D03*
X573000D02*
D03*
Y462775D02*
D03*
X568000D02*
D03*
X563000D02*
D03*
X558000D02*
D03*
D28*
X251944Y449571D02*
D03*
X243644D02*
D03*
X391850Y349100D02*
D03*
X400150D02*
D03*
X550150Y484000D02*
D03*
X541850D02*
D03*
D29*
X304738Y426361D02*
D03*
X312238D02*
D03*
Y447044D02*
D03*
X304738D02*
D03*
D30*
X311138Y432505D02*
D03*
X304238D02*
D03*
X317494Y439298D02*
D03*
X324394D02*
D03*
D31*
X375900Y382336D02*
D03*
Y380761D02*
D03*
Y379187D02*
D03*
Y377612D02*
D03*
Y376037D02*
D03*
Y374462D02*
D03*
Y372887D02*
D03*
Y371313D02*
D03*
Y369738D02*
D03*
Y368163D02*
D03*
Y366588D02*
D03*
Y365013D02*
D03*
Y363439D02*
D03*
Y361864D02*
D03*
X403100D02*
D03*
Y363439D02*
D03*
Y365013D02*
D03*
Y366588D02*
D03*
Y368163D02*
D03*
Y369738D02*
D03*
Y371313D02*
D03*
Y372887D02*
D03*
Y374462D02*
D03*
Y376037D02*
D03*
Y377612D02*
D03*
Y379187D02*
D03*
Y380761D02*
D03*
Y382336D02*
D03*
D32*
X379264Y358500D02*
D03*
X380839D02*
D03*
X382413D02*
D03*
X383988D02*
D03*
X385563D02*
D03*
X387138D02*
D03*
X388713D02*
D03*
X390287D02*
D03*
X391862D02*
D03*
X393437D02*
D03*
X395012D02*
D03*
X396587D02*
D03*
X398161D02*
D03*
X399736D02*
D03*
Y385700D02*
D03*
X398161D02*
D03*
X396587D02*
D03*
X395012D02*
D03*
X393437D02*
D03*
X391862D02*
D03*
X390287D02*
D03*
X388713D02*
D03*
X387138D02*
D03*
X385563D02*
D03*
X383988D02*
D03*
X382413D02*
D03*
X380839D02*
D03*
X379264D02*
D03*
D33*
X295850Y441905D02*
D03*
Y439937D02*
D03*
Y437968D02*
D03*
Y436000D02*
D03*
Y434031D02*
D03*
Y432063D02*
D03*
Y430094D02*
D03*
X276150D02*
D03*
Y432063D02*
D03*
Y434031D02*
D03*
Y436000D02*
D03*
Y437968D02*
D03*
Y439937D02*
D03*
Y441905D02*
D03*
D34*
X291905Y426150D02*
D03*
X289937D02*
D03*
X287968D02*
D03*
X286000D02*
D03*
X284032D02*
D03*
X282063D02*
D03*
X280095D02*
D03*
Y445850D02*
D03*
X282063D02*
D03*
X284032D02*
D03*
X286000D02*
D03*
X287968D02*
D03*
X289937D02*
D03*
X291905D02*
D03*
D37*
X815957Y157700D02*
D03*
X813398D02*
D03*
X810839D02*
D03*
X808280D02*
D03*
X805721D02*
D03*
X803161D02*
D03*
X800602D02*
D03*
X798043D02*
D03*
Y134300D02*
D03*
X800602D02*
D03*
X803161D02*
D03*
X805721D02*
D03*
X808280D02*
D03*
X810839D02*
D03*
X813398D02*
D03*
X815957D02*
D03*
X808957Y279700D02*
D03*
X806398D02*
D03*
X803839D02*
D03*
X801280D02*
D03*
X798721D02*
D03*
X796161D02*
D03*
X793602D02*
D03*
X791043D02*
D03*
Y256300D02*
D03*
X793602D02*
D03*
X796161D02*
D03*
X798721D02*
D03*
X801280D02*
D03*
X803839D02*
D03*
X806398D02*
D03*
X808957D02*
D03*
D39*
X317194Y432404D02*
D03*
X323493D02*
D03*
X310281Y439298D02*
D03*
X303982D02*
D03*
D40*
X374000Y230950D02*
D03*
Y239050D02*
D03*
X472200Y388150D02*
D03*
Y396250D02*
D03*
X461700D02*
D03*
Y388150D02*
D03*
X455600Y459350D02*
D03*
Y467450D02*
D03*
X825000Y132950D02*
D03*
Y141050D02*
D03*
D41*
X351900Y476066D02*
D03*
Y484334D02*
D03*
X401000Y465266D02*
D03*
Y473534D02*
D03*
D44*
X311350Y212850D02*
D03*
X320650D02*
D03*
D45*
X398937Y323224D02*
D03*
X395000D02*
D03*
X391063D02*
D03*
D46*
X344300Y398650D02*
D03*
Y405150D02*
D03*
D47*
X404100Y399877D02*
D03*
Y393347D02*
D03*
X399100Y399877D02*
D03*
Y393347D02*
D03*
D48*
X66150Y235000D02*
D03*
X73850D02*
D03*
X388597Y188572D02*
D03*
X396298D02*
D03*
X436850Y194000D02*
D03*
X429150D02*
D03*
X687850Y290000D02*
D03*
X680150D02*
D03*
X788150Y55000D02*
D03*
X795850D02*
D03*
X836850Y59000D02*
D03*
X829150D02*
D03*
X158150Y235000D02*
D03*
X165850D02*
D03*
X120850D02*
D03*
X113150D02*
D03*
D49*
X305000Y155947D02*
D03*
Y164053D02*
D03*
X325000Y155947D02*
D03*
Y164053D02*
D03*
X315000D02*
D03*
Y155947D02*
D03*
D50*
X244041Y415569D02*
D03*
X251903D02*
D03*
X375569Y349100D02*
D03*
X383431D02*
D03*
X251725Y441475D02*
D03*
X243864D02*
D03*
D53*
X251122Y432835D02*
D03*
Y424174D02*
D03*
X244822D02*
D03*
Y432835D02*
D03*
D54*
X415250Y382100D02*
D03*
X408750D02*
D03*
Y368600D02*
D03*
X415250D02*
D03*
X367450Y366200D02*
D03*
X360950D02*
D03*
D55*
X399000Y333169D02*
D03*
Y341031D02*
D03*
D56*
X427650Y444900D02*
D03*
X435750D02*
D03*
X462050Y165926D02*
D03*
X453950D02*
D03*
X453950Y208000D02*
D03*
X462050D02*
D03*
X816950Y255000D02*
D03*
X825050D02*
D03*
X783950Y73000D02*
D03*
X792050D02*
D03*
X766950D02*
D03*
X775050D02*
D03*
D57*
X282900Y453950D02*
D03*
Y461250D02*
D03*
X260106Y448493D02*
D03*
Y441193D02*
D03*
X273700Y417850D02*
D03*
Y410550D02*
D03*
X300920Y410523D02*
D03*
Y417823D02*
D03*
X293830Y410523D02*
D03*
Y417823D02*
D03*
X556000Y396850D02*
D03*
Y404150D02*
D03*
X566500Y396850D02*
D03*
Y404150D02*
D03*
X540000Y473650D02*
D03*
Y466350D02*
D03*
D58*
X548750Y394300D02*
D03*
X541450D02*
D03*
X549650Y442000D02*
D03*
X542350D02*
D03*
X495350Y433000D02*
D03*
X502650D02*
D03*
X367650Y283000D02*
D03*
X360350D02*
D03*
D59*
X581725Y463321D02*
D03*
Y471021D02*
D03*
X687000Y249150D02*
D03*
Y256850D02*
D03*
X336000Y238850D02*
D03*
Y231150D02*
D03*
D60*
X341179Y377323D02*
D03*
Y385623D02*
D03*
X550000Y473650D02*
D03*
Y465350D02*
D03*
X374000Y251850D02*
D03*
Y260150D02*
D03*
X360000Y239150D02*
D03*
Y230850D02*
D03*
X259934Y424355D02*
D03*
Y432655D02*
D03*
D61*
X436250Y185000D02*
D03*
X429750D02*
D03*
X829750Y49000D02*
D03*
X836250D02*
D03*
X823400Y120000D02*
D03*
X816900D02*
D03*
X806250D02*
D03*
X799750D02*
D03*
X816900Y109000D02*
D03*
X823400D02*
D03*
X799750D02*
D03*
X806250D02*
D03*
D62*
X379669Y341250D02*
D03*
X388331D02*
D03*
Y334950D02*
D03*
X379669D02*
D03*
D63*
X454100Y196050D02*
D03*
Y187000D02*
D03*
Y177950D02*
D03*
D64*
X42400Y310100D02*
D03*
X664000Y54000D02*
D03*
X602000Y415500D02*
D03*
X440600Y419100D02*
D03*
X413400Y478600D02*
D03*
X392700Y436900D02*
D03*
X636300Y442400D02*
D03*
X530100Y457100D02*
D03*
X42300Y325200D02*
D03*
X30800Y288200D02*
D03*
X696300Y315900D02*
D03*
X783100Y286300D02*
D03*
X803865Y295862D02*
D03*
X742500Y280700D02*
D03*
X816300Y334200D02*
D03*
X812100Y320900D02*
D03*
X408300Y337400D02*
D03*
X411700Y325600D02*
D03*
X510000Y124000D02*
D03*
X498000Y101000D02*
D03*
X497587Y89000D02*
D03*
X750000Y63000D02*
D03*
X794875Y84211D02*
D03*
X638000Y47000D02*
D03*
X218800Y410500D02*
D03*
Y390500D02*
D03*
D65*
X295500Y164000D02*
D03*
X290500D02*
D03*
X285500D02*
D03*
X280500D02*
D03*
X275500D02*
D03*
X270500D02*
D03*
X265500D02*
D03*
X260500D02*
D03*
X255500D02*
D03*
X250500D02*
D03*
X245500D02*
D03*
X240500D02*
D03*
X235500D02*
D03*
X230500D02*
D03*
Y204000D02*
D03*
X235500D02*
D03*
X240500D02*
D03*
X245500D02*
D03*
X250500D02*
D03*
X255500D02*
D03*
X260500D02*
D03*
X265500D02*
D03*
X270500D02*
D03*
X275500D02*
D03*
X280500D02*
D03*
X285500D02*
D03*
X290500D02*
D03*
X295500D02*
D03*
D66*
X394100Y399647D02*
D03*
Y393576D02*
D03*
X388600Y399647D02*
D03*
Y393576D02*
D03*
D67*
X389500Y372100D02*
D03*
D68*
X286000Y436000D02*
D03*
D69*
X545500Y400441D02*
D03*
Y403000D02*
D03*
Y405559D02*
D03*
Y408118D02*
D03*
Y410677D02*
D03*
Y413236D02*
D03*
Y415795D02*
D03*
Y418354D02*
D03*
Y420913D02*
D03*
Y423472D02*
D03*
Y426031D02*
D03*
Y428590D02*
D03*
Y431150D02*
D03*
Y433709D02*
D03*
X521484D02*
D03*
Y431150D02*
D03*
Y428590D02*
D03*
Y426031D02*
D03*
Y423472D02*
D03*
Y420913D02*
D03*
Y418354D02*
D03*
Y415795D02*
D03*
Y413236D02*
D03*
Y410677D02*
D03*
Y408118D02*
D03*
Y405559D02*
D03*
Y403000D02*
D03*
Y400441D02*
D03*
D70*
X533492Y417075D02*
D03*
D71*
X341000Y366883D02*
D03*
Y334600D02*
D03*
D72*
X336386Y260000D02*
D03*
D73*
X359614Y269055D02*
D03*
Y260000D02*
D03*
Y250945D02*
D03*
D74*
X363524Y465287D02*
D03*
X366673D02*
D03*
X385571D02*
D03*
X388720D02*
D03*
D75*
X369232D02*
D03*
X371201D02*
D03*
X373169D02*
D03*
X375138D02*
D03*
X377106D02*
D03*
X379075D02*
D03*
X381043D02*
D03*
X383012D02*
D03*
D76*
X642000Y81000D02*
D03*
X632000Y106000D02*
D03*
X543000Y366000D02*
D03*
X553000Y341000D02*
D03*
X543000Y294100D02*
D03*
X553000Y269100D02*
D03*
X615300Y294100D02*
D03*
X625300Y269100D02*
D03*
X615300Y366000D02*
D03*
X625300Y341000D02*
D03*
X712000Y81000D02*
D03*
X702000Y106000D02*
D03*
X712000Y151000D02*
D03*
X702000Y176000D02*
D03*
X572000Y151000D02*
D03*
X562000Y176000D02*
D03*
Y106000D02*
D03*
X572000Y81000D02*
D03*
X642000Y151000D02*
D03*
X632000Y176000D02*
D03*
D77*
X771014Y296743D02*
D03*
X719014D02*
D03*
D78*
X784794D02*
D03*
X771014Y468003D02*
D03*
X719014D02*
D03*
X732794Y296743D02*
D03*
D79*
X761172Y317806D02*
D03*
X794636Y313082D02*
D03*
Y451664D02*
D03*
X761172Y446940D02*
D03*
X709172D02*
D03*
X742636Y451664D02*
D03*
Y313082D02*
D03*
X709172Y317806D02*
D03*
D80*
X591046Y451304D02*
D03*
D81*
X609550Y439494D02*
D03*
D82*
Y463116D02*
D03*
D83*
X351800Y424100D02*
D03*
D84*
X341800D02*
D03*
X331800D02*
D03*
X321800D02*
D03*
Y454100D02*
D03*
X331800D02*
D03*
X341800D02*
D03*
X351800D02*
D03*
D85*
X65827Y264724D02*
D03*
Y355276D02*
D03*
X294173Y264724D02*
D03*
Y355276D02*
D03*
D86*
X85000Y259724D02*
D03*
Y269724D02*
D03*
X95000Y259724D02*
D03*
Y269724D02*
D03*
X105000Y259724D02*
D03*
Y269724D02*
D03*
X115000Y259724D02*
D03*
Y269724D02*
D03*
X125000Y259724D02*
D03*
Y269724D02*
D03*
X135000Y259724D02*
D03*
Y269724D02*
D03*
X145000Y259724D02*
D03*
Y269724D02*
D03*
X155000Y259724D02*
D03*
Y269724D02*
D03*
X165000Y259724D02*
D03*
Y269724D02*
D03*
X175000Y259724D02*
D03*
Y269724D02*
D03*
X185000Y259724D02*
D03*
Y269724D02*
D03*
X195000Y259724D02*
D03*
Y269724D02*
D03*
X205000Y259724D02*
D03*
Y269724D02*
D03*
X215000Y259724D02*
D03*
Y269724D02*
D03*
X225000Y259724D02*
D03*
Y269724D02*
D03*
X235000Y259724D02*
D03*
Y269724D02*
D03*
X245000Y259724D02*
D03*
Y269724D02*
D03*
X255000Y259724D02*
D03*
Y269724D02*
D03*
X265000Y259724D02*
D03*
Y269724D02*
D03*
X275000Y259724D02*
D03*
D87*
Y269724D02*
D03*
D88*
X59472Y136500D02*
D03*
X451000D02*
D03*
X407500D02*
D03*
X364000D02*
D03*
X320472D02*
D03*
X276972D02*
D03*
X233472D02*
D03*
X190000D02*
D03*
X146500D02*
D03*
X103000D02*
D03*
D89*
X59472Y126500D02*
D03*
Y116500D02*
D03*
Y106500D02*
D03*
Y96500D02*
D03*
Y86500D02*
D03*
Y76500D02*
D03*
Y66500D02*
D03*
Y56500D02*
D03*
Y46500D02*
D03*
X89000D02*
D03*
Y56500D02*
D03*
Y66500D02*
D03*
Y76500D02*
D03*
Y86500D02*
D03*
Y96500D02*
D03*
Y106500D02*
D03*
Y116500D02*
D03*
Y126500D02*
D03*
Y136500D02*
D03*
X480528D02*
D03*
Y126500D02*
D03*
Y116500D02*
D03*
Y106500D02*
D03*
Y96500D02*
D03*
Y86500D02*
D03*
Y76500D02*
D03*
Y66500D02*
D03*
Y56500D02*
D03*
Y46500D02*
D03*
X451000D02*
D03*
Y56500D02*
D03*
Y66500D02*
D03*
Y76500D02*
D03*
Y86500D02*
D03*
Y96500D02*
D03*
Y106500D02*
D03*
Y116500D02*
D03*
Y126500D02*
D03*
X407500D02*
D03*
Y116500D02*
D03*
Y106500D02*
D03*
Y96500D02*
D03*
Y86500D02*
D03*
Y76500D02*
D03*
Y66500D02*
D03*
Y56500D02*
D03*
Y46500D02*
D03*
X437028D02*
D03*
Y56500D02*
D03*
Y66500D02*
D03*
Y76500D02*
D03*
Y86500D02*
D03*
Y96500D02*
D03*
Y106500D02*
D03*
Y116500D02*
D03*
Y126500D02*
D03*
Y136500D02*
D03*
X393528D02*
D03*
Y126500D02*
D03*
Y116500D02*
D03*
Y106500D02*
D03*
Y96500D02*
D03*
Y86500D02*
D03*
Y76500D02*
D03*
Y66500D02*
D03*
Y56500D02*
D03*
Y46500D02*
D03*
X364000D02*
D03*
Y56500D02*
D03*
Y66500D02*
D03*
Y76500D02*
D03*
Y86500D02*
D03*
Y96500D02*
D03*
Y106500D02*
D03*
Y116500D02*
D03*
Y126500D02*
D03*
X350000Y136500D02*
D03*
Y126500D02*
D03*
Y116500D02*
D03*
Y106500D02*
D03*
Y96500D02*
D03*
Y86500D02*
D03*
Y76500D02*
D03*
Y66500D02*
D03*
Y56500D02*
D03*
Y46500D02*
D03*
X320472D02*
D03*
Y56500D02*
D03*
Y66500D02*
D03*
Y76500D02*
D03*
Y86500D02*
D03*
Y96500D02*
D03*
Y106500D02*
D03*
Y116500D02*
D03*
Y126500D02*
D03*
X306500Y136500D02*
D03*
Y126500D02*
D03*
Y116500D02*
D03*
Y106500D02*
D03*
Y96500D02*
D03*
Y86500D02*
D03*
Y76500D02*
D03*
Y66500D02*
D03*
Y56500D02*
D03*
Y46500D02*
D03*
X276972D02*
D03*
Y56500D02*
D03*
Y66500D02*
D03*
Y76500D02*
D03*
Y86500D02*
D03*
Y96500D02*
D03*
Y106500D02*
D03*
Y116500D02*
D03*
Y126500D02*
D03*
X263000Y136500D02*
D03*
Y126500D02*
D03*
Y116500D02*
D03*
Y106500D02*
D03*
Y96500D02*
D03*
Y86500D02*
D03*
Y76500D02*
D03*
Y66500D02*
D03*
Y56500D02*
D03*
Y46500D02*
D03*
X233472D02*
D03*
Y56500D02*
D03*
Y66500D02*
D03*
Y76500D02*
D03*
Y86500D02*
D03*
Y96500D02*
D03*
Y106500D02*
D03*
Y116500D02*
D03*
Y126500D02*
D03*
X190000D02*
D03*
Y116500D02*
D03*
Y106500D02*
D03*
Y96500D02*
D03*
Y86500D02*
D03*
Y76500D02*
D03*
Y66500D02*
D03*
Y56500D02*
D03*
Y46500D02*
D03*
X219528D02*
D03*
Y56500D02*
D03*
Y66500D02*
D03*
Y76500D02*
D03*
Y86500D02*
D03*
Y96500D02*
D03*
Y106500D02*
D03*
Y116500D02*
D03*
Y126500D02*
D03*
Y136500D02*
D03*
X146500Y126500D02*
D03*
Y116500D02*
D03*
Y106500D02*
D03*
Y96500D02*
D03*
Y86500D02*
D03*
Y76500D02*
D03*
Y66500D02*
D03*
Y56500D02*
D03*
Y46500D02*
D03*
X176028D02*
D03*
Y56500D02*
D03*
Y66500D02*
D03*
Y76500D02*
D03*
Y86500D02*
D03*
Y96500D02*
D03*
Y106500D02*
D03*
Y116500D02*
D03*
Y126500D02*
D03*
Y136500D02*
D03*
X103000Y126500D02*
D03*
Y116500D02*
D03*
Y106500D02*
D03*
Y96500D02*
D03*
Y86500D02*
D03*
Y76500D02*
D03*
Y66500D02*
D03*
Y56500D02*
D03*
Y46500D02*
D03*
X132528D02*
D03*
Y56500D02*
D03*
Y66500D02*
D03*
Y76500D02*
D03*
Y86500D02*
D03*
Y96500D02*
D03*
Y106500D02*
D03*
Y116500D02*
D03*
Y126500D02*
D03*
Y136500D02*
D03*
D90*
X132408Y442356D02*
D03*
X142251D02*
D03*
X150125D02*
D03*
X159968D02*
D03*
X132408Y431687D02*
D03*
X142251D02*
D03*
X150125D02*
D03*
X159968D02*
D03*
D91*
X100000Y435000D02*
D03*
X90158D02*
D03*
X571000Y432000D02*
D03*
Y441843D02*
D03*
X90158Y465000D02*
D03*
X100000D02*
D03*
X772000Y260000D02*
D03*
Y250157D02*
D03*
X742000Y250000D02*
D03*
Y259842D02*
D03*
X712000Y250157D02*
D03*
Y260000D02*
D03*
X771158Y134000D02*
D03*
X781000D02*
D03*
X771000Y164000D02*
D03*
X780842D02*
D03*
Y194000D02*
D03*
X771000D02*
D03*
D92*
X387500Y469500D02*
D03*
X364744D02*
D03*
D93*
X359114Y483988D02*
D03*
X393130D02*
D03*
D94*
X359114Y467531D02*
D03*
X393130D02*
D03*
D95*
X355700Y346400D02*
D03*
Y336400D02*
D03*
Y326400D02*
D03*
Y316400D02*
D03*
X365700Y336400D02*
D03*
Y326400D02*
D03*
Y316400D02*
D03*
X645000Y300000D02*
D03*
Y310000D02*
D03*
Y320000D02*
D03*
Y330000D02*
D03*
X586200Y398300D02*
D03*
Y408300D02*
D03*
Y418300D02*
D03*
X54000Y235000D02*
D03*
X44000D02*
D03*
X31000Y300100D02*
D03*
Y310100D02*
D03*
Y320100D02*
D03*
Y330100D02*
D03*
X747000Y231000D02*
D03*
X757000D02*
D03*
X767000D02*
D03*
X777000D02*
D03*
X510000Y80000D02*
D03*
Y90000D02*
D03*
Y100000D02*
D03*
Y110000D02*
D03*
X31000Y80000D02*
D03*
Y90000D02*
D03*
Y100000D02*
D03*
Y110000D02*
D03*
X667000Y300000D02*
D03*
Y310000D02*
D03*
Y320000D02*
D03*
Y330000D02*
D03*
X837000D02*
D03*
Y320000D02*
D03*
Y310000D02*
D03*
Y300000D02*
D03*
X667000Y210000D02*
D03*
X677000D02*
D03*
X687000D02*
D03*
X697000D02*
D03*
Y40000D02*
D03*
X687000D02*
D03*
X677000D02*
D03*
X667000D02*
D03*
X146000Y235000D02*
D03*
X136000D02*
D03*
X101000D02*
D03*
X91000D02*
D03*
D96*
X371900Y372700D02*
D03*
X749600Y278000D02*
D03*
X406600Y371900D02*
D03*
X493700Y428200D02*
D03*
X390500Y381882D02*
D03*
X393476Y381887D02*
D03*
X371800Y375500D02*
D03*
X372400Y369850D02*
D03*
Y362200D02*
D03*
X379300Y354700D02*
D03*
X266000Y444300D02*
D03*
X239600Y432500D02*
D03*
X251800Y407400D02*
D03*
X233900Y407500D02*
D03*
X415400Y449900D02*
D03*
X415300Y462100D02*
D03*
X382000Y448800D02*
D03*
X800000Y440000D02*
D03*
X820000Y400000D02*
D03*
X800000Y360000D02*
D03*
Y200000D02*
D03*
X820000Y160000D02*
D03*
X760000Y440000D02*
D03*
X780000Y400000D02*
D03*
X760000Y360000D02*
D03*
X780000Y320000D02*
D03*
X760000Y120000D02*
D03*
X720000Y440000D02*
D03*
X740000Y400000D02*
D03*
X720000Y360000D02*
D03*
X740000Y320000D02*
D03*
Y160000D02*
D03*
Y80000D02*
D03*
X680000Y440000D02*
D03*
X700000Y400000D02*
D03*
X680000Y360000D02*
D03*
X700000Y240000D02*
D03*
X640000Y360000D02*
D03*
Y280000D02*
D03*
X660000Y160000D02*
D03*
X640000Y40000D02*
D03*
X600000Y360000D02*
D03*
X620000Y240000D02*
D03*
Y160000D02*
D03*
X600000Y40000D02*
D03*
X580000Y400000D02*
D03*
X560000Y360000D02*
D03*
Y280000D02*
D03*
X580000Y240000D02*
D03*
X560000Y40000D02*
D03*
X520000Y440000D02*
D03*
X540000Y400000D02*
D03*
X520000Y280000D02*
D03*
X540000Y240000D02*
D03*
X480000Y440000D02*
D03*
Y280000D02*
D03*
X500000Y240000D02*
D03*
X480000Y200000D02*
D03*
X500000Y160000D02*
D03*
X440000Y440000D02*
D03*
X460000Y240000D02*
D03*
X440000Y200000D02*
D03*
X420000Y240000D02*
D03*
X400000Y200000D02*
D03*
X380000Y320000D02*
D03*
Y240000D02*
D03*
X360000Y200000D02*
D03*
X340000Y400000D02*
D03*
X320000Y360000D02*
D03*
Y280000D02*
D03*
X280000Y360000D02*
D03*
X300000Y320000D02*
D03*
Y240000D02*
D03*
X240000Y360000D02*
D03*
X260000Y320000D02*
D03*
X240000Y280000D02*
D03*
X260000Y240000D02*
D03*
X220000Y400000D02*
D03*
X200000Y360000D02*
D03*
X220000Y320000D02*
D03*
X200000Y280000D02*
D03*
X220000Y240000D02*
D03*
X180000Y400000D02*
D03*
X160000Y360000D02*
D03*
Y280000D02*
D03*
X180000Y240000D02*
D03*
X120000Y440000D02*
D03*
X140000Y400000D02*
D03*
X120000Y360000D02*
D03*
Y280000D02*
D03*
X140000Y240000D02*
D03*
X120000Y200000D02*
D03*
X80000Y360000D02*
D03*
Y280000D02*
D03*
Y200000D02*
D03*
X40000Y440000D02*
D03*
X60000Y400000D02*
D03*
X40000Y360000D02*
D03*
X60000Y320000D02*
D03*
X40000Y280000D02*
D03*
X60000Y240000D02*
D03*
X40000Y200000D02*
D03*
X60000Y160000D02*
D03*
X40000Y120000D02*
D03*
Y40000D02*
D03*
X295700Y423200D02*
D03*
X300500Y445400D02*
D03*
X489900Y402300D02*
D03*
X483300Y411500D02*
D03*
X511300Y399600D02*
D03*
X511200Y408300D02*
D03*
X504600Y416400D02*
D03*
X503500Y426700D02*
D03*
X496300D02*
D03*
X480100Y428500D02*
D03*
X369000Y436800D02*
D03*
X310100Y405200D02*
D03*
X299000Y429100D02*
D03*
X293500Y425900D02*
D03*
X482600Y428400D02*
D03*
X484300Y409000D02*
D03*
X491700Y400400D02*
D03*
X513700Y399600D02*
D03*
X507100Y416300D02*
D03*
X513700Y408100D02*
D03*
X516300Y428600D02*
D03*
X408900Y393700D02*
D03*
X352400Y399700D02*
D03*
X416300Y394100D02*
D03*
X367600Y362300D02*
D03*
X416300Y390800D02*
D03*
X411400Y393700D02*
D03*
X396600Y382000D02*
D03*
X320400Y260000D02*
D03*
X325200Y259900D02*
D03*
X315500D02*
D03*
X328707Y436800D02*
D03*
X331356Y447044D02*
D03*
X270736Y441736D02*
D03*
X278600Y454400D02*
D03*
X289500Y407500D02*
D03*
X276800Y428200D02*
D03*
X506000Y426600D02*
D03*
X372443Y377790D02*
D03*
X379100Y366900D02*
D03*
X372600Y365000D02*
D03*
X379100Y364200D02*
D03*
X693000Y257000D02*
D03*
X802000Y233000D02*
D03*
X824000D02*
D03*
X817000Y261000D02*
D03*
X780000Y278000D02*
D03*
X689000Y304000D02*
D03*
X691000Y310000D02*
D03*
X696000Y324000D02*
D03*
X820000Y200000D02*
D03*
X830000Y180000D02*
D03*
X820000Y160000D02*
D03*
X800000Y200000D02*
D03*
X810000Y180000D02*
D03*
X760000Y160000D02*
D03*
Y120000D02*
D03*
X770000Y100000D02*
D03*
X760000Y80000D02*
D03*
X740000Y160000D02*
D03*
X750000Y100000D02*
D03*
X740000Y80000D02*
D03*
X730000Y140000D02*
D03*
X690000Y180000D02*
D03*
X680000Y160000D02*
D03*
X670000Y180000D02*
D03*
Y60000D02*
D03*
X660000Y40000D02*
D03*
X640000Y160000D02*
D03*
X650000Y60000D02*
D03*
X640000Y40000D02*
D03*
X620000Y160000D02*
D03*
X630000Y60000D02*
D03*
X620000Y40000D02*
D03*
X610000Y180000D02*
D03*
X600000Y160000D02*
D03*
X610000Y60000D02*
D03*
X600000Y40000D02*
D03*
X590000Y180000D02*
D03*
Y60000D02*
D03*
X580000Y40000D02*
D03*
X570000Y180000D02*
D03*
X560000Y160000D02*
D03*
X570000Y60000D02*
D03*
X560000Y40000D02*
D03*
X550000Y180000D02*
D03*
Y140000D02*
D03*
Y100000D02*
D03*
X540000Y40000D02*
D03*
X530000Y60000D02*
D03*
X500000Y200000D02*
D03*
X510000Y180000D02*
D03*
X500000Y160000D02*
D03*
X510000Y140000D02*
D03*
X500000Y40000D02*
D03*
X480000Y200000D02*
D03*
X490000Y180000D02*
D03*
X460000Y200000D02*
D03*
X440000D02*
D03*
X400000D02*
D03*
X380000D02*
D03*
X360000D02*
D03*
X300000D02*
D03*
X140000D02*
D03*
X120000D02*
D03*
X130000Y180000D02*
D03*
X100000Y200000D02*
D03*
X110000Y180000D02*
D03*
X80000Y200000D02*
D03*
X90000Y180000D02*
D03*
X60000Y200000D02*
D03*
X70000Y180000D02*
D03*
X60000Y160000D02*
D03*
X40000Y200000D02*
D03*
X50000Y180000D02*
D03*
X40000Y160000D02*
D03*
Y120000D02*
D03*
Y40000D02*
D03*
X697000Y63000D02*
D03*
X687000D02*
D03*
X784000Y68000D02*
D03*
X829210Y64157D02*
D03*
X825000Y74000D02*
D03*
X802000D02*
D03*
X795000Y120000D02*
D03*
X828000D02*
D03*
X831000Y133000D02*
D03*
X328000Y174000D02*
D03*
X399000Y210000D02*
D03*
X425000Y208000D02*
D03*
X429000Y200000D02*
D03*
X445000Y177000D02*
D03*
X118000Y151500D02*
D03*
X111000Y151431D02*
D03*
X98000Y151000D02*
D03*
Y145000D02*
D03*
X484000D02*
D03*
X440000D02*
D03*
X396000D02*
D03*
X353000D02*
D03*
X320000Y143000D02*
D03*
X266000Y145000D02*
D03*
X233000Y143000D02*
D03*
X180000Y145000D02*
D03*
X291000Y191000D02*
D03*
X286000D02*
D03*
X281000D02*
D03*
X276000D02*
D03*
X271000D02*
D03*
X266000D02*
D03*
X261000D02*
D03*
X256000D02*
D03*
X77000Y91000D02*
D03*
X72000Y101000D02*
D03*
X402000Y385600D02*
D03*
X390063Y362149D02*
D03*
X392833Y362170D02*
D03*
X379500Y382100D02*
D03*
X387000D02*
D03*
D97*
X496200Y334800D02*
D03*
X433100Y340900D02*
D03*
X425300Y355600D02*
D03*
X373300Y384900D02*
D03*
X357000Y353000D02*
D03*
M02*
