G04*
G04 #@! TF.GenerationSoftware,Altium Limited,Altium Designer,25.1.2 (22)*
G04*
G04 Layer_Color=128*
%FSLAX25Y25*%
%MOIN*%
G70*
G04*
G04 #@! TF.SameCoordinates,DBC5BB4E-B95F-4F78-ABC1-F02F3F3965D1*
G04*
G04*
G04 #@! TF.FilePolarity,Positive*
G04*
G01*
G75*
%ADD22R,0.05700X0.04400*%
%ADD23R,0.02600X0.07300*%
%ADD28R,0.04600X0.05700*%
%ADD41R,0.04724X0.03543*%
%ADD42R,0.09830X0.12192*%
%ADD43R,0.09830X0.03137*%
%ADD46R,0.03400X0.04200*%
%ADD48R,0.05000X0.05500*%
%ADD54R,0.04200X0.03400*%
%ADD56R,0.04200X0.05100*%
%ADD57R,0.05000X0.05000*%
%ADD59R,0.05500X0.05000*%
%ADD60R,0.05700X0.04600*%
%ADD128R,0.03543X0.04724*%
G36*
X686500Y365750D02*
Y373050D01*
X699500D01*
Y365750D01*
X686500D01*
D02*
G37*
D22*
X308359Y418123D02*
D03*
Y411623D02*
D03*
X315449D02*
D03*
Y418123D02*
D03*
D23*
X702050Y343600D02*
D03*
X693000D02*
D03*
X683950D02*
D03*
D28*
X605150Y385000D02*
D03*
X596850D02*
D03*
D41*
X687000Y48866D02*
D03*
Y57134D02*
D03*
X697000Y48866D02*
D03*
Y57134D02*
D03*
D42*
X640614Y403000D02*
D03*
D43*
X617386Y393945D02*
D03*
Y403000D02*
D03*
Y412055D02*
D03*
D46*
X386000Y377850D02*
D03*
Y371350D02*
D03*
X393500Y349850D02*
D03*
Y356350D02*
D03*
X390500Y377850D02*
D03*
Y371350D02*
D03*
X389000Y349850D02*
D03*
Y356350D02*
D03*
X381000Y371350D02*
D03*
Y377850D02*
D03*
X395000D02*
D03*
Y371350D02*
D03*
D48*
X564150Y142000D02*
D03*
X571850D02*
D03*
X562850Y81000D02*
D03*
X555150D02*
D03*
D54*
X412750Y385600D02*
D03*
X406250D02*
D03*
D56*
X613950Y385000D02*
D03*
X622050D02*
D03*
X678950Y333000D02*
D03*
X687050D02*
D03*
X695950D02*
D03*
X704050D02*
D03*
X727050Y308000D02*
D03*
X718950D02*
D03*
X770950D02*
D03*
X779050D02*
D03*
D57*
X361000Y451550D02*
D03*
Y444250D02*
D03*
X617000Y422350D02*
D03*
Y429650D02*
D03*
X553000Y353350D02*
D03*
Y360650D02*
D03*
D59*
X641000Y429850D02*
D03*
Y422150D02*
D03*
X633000Y73000D02*
D03*
Y80700D02*
D03*
Y152150D02*
D03*
Y159850D02*
D03*
X703000Y158850D02*
D03*
Y151150D02*
D03*
X702000Y80850D02*
D03*
Y73150D02*
D03*
D60*
X605000Y394850D02*
D03*
Y403150D02*
D03*
D128*
X500134Y89000D02*
D03*
X491866D02*
D03*
Y81000D02*
D03*
X500134D02*
D03*
X818866Y310000D02*
D03*
X827134D02*
D03*
X809866Y300000D02*
D03*
X818134D02*
D03*
X675866Y310000D02*
D03*
X684134D02*
D03*
X675866Y300000D02*
D03*
X684134D02*
D03*
M02*
