G04*
G04 #@! TF.GenerationSoftware,Altium Limited,Altium Designer,25.1.2 (22)*
G04*
G04 Layer_Color=32896*
%FSLAX25Y25*%
%MOIN*%
G70*
G04*
G04 #@! TF.SameCoordinates,DBC5BB4E-B95F-4F78-ABC1-F02F3F3965D1*
G04*
G04*
G04 #@! TF.FilePolarity,Positive*
G04*
G01*
G75*
%ADD10C,0.00600*%
%ADD11C,0.02000*%
%ADD14C,0.00787*%
%ADD15C,0.00984*%
%ADD17C,0.00800*%
%ADD18C,0.00300*%
D10*
X627750Y385000D02*
G03*
X627750Y385000I-300J0D01*
G01*
X673850Y333000D02*
G03*
X673850Y333000I-300J0D01*
G01*
X709750D02*
G03*
X709750Y333000I-300J0D01*
G01*
X711650Y342150D02*
G03*
X711650Y342150I-500J0D01*
G01*
X732750Y308000D02*
G03*
X732750Y308000I-300J0D01*
G01*
X765850D02*
G03*
X765850Y308000I-300J0D01*
G01*
X356031Y453600D02*
X357300D01*
X316300Y424600D02*
Y453600D01*
X317569D01*
X357300Y424600D02*
Y453600D01*
X356060Y424600D02*
X357300D01*
X346031D02*
X347540D01*
X336031D02*
X337569D01*
X326031D02*
X327569D01*
X316300D02*
X317569D01*
X326031Y453600D02*
X327569D01*
X336031D02*
X337569D01*
X346031D02*
X347569D01*
X617297Y387950D02*
X618703D01*
X617297Y382050D02*
X618703D01*
X601750Y398397D02*
Y399603D01*
X608250Y398397D02*
Y399603D01*
X600397Y381750D02*
X601603D01*
X600397Y388250D02*
X601603D01*
X682297Y335950D02*
X683703D01*
X682297Y330050D02*
X683703D01*
X699297Y335950D02*
X700703D01*
X699297Y330050D02*
X700703D01*
X679350Y348750D02*
X706650D01*
X679350D02*
Y364250D01*
X706650D01*
Y348750D02*
Y364250D01*
X722297Y305050D02*
X723703D01*
X722297Y310950D02*
X723703D01*
X774297D02*
X775703D01*
X774297Y305050D02*
X775703D01*
D11*
X643500Y58000D02*
G03*
X643500Y58000I-1500J0D01*
G01*
X544500Y389000D02*
G03*
X544500Y389000I-1500J0D01*
G01*
Y317100D02*
G03*
X544500Y317100I-1500J0D01*
G01*
X616800D02*
G03*
X616800Y317100I-1500J0D01*
G01*
Y389000D02*
G03*
X616800Y389000I-1500J0D01*
G01*
X409350Y323224D02*
G03*
X409350Y323224I-1500J0D01*
G01*
X713500Y58000D02*
G03*
X713500Y58000I-1500J0D01*
G01*
Y128000D02*
G03*
X713500Y128000I-1500J0D01*
G01*
X573500D02*
G03*
X573500Y128000I-1500J0D01*
G01*
Y58000D02*
G03*
X573500Y58000I-1500J0D01*
G01*
X643500Y128000D02*
G03*
X643500Y128000I-1500J0D01*
G01*
D14*
X495114Y91658D02*
X496886D01*
X495114Y86343D02*
X496886D01*
X495114Y78342D02*
X496886D01*
X495114Y83657D02*
X496886D01*
X822114Y307343D02*
X823886D01*
X822114Y312657D02*
X823886D01*
X813114Y297342D02*
X814886D01*
X813114Y302658D02*
X814886D01*
X623882Y416189D02*
X634118D01*
X623882Y389811D02*
X634118D01*
Y416189D01*
X623882Y389811D02*
Y416189D01*
X679114Y307343D02*
X680886D01*
X679114Y312657D02*
X680886D01*
X679114Y297342D02*
X680886D01*
X679114Y302658D02*
X680886D01*
X689657Y52114D02*
Y53886D01*
X684342Y52114D02*
Y53886D01*
X699657Y52114D02*
Y53886D01*
X694343Y52114D02*
Y53886D01*
D15*
X617878Y389811D02*
G03*
X617878Y389811I-492J0D01*
G01*
D17*
X47000Y322299D02*
X44334D01*
X45667D01*
Y318300D01*
X43001D02*
Y322299D01*
X41002D01*
X40336Y321632D01*
Y320299D01*
X41002Y319633D01*
X43001D01*
X39003Y321632D02*
X38336Y322299D01*
X37003D01*
X36337Y321632D01*
Y320966D01*
X37003Y320299D01*
X36337Y319633D01*
Y318966D01*
X37003Y318300D01*
X38336D01*
X39003Y318966D01*
Y319633D01*
X38336Y320299D01*
X39003Y320966D01*
Y321632D01*
X38336Y320299D02*
X37003D01*
X310299Y407632D02*
X306301D01*
Y405632D01*
X306967Y404966D01*
X308300D01*
X308966Y405632D01*
Y407632D01*
Y406299D02*
X310299Y404966D01*
Y401634D02*
X306301D01*
X308300Y403633D01*
Y400967D01*
X309633Y399634D02*
X310299Y398968D01*
Y397635D01*
X309633Y396968D01*
X306967D01*
X306301Y397635D01*
Y398968D01*
X306967Y399634D01*
X307634D01*
X308300Y398968D01*
Y396968D01*
X313032Y441999D02*
Y438667D01*
X312365Y438001D01*
X311032D01*
X310366Y438667D01*
Y441999D01*
X309033Y441333D02*
X308366Y441999D01*
X307034D01*
X306367Y441333D01*
Y440666D01*
X307034Y440000D01*
X307700D01*
X307034D01*
X306367Y439334D01*
Y438667D01*
X307034Y438001D01*
X308366D01*
X309033Y438667D01*
X305034Y441333D02*
X304368Y441999D01*
X303035D01*
X302368Y441333D01*
Y438667D01*
X303035Y438001D01*
X304368D01*
X305034Y438667D01*
Y441333D01*
X368333Y445334D02*
X368999Y444668D01*
Y443335D01*
X368333Y442668D01*
X365667D01*
X365001Y443335D01*
Y444668D01*
X365667Y445334D01*
X368999Y446667D02*
Y449333D01*
X368333D01*
X365667Y446667D01*
X365001D01*
X368333Y450666D02*
X368999Y451332D01*
Y452665D01*
X368333Y453332D01*
X367666D01*
X367000Y452665D01*
X366334Y453332D01*
X365667D01*
X365001Y452665D01*
Y451332D01*
X365667Y450666D01*
X366334D01*
X367000Y451332D01*
X367666Y450666D01*
X368333D01*
X367000Y451332D02*
Y452665D01*
X384567Y365166D02*
X383901Y365833D01*
Y367166D01*
X384567Y367832D01*
X387233D01*
X387899Y367166D01*
Y365833D01*
X387233Y365166D01*
X387899Y361834D02*
X383901D01*
X385900Y363833D01*
Y361168D01*
X397067Y353666D02*
X396401Y354333D01*
Y355666D01*
X397067Y356332D01*
X399733D01*
X400399Y355666D01*
Y354333D01*
X399733Y353666D01*
X396401Y349668D02*
Y352333D01*
X398400D01*
X397734Y351001D01*
Y350334D01*
X398400Y349668D01*
X399733D01*
X400399Y350334D01*
Y351667D01*
X399733Y352333D01*
X389467Y385666D02*
X388801Y386333D01*
Y387666D01*
X389467Y388332D01*
X392133D01*
X392799Y387666D01*
Y386333D01*
X392133Y385666D01*
X388801Y384333D02*
Y381668D01*
X389467D01*
X392133Y384333D01*
X392799D01*
X382467Y355333D02*
X381801Y355999D01*
Y357332D01*
X382467Y357998D01*
X385133D01*
X385799Y357332D01*
Y355999D01*
X385133Y355333D01*
X385799Y354000D02*
Y352667D01*
Y353333D01*
X381801D01*
X382467Y354000D01*
Y350667D02*
X381801Y350001D01*
Y348668D01*
X382467Y348002D01*
X385133D01*
X385799Y348668D01*
Y350001D01*
X385133Y350667D01*
X382467D01*
X382233Y384267D02*
X382899Y383601D01*
Y382268D01*
X382233Y381602D01*
X379567D01*
X378901Y382268D01*
Y383601D01*
X379567Y384267D01*
X378901Y385600D02*
Y386933D01*
Y386267D01*
X382899D01*
X382233Y385600D01*
X378901Y391598D02*
Y388933D01*
X381566Y391598D01*
X382233D01*
X382899Y390932D01*
Y389599D01*
X382233Y388933D01*
X398867Y376633D02*
X398201Y377299D01*
Y378632D01*
X398867Y379298D01*
X401533D01*
X402199Y378632D01*
Y377299D01*
X401533Y376633D01*
X402199Y375300D02*
Y373967D01*
Y374633D01*
X398201D01*
X398867Y375300D01*
Y371967D02*
X398201Y371301D01*
Y369968D01*
X398867Y369302D01*
X399534D01*
X400200Y369968D01*
Y370635D01*
Y369968D01*
X400866Y369302D01*
X401533D01*
X402199Y369968D01*
Y371301D01*
X401533Y371967D01*
X423733Y387033D02*
X424399Y387699D01*
X425732D01*
X426398Y387033D01*
Y384367D01*
X425732Y383701D01*
X424399D01*
X423733Y384367D01*
X422400Y383701D02*
X421067D01*
X421733D01*
Y387699D01*
X422400Y387033D01*
X417068Y383701D02*
Y387699D01*
X419067Y385700D01*
X416402D01*
X609466Y427033D02*
X610132Y427699D01*
X611465D01*
X612132Y427033D01*
Y424367D01*
X611465Y423701D01*
X610132D01*
X609466Y424367D01*
X608133Y427033D02*
X607466Y427699D01*
X606134D01*
X605467Y427033D01*
Y426366D01*
X606134Y425700D01*
X606800D01*
X606134D01*
X605467Y425034D01*
Y424367D01*
X606134Y423701D01*
X607466D01*
X608133Y424367D01*
X604134Y427699D02*
X601468D01*
Y427033D01*
X604134Y424367D01*
Y423701D01*
X639367Y443566D02*
X638701Y444232D01*
Y445565D01*
X639367Y446232D01*
X642033D01*
X642699Y445565D01*
Y444232D01*
X642033Y443566D01*
X639367Y442233D02*
X638701Y441566D01*
Y440234D01*
X639367Y439567D01*
X640034D01*
X640700Y440234D01*
Y440900D01*
Y440234D01*
X641366Y439567D01*
X642033D01*
X642699Y440234D01*
Y441566D01*
X642033Y442233D01*
X639367Y438234D02*
X638701Y437568D01*
Y436235D01*
X639367Y435568D01*
X640034D01*
X640700Y436235D01*
X641366Y435568D01*
X642033D01*
X642699Y436235D01*
Y437568D01*
X642033Y438234D01*
X641366D01*
X640700Y437568D01*
X640034Y438234D01*
X639367D01*
X640700Y437568D02*
Y436235D01*
X637766Y386433D02*
X638432Y387099D01*
X639765D01*
X640432Y386433D01*
Y383767D01*
X639765Y383101D01*
X638432D01*
X637766Y383767D01*
X636433Y386433D02*
X635766Y387099D01*
X634434D01*
X633767Y386433D01*
Y385766D01*
X634434Y385100D01*
X635100D01*
X634434D01*
X633767Y384434D01*
Y383767D01*
X634434Y383101D01*
X635766D01*
X636433Y383767D01*
X632434D02*
X631768Y383101D01*
X630435D01*
X629768Y383767D01*
Y386433D01*
X630435Y387099D01*
X631768D01*
X632434Y386433D01*
Y385766D01*
X631768Y385100D01*
X629768D01*
X499732Y94401D02*
Y98399D01*
X497733D01*
X497066Y97733D01*
Y96400D01*
X497733Y95734D01*
X499732D01*
X498399D02*
X497066Y94401D01*
X495733Y97733D02*
X495067Y98399D01*
X493734D01*
X493068Y97733D01*
Y97066D01*
X493734Y96400D01*
X493068Y95734D01*
Y95067D01*
X493734Y94401D01*
X495067D01*
X495733Y95067D01*
Y95734D01*
X495067Y96400D01*
X495733Y97066D01*
Y97733D01*
X495067Y96400D02*
X493734D01*
X499532Y72101D02*
Y76099D01*
X497533D01*
X496866Y75433D01*
Y74100D01*
X497533Y73434D01*
X499532D01*
X498199D02*
X496866Y72101D01*
X495534Y72767D02*
X494867Y72101D01*
X493534D01*
X492868Y72767D01*
Y75433D01*
X493534Y76099D01*
X494867D01*
X495534Y75433D01*
Y74766D01*
X494867Y74100D01*
X492868D01*
X606799Y417698D02*
X602801D01*
Y415699D01*
X603467Y415033D01*
X604800D01*
X605466Y415699D01*
Y417698D01*
Y416365D02*
X606799Y415033D01*
Y413700D02*
Y412367D01*
Y413033D01*
X602801D01*
X603467Y413700D01*
X602801Y410367D02*
Y407702D01*
X603467D01*
X606133Y410367D01*
X606799D01*
X815098Y307901D02*
Y311899D01*
X813099D01*
X812433Y311233D01*
Y309900D01*
X813099Y309234D01*
X815098D01*
X813766D02*
X812433Y307901D01*
X811100D02*
X809767D01*
X810433D01*
Y311899D01*
X811100Y311233D01*
X807767Y308567D02*
X807101Y307901D01*
X805768D01*
X805102Y308567D01*
Y311233D01*
X805768Y311899D01*
X807101D01*
X807767Y311233D01*
Y310566D01*
X807101Y309900D01*
X805102D01*
X806632Y298001D02*
Y301999D01*
X804632D01*
X803966Y301333D01*
Y300000D01*
X804632Y299334D01*
X806632D01*
X805299D02*
X803966Y298001D01*
X799967D02*
X802633D01*
X799967Y300666D01*
Y301333D01*
X800634Y301999D01*
X801966D01*
X802633Y301333D01*
X798634D02*
X797968Y301999D01*
X796635D01*
X795968Y301333D01*
Y298667D01*
X796635Y298001D01*
X797968D01*
X798634Y298667D01*
Y301333D01*
X644532Y416199D02*
Y412867D01*
X643866Y412201D01*
X642533D01*
X641866Y412867D01*
Y416199D01*
X640533Y415533D02*
X639867Y416199D01*
X638534D01*
X637868Y415533D01*
Y414866D01*
X638534Y414200D01*
X637868Y413534D01*
Y412867D01*
X638534Y412201D01*
X639867D01*
X640533Y412867D01*
Y413534D01*
X639867Y414200D01*
X640533Y414866D01*
Y415533D01*
X639867Y414200D02*
X638534D01*
X564866Y357433D02*
X565532Y358099D01*
X566865D01*
X567532Y357433D01*
Y354767D01*
X566865Y354101D01*
X565532D01*
X564866Y354767D01*
X561534Y354101D02*
Y358099D01*
X563533Y356100D01*
X560867D01*
X556868Y358099D02*
X559534D01*
Y356100D01*
X558201Y356766D01*
X557535D01*
X556868Y356100D01*
Y354767D01*
X557535Y354101D01*
X558868D01*
X559534Y354767D01*
X685766Y327533D02*
X686432Y328199D01*
X687765D01*
X688432Y327533D01*
Y324867D01*
X687765Y324201D01*
X686432D01*
X685766Y324867D01*
X682434Y324201D02*
Y328199D01*
X684433Y326200D01*
X681767D01*
X680434Y328199D02*
X677768D01*
Y327533D01*
X680434Y324867D01*
Y324201D01*
X715966Y333933D02*
X716632Y334599D01*
X717965D01*
X718632Y333933D01*
Y331267D01*
X717965Y330601D01*
X716632D01*
X715966Y331267D01*
X712634Y330601D02*
Y334599D01*
X714633Y332600D01*
X711967D01*
X710634Y333933D02*
X709968Y334599D01*
X708635D01*
X707968Y333933D01*
Y333266D01*
X708635Y332600D01*
X707968Y331934D01*
Y331267D01*
X708635Y330601D01*
X709968D01*
X710634Y331267D01*
Y331934D01*
X709968Y332600D01*
X710634Y333266D01*
Y333933D01*
X709968Y332600D02*
X708635D01*
X711200Y381999D02*
Y378666D01*
X710534Y378000D01*
X709201D01*
X708534Y378666D01*
Y381999D01*
X707201Y378000D02*
X705868D01*
X706535D01*
Y381999D01*
X707201Y381332D01*
X703869Y378000D02*
X702536D01*
X703203D01*
Y381999D01*
X703869Y381332D01*
X46900Y337399D02*
X44234D01*
X45567D01*
Y333400D01*
X42901D02*
Y337399D01*
X40902D01*
X40235Y336732D01*
Y335399D01*
X40902Y334733D01*
X42901D01*
X38903Y337399D02*
X36237D01*
Y336732D01*
X38903Y334066D01*
Y333400D01*
X711866Y309733D02*
X712532Y310399D01*
X713865D01*
X714532Y309733D01*
Y307067D01*
X713865Y306401D01*
X712532D01*
X711866Y307067D01*
X707867Y310399D02*
X710533D01*
Y308400D01*
X709200Y309066D01*
X708534D01*
X707867Y308400D01*
Y307067D01*
X708534Y306401D01*
X709866D01*
X710533Y307067D01*
X706534Y309733D02*
X705868Y310399D01*
X704535D01*
X703868Y309733D01*
Y307067D01*
X704535Y306401D01*
X705868D01*
X706534Y307067D01*
Y309733D01*
X777666Y316633D02*
X778332Y317299D01*
X779665D01*
X780332Y316633D01*
Y313967D01*
X779665Y313301D01*
X778332D01*
X777666Y313967D01*
X773667Y317299D02*
X776333D01*
Y315300D01*
X775000Y315966D01*
X774334D01*
X773667Y315300D01*
Y313967D01*
X774334Y313301D01*
X775666D01*
X776333Y313967D01*
X769668Y313301D02*
X772334D01*
X769668Y315966D01*
Y316633D01*
X770335Y317299D01*
X771668D01*
X772334Y316633D01*
X557666Y143433D02*
X558332Y144099D01*
X559665D01*
X560332Y143433D01*
Y140767D01*
X559665Y140101D01*
X558332D01*
X557666Y140767D01*
X553667Y144099D02*
X555000Y143433D01*
X556333Y142100D01*
Y140767D01*
X555666Y140101D01*
X554334D01*
X553667Y140767D01*
Y141434D01*
X554334Y142100D01*
X556333D01*
X552334Y143433D02*
X551668Y144099D01*
X550335D01*
X549668Y143433D01*
Y140767D01*
X550335Y140101D01*
X551668D01*
X552334Y140767D01*
Y143433D01*
X561199Y89133D02*
X561866Y89799D01*
X563199D01*
X563865Y89133D01*
Y86467D01*
X563199Y85801D01*
X561866D01*
X561199Y86467D01*
X557201Y89799D02*
X558534Y89133D01*
X559866Y87800D01*
Y86467D01*
X559200Y85801D01*
X557867D01*
X557201Y86467D01*
Y87134D01*
X557867Y87800D01*
X559866D01*
X555868Y85801D02*
X554535D01*
X555201D01*
Y89799D01*
X555868Y89133D01*
X625866Y78333D02*
X626532Y78999D01*
X627865D01*
X628532Y78333D01*
Y75667D01*
X627865Y75001D01*
X626532D01*
X625866Y75667D01*
X621867Y78999D02*
X623200Y78333D01*
X624533Y77000D01*
Y75667D01*
X623866Y75001D01*
X622534D01*
X621867Y75667D01*
Y76334D01*
X622534Y77000D01*
X624533D01*
X620534Y78333D02*
X619868Y78999D01*
X618535D01*
X617868Y78333D01*
Y77666D01*
X618535Y77000D01*
X619201D01*
X618535D01*
X617868Y76334D01*
Y75667D01*
X618535Y75001D01*
X619868D01*
X620534Y75667D01*
X626266Y157033D02*
X626932Y157699D01*
X628265D01*
X628932Y157033D01*
Y154367D01*
X628265Y153701D01*
X626932D01*
X626266Y154367D01*
X622267Y157699D02*
X623600Y157033D01*
X624933Y155700D01*
Y154367D01*
X624266Y153701D01*
X622934D01*
X622267Y154367D01*
Y155034D01*
X622934Y155700D01*
X624933D01*
X618935Y153701D02*
Y157699D01*
X620934Y155700D01*
X618268D01*
X695966Y156133D02*
X696632Y156799D01*
X697965D01*
X698632Y156133D01*
Y153467D01*
X697965Y152801D01*
X696632D01*
X695966Y153467D01*
X691967Y156799D02*
X693300Y156133D01*
X694633Y154800D01*
Y153467D01*
X693966Y152801D01*
X692634D01*
X691967Y153467D01*
Y154133D01*
X692634Y154800D01*
X694633D01*
X690634Y156133D02*
X689968Y156799D01*
X688635D01*
X687968Y156133D01*
Y155466D01*
X688635Y154800D01*
X687968Y154133D01*
Y153467D01*
X688635Y152801D01*
X689968D01*
X690634Y153467D01*
Y154133D01*
X689968Y154800D01*
X690634Y155466D01*
Y156133D01*
X689968Y154800D02*
X688635D01*
X694866Y78333D02*
X695532Y78999D01*
X696865D01*
X697532Y78333D01*
Y75667D01*
X696865Y75001D01*
X695532D01*
X694866Y75667D01*
X690867Y78999D02*
X692200Y78333D01*
X693533Y77000D01*
Y75667D01*
X692866Y75001D01*
X691534D01*
X690867Y75667D01*
Y76334D01*
X691534Y77000D01*
X693533D01*
X689534Y75667D02*
X688868Y75001D01*
X687535D01*
X686868Y75667D01*
Y78333D01*
X687535Y78999D01*
X688868D01*
X689534Y78333D01*
Y77666D01*
X688868Y77000D01*
X686868D01*
X685432Y314701D02*
Y318699D01*
X683432D01*
X682766Y318033D01*
Y316700D01*
X683432Y316034D01*
X685432D01*
X684099D02*
X682766Y314701D01*
X678767D02*
X681433D01*
X678767Y317366D01*
Y318033D01*
X679434Y318699D01*
X680766D01*
X681433Y318033D01*
X677434D02*
X676768Y318699D01*
X675435D01*
X674768Y318033D01*
Y317366D01*
X675435Y316700D01*
X676101D01*
X675435D01*
X674768Y316034D01*
Y315367D01*
X675435Y314701D01*
X676768D01*
X677434Y315367D01*
X685432Y291401D02*
Y295399D01*
X683432D01*
X682766Y294733D01*
Y293400D01*
X683432Y292734D01*
X685432D01*
X684099D02*
X682766Y291401D01*
X678767D02*
X681433D01*
X678767Y294066D01*
Y294733D01*
X679434Y295399D01*
X680766D01*
X681433Y294733D01*
X675435Y291401D02*
Y295399D01*
X677434Y293400D01*
X674768D01*
X682232Y51001D02*
Y54999D01*
X680232D01*
X679566Y54333D01*
Y53000D01*
X680232Y52334D01*
X682232D01*
X680899D02*
X679566Y51001D01*
X678233Y54333D02*
X677566Y54999D01*
X676234D01*
X675567Y54333D01*
Y53666D01*
X676234Y53000D01*
X676900D01*
X676234D01*
X675567Y52334D01*
Y51667D01*
X676234Y51001D01*
X677566D01*
X678233Y51667D01*
X671568Y51001D02*
X674234D01*
X671568Y53666D01*
Y54333D01*
X672235Y54999D01*
X673568D01*
X674234Y54333D01*
X712532Y49301D02*
Y53299D01*
X710532D01*
X709866Y52633D01*
Y51300D01*
X710532Y50634D01*
X712532D01*
X711199D02*
X709866Y49301D01*
X708533Y52633D02*
X707866Y53299D01*
X706534D01*
X705867Y52633D01*
Y51966D01*
X706534Y51300D01*
X707200D01*
X706534D01*
X705867Y50634D01*
Y49967D01*
X706534Y49301D01*
X707866D01*
X708533Y49967D01*
X704534Y52633D02*
X703868Y53299D01*
X702535D01*
X701868Y52633D01*
Y51966D01*
X702535Y51300D01*
X703201D01*
X702535D01*
X701868Y50634D01*
Y49967D01*
X702535Y49301D01*
X703868D01*
X704534Y49967D01*
X317399Y407632D02*
X313401D01*
Y405632D01*
X314067Y404966D01*
X315400D01*
X316066Y405632D01*
Y407632D01*
Y406299D02*
X317399Y404966D01*
Y401634D02*
X313401D01*
X315400Y403633D01*
Y400967D01*
X313401Y399634D02*
Y396968D01*
X314067D01*
X316733Y399634D01*
X317399D01*
D18*
X359415Y422850D02*
X356083Y426182D01*
Y422850D02*
X359415Y426182D01*
X357749Y422850D02*
Y426182D01*
X356083Y424516D02*
X359415D01*
M02*
