G04*
G04 #@! TF.GenerationSoftware,Altium Limited,Altium Designer,25.1.2 (22)*
G04*
G04 Layer_Color=65535*
%FSLAX25Y25*%
%MOIN*%
G70*
G04*
G04 #@! TF.SameCoordinates,DBC5BB4E-B95F-4F78-ABC1-F02F3F3965D1*
G04*
G04*
G04 #@! TF.FilePolarity,Positive*
G04*
G01*
G75*
%ADD10C,0.00600*%
%ADD11C,0.02000*%
%ADD12C,0.00394*%
%ADD13C,0.00500*%
%ADD14C,0.00787*%
%ADD15C,0.00984*%
%ADD16C,0.01000*%
%ADD17C,0.00800*%
%ADD18C,0.00300*%
%ADD19C,0.00400*%
G36*
X273350Y437219D02*
Y438719D01*
X272350D01*
Y437219D01*
X273350D01*
D02*
G37*
G36*
X290687Y423350D02*
Y422350D01*
X289187D01*
Y423350D01*
X290687D01*
D02*
G37*
G36*
X373100Y368913D02*
X372100D01*
Y367413D01*
X373100D01*
Y368913D01*
D02*
G37*
G36*
X387888Y355700D02*
X386388D01*
Y354700D01*
X387888D01*
Y355700D01*
D02*
G37*
G36*
X405900Y364189D02*
X406900D01*
Y362689D01*
X405900D01*
Y364189D01*
D02*
G37*
G36*
Y379937D02*
X406900D01*
Y378437D01*
X405900D01*
Y379937D01*
D02*
G37*
G36*
X389463Y388500D02*
X387963D01*
Y389500D01*
X389463D01*
Y388500D01*
D02*
G37*
G36*
X801352Y129800D02*
Y128800D01*
X799852D01*
Y129800D01*
X801352D01*
D02*
G37*
G36*
X794352Y251800D02*
Y250800D01*
X792852D01*
Y251800D01*
X794352D01*
D02*
G37*
D10*
X558000Y453500D02*
G03*
X558000Y453500I-300J0D01*
G01*
X758350Y82650D02*
G03*
X758350Y82650I-500J0D01*
G01*
X327593Y432404D02*
G03*
X327593Y432404I-500J0D01*
G01*
X374300Y225550D02*
G03*
X374300Y225550I-300J0D01*
G01*
X811800Y62200D02*
G03*
X814200Y62200I1200J0D01*
G01*
X108979Y435000D02*
G03*
X108979Y435000I-13900J0D01*
G01*
X236261Y432835D02*
G03*
X236261Y432835I-500J0D01*
G01*
X472500Y382750D02*
G03*
X472500Y382750I-300J0D01*
G01*
X462000D02*
G03*
X462000Y382750I-300J0D01*
G01*
X455900Y472850D02*
G03*
X455900Y472850I-300J0D01*
G01*
X422550Y444900D02*
G03*
X422550Y444900I-300J0D01*
G01*
X584900Y436921D02*
G03*
X584900Y436921I-13900J0D01*
G01*
X444050Y406850D02*
G03*
X444050Y406850I-500J0D01*
G01*
X417950Y453850D02*
G03*
X417950Y453850I-500J0D01*
G01*
X411800Y196200D02*
G03*
X414200Y196200I1200J0D01*
G01*
X380169Y325889D02*
G03*
X380169Y325889I-500J0D01*
G01*
X108979Y465000D02*
G03*
X108979Y465000I-13900J0D01*
G01*
X467750Y165926D02*
G03*
X467750Y165926I-300J0D01*
G01*
X467750Y208000D02*
G03*
X467750Y208000I-300J0D01*
G01*
X453150Y205150D02*
G03*
X453150Y205150I-500J0D01*
G01*
X830750Y255000D02*
G03*
X830750Y255000I-300J0D01*
G01*
X785900Y255079D02*
G03*
X785900Y255079I-13900J0D01*
G01*
X755900Y254921D02*
G03*
X755900Y254921I-13900J0D01*
G01*
X725900Y255079D02*
G03*
X725900Y255079I-13900J0D01*
G01*
X797750Y73000D02*
G03*
X797750Y73000I-300J0D01*
G01*
X761850D02*
G03*
X761850Y73000I-300J0D01*
G01*
X825300Y146450D02*
G03*
X825300Y146450I-300J0D01*
G01*
X789979Y134000D02*
G03*
X789979Y134000I-13900J0D01*
G01*
X789821Y164000D02*
G03*
X789821Y164000I-13900J0D01*
G01*
Y194000D02*
G03*
X789821Y194000I-13900J0D01*
G01*
X689200Y274200D02*
G03*
X689200Y271800I0J-1200D01*
G01*
X300882Y439298D02*
G03*
X300882Y439298I-500J0D01*
G01*
X545305Y457550D02*
X546695D01*
X545305Y449450D02*
X546695D01*
X683000Y65000D02*
Y127000D01*
X621000D02*
X683000D01*
X621000Y65000D02*
Y127000D01*
Y65000D02*
X683000D01*
X762350Y89250D02*
X789650D01*
Y104750D01*
X762350D02*
X789650D01*
X762350Y89250D02*
Y104750D01*
X349000Y401600D02*
X350140D01*
X371000Y379600D02*
Y401600D01*
X369860D02*
X371000D01*
X349000Y379600D02*
Y401600D01*
Y379600D02*
X350140D01*
X369860D02*
X371000D01*
X555150Y465150D02*
Y481850D01*
X575850Y465150D02*
Y481850D01*
X247192Y452820D02*
X248397D01*
X247192Y446320D02*
X248397D01*
X375200Y386400D02*
X377604D01*
X375200Y357800D02*
X377604D01*
X403800D02*
Y360204D01*
X401396Y386400D02*
X403800D01*
X375200Y383996D02*
Y386400D01*
Y357800D02*
Y360204D01*
X401396Y357800D02*
X403800D01*
Y383996D02*
Y386400D01*
X293716Y425450D02*
X296550D01*
X275450D02*
Y428285D01*
Y446550D02*
X278285D01*
X293716D02*
X296550D01*
Y425450D02*
Y428285D01*
X275450Y425450D02*
X278285D01*
X275450Y443715D02*
Y446550D01*
X296550Y443715D02*
Y446550D01*
X796450Y138758D02*
Y153242D01*
X817550Y138758D02*
Y153242D01*
X591350Y436231D02*
X602861D01*
X627750D02*
Y493930D01*
X591350D02*
X627750D01*
X591350Y459504D02*
Y493930D01*
X609050Y492931D02*
X610050D01*
Y493930D01*
X609050D02*
X610050D01*
X609050Y492931D02*
Y493930D01*
X616239Y436231D02*
X627750D01*
X591350D02*
Y443105D01*
X502000Y320000D02*
Y382000D01*
Y320000D02*
X564000D01*
Y382000D01*
X502000D02*
X564000D01*
X502000Y248100D02*
Y310100D01*
Y248100D02*
X564000D01*
Y310100D01*
X502000D02*
X564000D01*
X574300Y248100D02*
Y310100D01*
Y248100D02*
X636300D01*
Y310100D01*
X574300D02*
X636300D01*
X574300Y320000D02*
Y382000D01*
Y320000D02*
X636300D01*
Y382000D01*
X574300D02*
X636300D01*
X376950Y234297D02*
Y235703D01*
X371050Y234297D02*
Y235703D01*
X807300Y49800D02*
X818700D01*
X807300Y62200D02*
X818700D01*
X311950Y209700D02*
X320050D01*
X311950Y216000D02*
X320050D01*
X384650Y325200D02*
X388453D01*
X389805Y310000D02*
X400195D01*
X405350Y318343D02*
Y325200D01*
X401547D02*
X405350D01*
X384650Y318343D02*
Y325200D01*
X146688Y422643D02*
Y423643D01*
X145688Y422643D02*
X146688D01*
X145688D02*
Y423643D01*
X146688D01*
X175238Y422643D02*
Y425389D01*
X117138Y422643D02*
X175238D01*
X117138Y457590D02*
Y493743D01*
X175238D01*
X117138Y422643D02*
Y425389D01*
X175238Y435228D02*
Y447751D01*
X117138Y435228D02*
Y447751D01*
X175238Y457590D02*
Y493743D01*
X109479Y435000D02*
X114479D01*
X111979Y432500D02*
Y437500D01*
X307961Y159279D02*
Y160721D01*
X302039Y159279D02*
Y160721D01*
X475150Y391497D02*
Y392903D01*
X469250Y391497D02*
Y392903D01*
X458750Y391497D02*
Y392903D01*
X464650Y391497D02*
Y392903D01*
X458550Y462697D02*
Y464103D01*
X452650Y462697D02*
Y464103D01*
X430997Y441950D02*
X432403D01*
X430997Y447850D02*
X432403D01*
X327961Y159279D02*
Y160721D01*
X322039Y159279D02*
Y160721D01*
X312039Y159279D02*
Y160721D01*
X317961Y159279D02*
Y160721D01*
X568500Y453821D02*
X573500D01*
X571000Y451321D02*
Y456321D01*
X344429Y380870D02*
Y382075D01*
X337929Y380870D02*
Y382075D01*
X395397Y345850D02*
X396603D01*
X395397Y352350D02*
X396603D01*
X448050Y413450D02*
X475350D01*
Y428950D01*
X448050D02*
X475350D01*
X448050Y413450D02*
Y428950D01*
X421950Y460450D02*
Y475950D01*
X449250D01*
Y460450D02*
Y475950D01*
X421950Y460450D02*
X449250D01*
X407300Y196200D02*
X418700D01*
X407300Y183800D02*
X418700D01*
X111979Y462500D02*
Y467500D01*
X109479Y465000D02*
X114479D01*
X457297Y168876D02*
X458703D01*
X457297Y162976D02*
X458703D01*
X457297Y205050D02*
X458703D01*
X457297Y210950D02*
X458703D01*
X546750Y468897D02*
Y470103D01*
X553250Y468897D02*
Y470103D01*
X545397Y487250D02*
X546603D01*
X545397Y480750D02*
X546603D01*
X459250Y173350D02*
Y200650D01*
Y173350D02*
X474750D01*
Y200650D01*
X459250D02*
X474750D01*
X820297Y252050D02*
X821703D01*
X820297Y257950D02*
X821703D01*
X772000Y269479D02*
Y274479D01*
X769500Y271979D02*
X774500D01*
X739500Y271821D02*
X744500D01*
X742000Y269321D02*
Y274321D01*
X709500Y271979D02*
X714500D01*
X712000Y269479D02*
Y274479D01*
X787297Y70050D02*
X788703D01*
X787297Y75950D02*
X788703D01*
X770297Y70050D02*
X771703D01*
X770297Y75950D02*
X771703D01*
X827950Y136297D02*
Y137703D01*
X822050Y136297D02*
Y137703D01*
X792979Y131500D02*
Y136500D01*
X790479Y134000D02*
X795479D01*
X792821Y161500D02*
Y166500D01*
X790321Y164000D02*
X795321D01*
X790321Y194000D02*
X795321D01*
X792821Y191500D02*
Y196500D01*
X676800Y267300D02*
Y278700D01*
X689200Y267300D02*
Y278700D01*
X789450Y260758D02*
Y275242D01*
X810550Y260758D02*
Y275242D01*
X753000Y65000D02*
Y127000D01*
X691000D02*
X753000D01*
X691000Y65000D02*
Y127000D01*
Y65000D02*
X753000D01*
Y135000D02*
Y197000D01*
X691000D02*
X753000D01*
X691000Y135000D02*
Y197000D01*
Y135000D02*
X753000D01*
X613000D02*
Y197000D01*
X551000D02*
X613000D01*
X551000Y135000D02*
Y197000D01*
Y135000D02*
X613000D01*
X551000Y65000D02*
X613000D01*
X551000D02*
Y127000D01*
X613000D01*
Y65000D02*
Y127000D01*
X683000Y135000D02*
Y197000D01*
X621000D02*
X683000D01*
X621000Y135000D02*
Y197000D01*
Y135000D02*
X683000D01*
X377250Y255397D02*
Y256603D01*
X370750Y255397D02*
Y256603D01*
X356750Y234397D02*
Y235603D01*
X363250Y234397D02*
Y235603D01*
X263184Y427902D02*
Y429107D01*
X256684Y427902D02*
Y429107D01*
D11*
X643500Y58000D02*
G03*
X643500Y58000I-1500J0D01*
G01*
X544500Y389000D02*
G03*
X544500Y389000I-1500J0D01*
G01*
Y317100D02*
G03*
X544500Y317100I-1500J0D01*
G01*
X616800D02*
G03*
X616800Y317100I-1500J0D01*
G01*
Y389000D02*
G03*
X616800Y389000I-1500J0D01*
G01*
X409350Y323224D02*
G03*
X409350Y323224I-1500J0D01*
G01*
X713500Y58000D02*
G03*
X713500Y58000I-1500J0D01*
G01*
Y128000D02*
G03*
X713500Y128000I-1500J0D01*
G01*
X573500D02*
G03*
X573500Y128000I-1500J0D01*
G01*
Y58000D02*
G03*
X573500Y58000I-1500J0D01*
G01*
X643500Y128000D02*
G03*
X643500Y128000I-1500J0D01*
G01*
D12*
X771014Y290444D02*
G03*
X771014Y290838I0J197D01*
G01*
D02*
G03*
X771014Y290444I0J-197D01*
G01*
X719014Y290838D02*
G03*
X719014Y290444I0J-197D01*
G01*
D02*
G03*
X719014Y290838I0J197D01*
G01*
D13*
X296142Y250945D02*
G03*
X307953Y262756I0J11811D01*
G01*
X52047D02*
G03*
X63858Y250945I11811J0D01*
G01*
Y369055D02*
G03*
X52047Y357244I0J-11811D01*
G01*
X307953D02*
G03*
X296142Y369055I-11811J0D01*
G01*
X80197Y369055D02*
X113071D01*
X129803D02*
X162677D01*
X307953Y262756D02*
Y357244D01*
X63858Y250945D02*
X296142D01*
X52047Y262756D02*
Y357244D01*
X63858Y369055D02*
X296142D01*
X358524Y494224D02*
X393721D01*
Y488791D02*
Y494224D01*
Y472925D02*
Y479185D01*
X358524Y488791D02*
Y494224D01*
Y472925D02*
Y479185D01*
D14*
X315394Y269724D02*
G03*
X315394Y269724I-394J0D01*
G01*
X527587Y396866D02*
X539398D01*
X527492Y437075D02*
X539303D01*
X760188Y293791D02*
Y311901D01*
Y293791D02*
X766487D01*
X775542D02*
X781448D01*
X788140D02*
X795621D01*
Y307176D01*
Y318987D02*
Y445759D01*
Y457570D02*
Y470956D01*
X774361D02*
X795621D01*
X760188D02*
X767668D01*
X760188Y452846D02*
Y470956D01*
Y323712D02*
Y441035D01*
X349242Y479314D02*
Y481086D01*
X354557Y479314D02*
Y481086D01*
X53744Y41008D02*
X94728D01*
X53744Y141992D02*
X94728D01*
X53744Y136500D02*
Y141992D01*
X353118Y246811D02*
Y273189D01*
X342882Y246811D02*
Y273189D01*
Y246811D02*
X353118D01*
X342882Y273189D02*
X353118D01*
X445272Y136500D02*
Y141992D01*
X486256D01*
X445272Y41008D02*
X486256D01*
X401772D02*
X442756D01*
X401772Y141992D02*
X442756D01*
X401772Y136500D02*
Y141992D01*
X358272Y136500D02*
Y141992D01*
X399256D01*
X358272Y41008D02*
X399256D01*
X314744Y136500D02*
Y141992D01*
X355728D01*
X314744Y41008D02*
X355728D01*
X271244Y136500D02*
Y141992D01*
X312228D01*
X271244Y41008D02*
X312228D01*
X227744Y136500D02*
Y141992D01*
X268728D01*
X227744Y41008D02*
X268728D01*
X184272D02*
X225256D01*
X184272Y141992D02*
X225256D01*
X184272Y136500D02*
Y141992D01*
X140772Y41008D02*
X181756D01*
X140772Y141992D02*
X181756D01*
X140772Y136500D02*
Y141992D01*
X97272Y41008D02*
X138256D01*
X97272Y141992D02*
X138256D01*
X97272Y136500D02*
Y141992D01*
X708188Y323712D02*
Y441035D01*
Y452846D02*
Y470956D01*
X715668D01*
X722361D02*
X743621D01*
Y457570D02*
Y470956D01*
Y318987D02*
Y445759D01*
Y293791D02*
Y307176D01*
X736140Y293791D02*
X743621D01*
X723542D02*
X729448D01*
X708188D02*
X714487D01*
X708188D02*
Y311901D01*
X398342Y468514D02*
Y470286D01*
X403657Y468514D02*
Y470286D01*
D15*
X360106Y246811D02*
G03*
X360106Y246811I-492J0D01*
G01*
D16*
X545242Y396825D02*
X546742Y395325D01*
X545242D02*
X546742Y396825D01*
D17*
X186671Y402333D02*
Y399000D01*
X187337Y398334D01*
X188670D01*
X189337Y399000D01*
Y402333D01*
X193335Y401666D02*
X192669Y402333D01*
X191336D01*
X190670Y401666D01*
Y401000D01*
X191336Y400333D01*
X192669D01*
X193335Y399667D01*
Y399000D01*
X192669Y398334D01*
X191336D01*
X190670Y399000D01*
X194668Y402333D02*
Y398334D01*
X196668D01*
X197334Y399000D01*
Y399667D01*
X196668Y400333D01*
X194668D01*
X196668D01*
X197334Y401000D01*
Y401666D01*
X196668Y402333D01*
X194668D01*
X198667Y397667D02*
X201333D01*
X202666Y398334D02*
Y402333D01*
X204665D01*
X205332Y401666D01*
Y400333D01*
X204665Y399667D01*
X202666D01*
X206664Y398334D02*
Y401000D01*
X207997Y402333D01*
X209330Y401000D01*
Y398334D01*
Y400333D01*
X206664D01*
X210663Y402333D02*
Y398334D01*
X212663D01*
X213329Y399000D01*
Y401666D01*
X212663Y402333D01*
X210663D01*
X670569Y56299D02*
X673235D01*
X671902D01*
Y52301D01*
X674568D02*
Y56299D01*
X676567D01*
X677234Y55633D01*
Y54300D01*
X676567Y53634D01*
X674568D01*
X678567Y55633D02*
X679233Y56299D01*
X680566D01*
X681232Y55633D01*
Y54966D01*
X680566Y54300D01*
X679899D01*
X680566D01*
X681232Y53634D01*
Y52967D01*
X680566Y52301D01*
X679233D01*
X678567Y52967D01*
X682565Y55633D02*
X683232Y56299D01*
X684564D01*
X685231Y55633D01*
Y54966D01*
X684564Y54300D01*
X683898D01*
X684564D01*
X685231Y53634D01*
Y52967D01*
X684564Y52301D01*
X683232D01*
X682565Y52967D01*
X558734Y455433D02*
X558068Y456099D01*
X556735D01*
X556068Y455433D01*
Y452767D01*
X556735Y452101D01*
X558068D01*
X558734Y452767D01*
X562066Y452101D02*
Y456099D01*
X560067Y454100D01*
X562733D01*
X566065Y452101D02*
Y456099D01*
X564066Y454100D01*
X566732D01*
X621068Y132899D02*
Y129567D01*
X621735Y128901D01*
X623068D01*
X623734Y129567D01*
Y132899D01*
X627733Y128901D02*
X625067D01*
X627733Y131567D01*
Y132233D01*
X627066Y132899D01*
X625734D01*
X625067Y132233D01*
X629066D02*
X629732Y132899D01*
X631065D01*
X631732Y132233D01*
Y131567D01*
X631065Y130900D01*
X630399D01*
X631065D01*
X631732Y130234D01*
Y129567D01*
X631065Y128901D01*
X629732D01*
X629066Y129567D01*
X328899Y181902D02*
X324901D01*
Y183901D01*
X325567Y184567D01*
X326900D01*
X327566Y183901D01*
Y181902D01*
Y183235D02*
X328899Y184567D01*
Y185900D02*
Y187233D01*
Y186567D01*
X324901D01*
X325567Y185900D01*
X324901Y191898D02*
Y189233D01*
X326900D01*
X326234Y190566D01*
Y191232D01*
X326900Y191898D01*
X328233D01*
X328899Y191232D01*
Y189899D01*
X328233Y189233D01*
X757402Y111199D02*
Y107867D01*
X758068Y107201D01*
X759401D01*
X760067Y107867D01*
Y111199D01*
X761400Y107201D02*
X762733D01*
X762067D01*
Y111199D01*
X761400Y110533D01*
X767398Y111199D02*
X764733D01*
Y109200D01*
X766066Y109866D01*
X766732D01*
X767398Y109200D01*
Y107867D01*
X766732Y107201D01*
X765399D01*
X764733Y107867D01*
X228000Y215699D02*
Y212366D01*
X228666Y211700D01*
X229999D01*
X230666Y212366D01*
Y215699D01*
X231999Y211700D02*
X233332D01*
X232665D01*
Y215699D01*
X231999Y215032D01*
X237997Y211700D02*
X235331D01*
X237997Y214366D01*
Y215032D01*
X237330Y215699D01*
X235997D01*
X235331Y215032D01*
X356300Y417799D02*
Y414466D01*
X356966Y413800D01*
X358299D01*
X358966Y414466D01*
Y417799D01*
X362298Y413800D02*
Y417799D01*
X360299Y415799D01*
X362965D01*
X576802Y487699D02*
Y484367D01*
X577468Y483701D01*
X578801D01*
X579467Y484367D01*
Y487699D01*
X580800Y483701D02*
X582133D01*
X581467D01*
Y487699D01*
X580800Y487033D01*
X584133D02*
X584799Y487699D01*
X586132D01*
X586798Y487033D01*
Y484367D01*
X586132Y483701D01*
X584799D01*
X584133Y484367D01*
Y487033D01*
X396499Y403368D02*
X392501D01*
Y405367D01*
X393167Y406034D01*
X394500D01*
X395166Y405367D01*
Y403368D01*
Y404701D02*
X396499Y406034D01*
X392501Y410032D02*
Y407367D01*
X394500D01*
X393834Y408699D01*
Y409366D01*
X394500Y410032D01*
X395833D01*
X396499Y409366D01*
Y408033D01*
X395833Y407367D01*
X229635Y447801D02*
Y451799D01*
X231634D01*
X232301Y451133D01*
Y449800D01*
X231634Y449134D01*
X229635D01*
X230968D02*
X232301Y447801D01*
X236299Y451799D02*
X233634D01*
Y449800D01*
X234966Y450466D01*
X235633D01*
X236299Y449800D01*
Y448467D01*
X235633Y447801D01*
X234300D01*
X233634Y448467D01*
X237632Y447801D02*
X238965D01*
X238299D01*
Y451799D01*
X237632Y451133D01*
X372768Y392399D02*
Y389067D01*
X373434Y388401D01*
X374767D01*
X375434Y389067D01*
Y392399D01*
X379432Y388401D02*
X376766D01*
X379432Y391066D01*
Y391733D01*
X378766Y392399D01*
X377433D01*
X376766Y391733D01*
X266068Y452399D02*
Y449067D01*
X266735Y448401D01*
X268068D01*
X268734Y449067D01*
Y452399D01*
X272733Y448401D02*
X270067D01*
X272733Y451066D01*
Y451733D01*
X272066Y452399D01*
X270734D01*
X270067Y451733D01*
X274066Y449067D02*
X274732Y448401D01*
X276065D01*
X276732Y449067D01*
Y451733D01*
X276065Y452399D01*
X274732D01*
X274066Y451733D01*
Y451066D01*
X274732Y450400D01*
X276732D01*
X518768Y441899D02*
Y438567D01*
X519434Y437901D01*
X520767D01*
X521434Y438567D01*
Y441899D01*
X522766D02*
X525432D01*
Y441233D01*
X522766Y438567D01*
Y437901D01*
X801802Y167599D02*
Y164267D01*
X802468Y163601D01*
X803801D01*
X804467Y164267D01*
Y167599D01*
X805800Y163601D02*
X807133D01*
X806467D01*
Y167599D01*
X805800Y166933D01*
X809133Y164267D02*
X809799Y163601D01*
X811132D01*
X811798Y164267D01*
Y166933D01*
X811132Y167599D01*
X809799D01*
X809133Y166933D01*
Y166267D01*
X809799Y165600D01*
X811798D01*
X324600Y352699D02*
Y349366D01*
X325266Y348700D01*
X326599D01*
X327266Y349366D01*
Y352699D01*
X328599Y352032D02*
X329265Y352699D01*
X330598D01*
X331264Y352032D01*
Y351366D01*
X330598Y350699D01*
X329932D01*
X330598D01*
X331264Y350033D01*
Y349366D01*
X330598Y348700D01*
X329265D01*
X328599Y349366D01*
X752800Y482499D02*
Y478500D01*
X754799D01*
X755466Y479166D01*
Y479833D01*
X754799Y480499D01*
X752800D01*
X754799D01*
X755466Y481166D01*
Y481832D01*
X754799Y482499D01*
X752800D01*
X756799Y478500D02*
X758132D01*
X757465D01*
Y482499D01*
X756799Y481832D01*
X762797Y478500D02*
X760131D01*
X762797Y481166D01*
Y481832D01*
X762130Y482499D01*
X760797D01*
X760131Y481832D01*
X632834Y486899D02*
X631501D01*
X632167D01*
Y483567D01*
X631501Y482901D01*
X630834D01*
X630168Y483567D01*
X634166Y486233D02*
X634833Y486899D01*
X636166D01*
X636832Y486233D01*
Y485566D01*
X636166Y484900D01*
X635499D01*
X636166D01*
X636832Y484234D01*
Y483567D01*
X636166Y482901D01*
X634833D01*
X634166Y483567D01*
X47800Y378899D02*
Y375566D01*
X48466Y374900D01*
X49799D01*
X50466Y375566D01*
Y378899D01*
X54465Y374900D02*
X51799D01*
X54465Y377566D01*
Y378232D01*
X53798Y378899D01*
X52465D01*
X51799Y378232D01*
X58463Y378899D02*
X55797D01*
Y376899D01*
X57130Y377566D01*
X57797D01*
X58463Y376899D01*
Y375566D01*
X57797Y374900D01*
X56464D01*
X55797Y375566D01*
X329469Y434699D02*
Y430701D01*
X332135D01*
X336134Y434699D02*
X333468D01*
Y430701D01*
X336134D01*
X333468Y432700D02*
X334801D01*
X337467Y434699D02*
Y430701D01*
X339466D01*
X340132Y431367D01*
Y434033D01*
X339466Y434699D01*
X337467D01*
X344131Y430701D02*
X341465D01*
X344131Y433366D01*
Y434033D01*
X343464Y434699D01*
X342132D01*
X341465Y434033D01*
X505201Y389033D02*
X504534Y389699D01*
X503201D01*
X502535Y389033D01*
Y388366D01*
X503201Y387700D01*
X504534D01*
X505201Y387034D01*
Y386367D01*
X504534Y385701D01*
X503201D01*
X502535Y386367D01*
X506534Y389699D02*
Y385701D01*
X507866Y387034D01*
X509199Y385701D01*
Y389699D01*
X510532Y385701D02*
X511865D01*
X511199D01*
Y389699D01*
X510532Y389033D01*
X366367Y231534D02*
X365701Y230868D01*
Y229535D01*
X366367Y228868D01*
X369033D01*
X369699Y229535D01*
Y230868D01*
X369033Y231534D01*
X365701Y232867D02*
Y235533D01*
X366367D01*
X369033Y232867D01*
X369699D01*
Y239532D02*
Y236866D01*
X367034Y239532D01*
X366367D01*
X365701Y238865D01*
Y237532D01*
X366367Y236866D01*
X335000Y478200D02*
Y482199D01*
X336999D01*
X337666Y481532D01*
Y480199D01*
X336999Y479533D01*
X335000D01*
X336333D02*
X337666Y478200D01*
X340998D02*
Y482199D01*
X338999Y480199D01*
X341665D01*
X342997Y481532D02*
X343664Y482199D01*
X344997D01*
X345663Y481532D01*
Y480866D01*
X344997Y480199D01*
X344330D01*
X344997D01*
X345663Y479533D01*
Y478866D01*
X344997Y478200D01*
X343664D01*
X342997Y478866D01*
X53500Y149899D02*
Y145900D01*
X55499D01*
X56166Y146566D01*
Y147233D01*
X55499Y147899D01*
X53500D01*
X55499D01*
X56166Y148566D01*
Y149232D01*
X55499Y149899D01*
X53500D01*
X57499Y145900D02*
X58832D01*
X58165D01*
Y149899D01*
X57499Y149232D01*
X60831D02*
X61497Y149899D01*
X62830D01*
X63497Y149232D01*
Y146566D01*
X62830Y145900D01*
X61497D01*
X60831Y146566D01*
Y149232D01*
X328968Y274099D02*
Y270767D01*
X329635Y270101D01*
X330968D01*
X331634Y270767D01*
Y274099D01*
X335633Y270101D02*
X332967D01*
X335633Y272766D01*
Y273433D01*
X334966Y274099D01*
X333634D01*
X332967Y273433D01*
X338965Y270101D02*
Y274099D01*
X336966Y272100D01*
X339632D01*
X807902Y47299D02*
Y43967D01*
X808568Y43301D01*
X809901D01*
X810567Y43967D01*
Y47299D01*
X811900Y43301D02*
X813233D01*
X812567D01*
Y47299D01*
X811900Y46633D01*
X817898Y47299D02*
X816566Y46633D01*
X815233Y45300D01*
Y43967D01*
X815899Y43301D01*
X817232D01*
X817898Y43967D01*
Y44634D01*
X817232Y45300D01*
X815233D01*
X331101Y214133D02*
X330434Y214799D01*
X329101D01*
X328435Y214133D01*
Y211467D01*
X329101Y210801D01*
X330434D01*
X331101Y211467D01*
X332434Y210801D02*
Y214799D01*
X334433D01*
X335099Y214133D01*
Y212800D01*
X334433Y212134D01*
X332434D01*
X333766D02*
X335099Y210801D01*
X336432D02*
X337765D01*
X337099D01*
Y214799D01*
X336432Y214133D01*
X394934Y307899D02*
X393601D01*
X394267D01*
Y304567D01*
X393601Y303901D01*
X392934D01*
X392268Y304567D01*
X396267Y307233D02*
X396933Y307899D01*
X398266D01*
X398932Y307233D01*
Y306566D01*
X398266Y305900D01*
X398932Y305234D01*
Y304567D01*
X398266Y303901D01*
X396933D01*
X396267Y304567D01*
Y305234D01*
X396933Y305900D01*
X396267Y306566D01*
Y307233D01*
X396933Y305900D02*
X398266D01*
X182433Y481699D02*
X181101D01*
X181767D01*
Y478367D01*
X181101Y477701D01*
X180434D01*
X179768Y478367D01*
X186432Y477701D02*
X183766D01*
X186432Y480366D01*
Y481033D01*
X185766Y481699D01*
X184433D01*
X183766Y481033D01*
X333367Y403233D02*
X332701Y403899D01*
X331368D01*
X330702Y403233D01*
Y400567D01*
X331368Y399901D01*
X332701D01*
X333367Y400567D01*
X334700Y399901D02*
X336033D01*
X335367D01*
Y403899D01*
X334700Y403233D01*
X340698Y403899D02*
X338033D01*
Y401900D01*
X339366Y402566D01*
X340032D01*
X340698Y401900D01*
Y400567D01*
X340032Y399901D01*
X338699D01*
X338033Y400567D01*
X404767Y406134D02*
X404101Y405467D01*
Y404134D01*
X404767Y403468D01*
X407433D01*
X408099Y404134D01*
Y405467D01*
X407433Y406134D01*
X404101Y410132D02*
X404767Y408799D01*
X406100Y407467D01*
X407433D01*
X408099Y408133D01*
Y409466D01*
X407433Y410132D01*
X406766D01*
X406100Y409466D01*
Y407467D01*
X69866Y436332D02*
X69199Y436999D01*
X67866D01*
X67200Y436332D01*
Y433666D01*
X67866Y433000D01*
X69199D01*
X69866Y433666D01*
X71199Y436999D02*
X73865D01*
Y436332D01*
X71199Y433666D01*
Y433000D01*
X75197Y436999D02*
X77863D01*
Y436332D01*
X75197Y433666D01*
Y433000D01*
X67366Y246132D02*
X66699Y246799D01*
X65366D01*
X64700Y246132D01*
Y243466D01*
X65366Y242800D01*
X66699D01*
X67366Y243466D01*
X68699Y246799D02*
X71364D01*
Y246132D01*
X68699Y243466D01*
Y242800D01*
X75363Y246799D02*
X72697D01*
Y244799D01*
X74030Y245466D01*
X74697D01*
X75363Y244799D01*
Y243466D01*
X74697Y242800D01*
X73364D01*
X72697Y243466D01*
X303667Y169934D02*
X303001Y169268D01*
Y167935D01*
X303667Y167268D01*
X306333D01*
X306999Y167935D01*
Y169268D01*
X306333Y169934D01*
X306999Y173933D02*
Y171267D01*
X304334Y173933D01*
X303667D01*
X303001Y173266D01*
Y171933D01*
X303667Y171267D01*
X306333Y175266D02*
X306999Y175932D01*
Y177265D01*
X306333Y177932D01*
X303667D01*
X303001Y177265D01*
Y175932D01*
X303667Y175266D01*
X304334D01*
X305000Y175932D01*
Y177932D01*
X231434Y416733D02*
X230768Y417399D01*
X229435D01*
X228768Y416733D01*
Y414067D01*
X229435Y413401D01*
X230768D01*
X231434Y414067D01*
X232767Y417399D02*
X235433D01*
Y416733D01*
X232767Y414067D01*
Y413401D01*
X239432Y417399D02*
X238099Y416733D01*
X236766Y415400D01*
Y414067D01*
X237432Y413401D01*
X238765D01*
X239432Y414067D01*
Y414734D01*
X238765Y415400D01*
X236766D01*
X400700Y488499D02*
X399367D01*
X400034D01*
Y485167D01*
X399367Y484501D01*
X398701D01*
X398034Y485167D01*
X402033Y484501D02*
X403366D01*
X402699D01*
Y488499D01*
X402033Y487833D01*
X231468Y431099D02*
X234134Y427101D01*
Y431099D02*
X231468Y427101D01*
X238132D02*
X235467D01*
X238132Y429766D01*
Y430433D01*
X237466Y431099D01*
X236133D01*
X235467Y430433D01*
X357867Y310499D02*
X356535D01*
X357201D01*
Y307167D01*
X356535Y306501D01*
X355868D01*
X355202Y307167D01*
X359200Y306501D02*
X360533D01*
X359867D01*
Y310499D01*
X359200Y309833D01*
X362533D02*
X363199Y310499D01*
X364532D01*
X365198Y309833D01*
Y309166D01*
X364532Y308500D01*
X363865D01*
X364532D01*
X365198Y307834D01*
Y307167D01*
X364532Y306501D01*
X363199D01*
X362533Y307167D01*
X643766Y341499D02*
X642433D01*
X643099D01*
Y338166D01*
X642433Y337500D01*
X641766D01*
X641100Y338166D01*
X647764Y341499D02*
X646432Y340832D01*
X645099Y339499D01*
Y338166D01*
X645765Y337500D01*
X647098D01*
X647764Y338166D01*
Y338833D01*
X647098Y339499D01*
X645099D01*
X594634Y410399D02*
X593301D01*
X593967D01*
Y407067D01*
X593301Y406401D01*
X592634D01*
X591968Y407067D01*
X597966Y406401D02*
Y410399D01*
X595966Y408400D01*
X598632D01*
X43700Y246499D02*
Y243166D01*
X44366Y242500D01*
X45699D01*
X46366Y243166D01*
Y246499D01*
X50365Y242500D02*
X47699D01*
X50365Y245166D01*
Y245832D01*
X49698Y246499D01*
X48365D01*
X47699Y245832D01*
X51697D02*
X52364Y246499D01*
X53697D01*
X54363Y245832D01*
Y245166D01*
X53697Y244499D01*
X54363Y243833D01*
Y243166D01*
X53697Y242500D01*
X52364D01*
X51697Y243166D01*
Y243833D01*
X52364Y244499D01*
X51697Y245166D01*
Y245832D01*
X52364Y244499D02*
X53697D01*
X445000Y149899D02*
Y145900D01*
X446999D01*
X447666Y146566D01*
Y147233D01*
X446999Y147899D01*
X445000D01*
X446999D01*
X447666Y148566D01*
Y149232D01*
X446999Y149899D01*
X445000D01*
X448999Y145900D02*
X450332D01*
X449665D01*
Y149899D01*
X448999Y149232D01*
X401500Y149899D02*
Y145900D01*
X403499D01*
X404166Y146566D01*
Y147233D01*
X403499Y147899D01*
X401500D01*
X403499D01*
X404166Y148566D01*
Y149232D01*
X403499Y149899D01*
X401500D01*
X408165Y145900D02*
X405499D01*
X408165Y148566D01*
Y149232D01*
X407498Y149899D01*
X406165D01*
X405499Y149232D01*
X358000Y149899D02*
Y145900D01*
X359999D01*
X360666Y146566D01*
Y147233D01*
X359999Y147899D01*
X358000D01*
X359999D01*
X360666Y148566D01*
Y149232D01*
X359999Y149899D01*
X358000D01*
X361999Y149232D02*
X362665Y149899D01*
X363998D01*
X364665Y149232D01*
Y148566D01*
X363998Y147899D01*
X363332D01*
X363998D01*
X364665Y147233D01*
Y146566D01*
X363998Y145900D01*
X362665D01*
X361999Y146566D01*
X314500Y149899D02*
Y145900D01*
X316499D01*
X317166Y146566D01*
Y147233D01*
X316499Y147899D01*
X314500D01*
X316499D01*
X317166Y148566D01*
Y149232D01*
X316499Y149899D01*
X314500D01*
X320498Y145900D02*
Y149899D01*
X318499Y147899D01*
X321164D01*
X271000Y149899D02*
Y145900D01*
X272999D01*
X273666Y146566D01*
Y147233D01*
X272999Y147899D01*
X271000D01*
X272999D01*
X273666Y148566D01*
Y149232D01*
X272999Y149899D01*
X271000D01*
X277664D02*
X274999D01*
Y147899D01*
X276332Y148566D01*
X276998D01*
X277664Y147899D01*
Y146566D01*
X276998Y145900D01*
X275665D01*
X274999Y146566D01*
X227500Y149899D02*
Y145900D01*
X229499D01*
X230166Y146566D01*
Y147233D01*
X229499Y147899D01*
X227500D01*
X229499D01*
X230166Y148566D01*
Y149232D01*
X229499Y149899D01*
X227500D01*
X234165D02*
X232832Y149232D01*
X231499Y147899D01*
Y146566D01*
X232165Y145900D01*
X233498D01*
X234165Y146566D01*
Y147233D01*
X233498Y147899D01*
X231499D01*
X184000Y149899D02*
Y145900D01*
X185999D01*
X186666Y146566D01*
Y147233D01*
X185999Y147899D01*
X184000D01*
X185999D01*
X186666Y148566D01*
Y149232D01*
X185999Y149899D01*
X184000D01*
X187999D02*
X190665D01*
Y149232D01*
X187999Y146566D01*
Y145900D01*
X140500Y149899D02*
Y145900D01*
X142499D01*
X143166Y146566D01*
Y147233D01*
X142499Y147899D01*
X140500D01*
X142499D01*
X143166Y148566D01*
Y149232D01*
X142499Y149899D01*
X140500D01*
X144499Y149232D02*
X145165Y149899D01*
X146498D01*
X147164Y149232D01*
Y148566D01*
X146498Y147899D01*
X147164Y147233D01*
Y146566D01*
X146498Y145900D01*
X145165D01*
X144499Y146566D01*
Y147233D01*
X145165Y147899D01*
X144499Y148566D01*
Y149232D01*
X145165Y147899D02*
X146498D01*
X97000Y149899D02*
Y145900D01*
X98999D01*
X99666Y146566D01*
Y147233D01*
X98999Y147899D01*
X97000D01*
X98999D01*
X99666Y148566D01*
Y149232D01*
X98999Y149899D01*
X97000D01*
X100999Y146566D02*
X101665Y145900D01*
X102998D01*
X103665Y146566D01*
Y149232D01*
X102998Y149899D01*
X101665D01*
X100999Y149232D01*
Y148566D01*
X101665Y147899D01*
X103665D01*
X700800Y482499D02*
Y478500D01*
X702799D01*
X703466Y479166D01*
Y479833D01*
X702799Y480499D01*
X700800D01*
X702799D01*
X703466Y481166D01*
Y481832D01*
X702799Y482499D01*
X700800D01*
X704799Y478500D02*
X706132D01*
X705465D01*
Y482499D01*
X704799Y481832D01*
X708131Y478500D02*
X709464D01*
X708797D01*
Y482499D01*
X708131Y481832D01*
X481400Y393533D02*
X480734Y394199D01*
X479401D01*
X478734Y393533D01*
Y390867D01*
X479401Y390201D01*
X480734D01*
X481400Y390867D01*
X482733Y390201D02*
X484066D01*
X483399D01*
Y394199D01*
X482733Y393533D01*
X451334Y393833D02*
X450667Y394499D01*
X449334D01*
X448668Y393833D01*
Y391167D01*
X449334Y390501D01*
X450667D01*
X451334Y391167D01*
X455332Y390501D02*
X452667D01*
X455332Y393166D01*
Y393833D01*
X454666Y394499D01*
X453333D01*
X452667Y393833D01*
X398967Y406034D02*
X398301Y405367D01*
Y404034D01*
X398967Y403368D01*
X401633D01*
X402299Y404034D01*
Y405367D01*
X401633Y406034D01*
X398967Y407367D02*
X398301Y408033D01*
Y409366D01*
X398967Y410032D01*
X399634D01*
X400300Y409366D01*
Y408699D01*
Y409366D01*
X400966Y410032D01*
X401633D01*
X402299Y409366D01*
Y408033D01*
X401633Y407367D01*
X421634Y383133D02*
X420967Y383799D01*
X419634D01*
X418968Y383133D01*
Y380467D01*
X419634Y379801D01*
X420967D01*
X421634Y380467D01*
X422966Y383133D02*
X423633Y383799D01*
X424966D01*
X425632Y383133D01*
Y382466D01*
X424966Y381800D01*
X425632Y381134D01*
Y380467D01*
X424966Y379801D01*
X423633D01*
X422966Y380467D01*
Y381134D01*
X423633Y381800D01*
X422966Y382466D01*
Y383133D01*
X423633Y381800D02*
X424966D01*
X421734Y369933D02*
X421067Y370599D01*
X419734D01*
X419068Y369933D01*
Y367267D01*
X419734Y366601D01*
X421067D01*
X421734Y367267D01*
X423067D02*
X423733Y366601D01*
X425066D01*
X425732Y367267D01*
Y369933D01*
X425066Y370599D01*
X423733D01*
X423067Y369933D01*
Y369266D01*
X423733Y368600D01*
X425732D01*
X351776Y367461D02*
X351110Y368127D01*
X349777D01*
X349110Y367461D01*
Y364795D01*
X349777Y364128D01*
X351110D01*
X351776Y364795D01*
X353109Y364128D02*
X354442D01*
X353776D01*
Y368127D01*
X353109Y367461D01*
X356441Y364128D02*
X357774D01*
X357108D01*
Y368127D01*
X356441Y367461D01*
X364267Y350433D02*
X363601Y351099D01*
X362268D01*
X361602Y350433D01*
Y347767D01*
X362268Y347101D01*
X363601D01*
X364267Y347767D01*
X365600Y347101D02*
X366933D01*
X366267D01*
Y351099D01*
X365600Y350433D01*
X371598Y351099D02*
X370266Y350433D01*
X368933Y349100D01*
Y347767D01*
X369599Y347101D01*
X370932D01*
X371598Y347767D01*
Y348434D01*
X370932Y349100D01*
X368933D01*
X464567Y465133D02*
X463901Y465799D01*
X462568D01*
X461902Y465133D01*
Y462467D01*
X462568Y461801D01*
X463901D01*
X464567Y462467D01*
X465900Y461801D02*
X467233D01*
X466567D01*
Y465799D01*
X465900Y465133D01*
X469233D02*
X469899Y465799D01*
X471232D01*
X471898Y465133D01*
Y464466D01*
X471232Y463800D01*
X471898Y463134D01*
Y462467D01*
X471232Y461801D01*
X469899D01*
X469233Y462467D01*
Y463134D01*
X469899Y463800D01*
X469233Y464466D01*
Y465133D01*
X469899Y463800D02*
X471232D01*
X414267Y445933D02*
X413601Y446599D01*
X412268D01*
X411602Y445933D01*
Y443267D01*
X412268Y442601D01*
X413601D01*
X414267Y443267D01*
X415600Y442601D02*
X416933D01*
X416267D01*
Y446599D01*
X415600Y445933D01*
X418933Y443267D02*
X419599Y442601D01*
X420932D01*
X421598Y443267D01*
Y445933D01*
X420932Y446599D01*
X419599D01*
X418933Y445933D01*
Y445266D01*
X419599Y444600D01*
X421598D01*
X281568Y471466D02*
X280901Y470799D01*
Y469466D01*
X281568Y468800D01*
X284234D01*
X284900Y469466D01*
Y470799D01*
X284234Y471466D01*
X284900Y475464D02*
Y472799D01*
X282234Y475464D01*
X281568D01*
X280901Y474798D01*
Y473465D01*
X281568Y472799D01*
Y476797D02*
X280901Y477464D01*
Y478797D01*
X281568Y479463D01*
X284234D01*
X284900Y478797D01*
Y477464D01*
X284234Y476797D01*
X281568D01*
X258367Y457701D02*
X257701Y457034D01*
Y455701D01*
X258367Y455035D01*
X261033D01*
X261699Y455701D01*
Y457034D01*
X261033Y457701D01*
X261699Y461699D02*
Y459034D01*
X259034Y461699D01*
X258367D01*
X257701Y461033D01*
Y459700D01*
X258367Y459034D01*
X261699Y463032D02*
Y464365D01*
Y463699D01*
X257701D01*
X258367Y463032D01*
X272267Y398234D02*
X271601Y397568D01*
Y396235D01*
X272267Y395568D01*
X274933D01*
X275599Y396235D01*
Y397568D01*
X274933Y398234D01*
X275599Y402233D02*
Y399567D01*
X272934Y402233D01*
X272267D01*
X271601Y401566D01*
Y400234D01*
X272267Y399567D01*
X275599Y406232D02*
Y403566D01*
X272934Y406232D01*
X272267D01*
X271601Y405565D01*
Y404232D01*
X272267Y403566D01*
X299767Y397834D02*
X299101Y397168D01*
Y395835D01*
X299767Y395168D01*
X302433D01*
X303099Y395835D01*
Y397168D01*
X302433Y397834D01*
X303099Y401833D02*
Y399167D01*
X300434Y401833D01*
X299767D01*
X299101Y401166D01*
Y399834D01*
X299767Y399167D01*
Y403166D02*
X299101Y403832D01*
Y405165D01*
X299767Y405832D01*
X300434D01*
X301100Y405165D01*
Y404499D01*
Y405165D01*
X301766Y405832D01*
X302433D01*
X303099Y405165D01*
Y403832D01*
X302433Y403166D01*
X292567Y397634D02*
X291901Y396968D01*
Y395635D01*
X292567Y394968D01*
X295233D01*
X295899Y395635D01*
Y396968D01*
X295233Y397634D01*
X295899Y401633D02*
Y398967D01*
X293234Y401633D01*
X292567D01*
X291901Y400966D01*
Y399634D01*
X292567Y398967D01*
X295899Y404965D02*
X291901D01*
X293900Y402966D01*
Y405632D01*
X375734Y189733D02*
X375068Y190399D01*
X373735D01*
X373068Y189733D01*
Y187067D01*
X373735Y186401D01*
X375068D01*
X375734Y187067D01*
X379733Y186401D02*
X377067D01*
X379733Y189067D01*
Y189733D01*
X379066Y190399D01*
X377734D01*
X377067Y189733D01*
X383732Y190399D02*
X381066D01*
Y188400D01*
X382399Y189067D01*
X383065D01*
X383732Y188400D01*
Y187067D01*
X383065Y186401D01*
X381732D01*
X381066Y187067D01*
X430034Y201433D02*
X429368Y202099D01*
X428035D01*
X427368Y201433D01*
Y198767D01*
X428035Y198101D01*
X429368D01*
X430034Y198767D01*
X434033Y198101D02*
X431367D01*
X434033Y200766D01*
Y201433D01*
X433366Y202099D01*
X432034D01*
X431367Y201433D01*
X438032Y202099D02*
X436699Y201433D01*
X435366Y200100D01*
Y198767D01*
X436032Y198101D01*
X437365D01*
X438032Y198767D01*
Y199434D01*
X437365Y200100D01*
X435366D01*
X313667Y170134D02*
X313001Y169468D01*
Y168135D01*
X313667Y167468D01*
X316333D01*
X316999Y168135D01*
Y169468D01*
X316333Y170134D01*
X316999Y174133D02*
Y171467D01*
X314334Y174133D01*
X313667D01*
X313001Y173467D01*
Y172134D01*
X313667Y171467D01*
Y175466D02*
X313001Y176132D01*
Y177465D01*
X313667Y178132D01*
X314334D01*
X315000Y177465D01*
X315666Y178132D01*
X316333D01*
X316999Y177465D01*
Y176132D01*
X316333Y175466D01*
X315666D01*
X315000Y176132D01*
X314334Y175466D01*
X313667D01*
X315000Y176132D02*
Y177465D01*
X528934Y394733D02*
X528268Y395399D01*
X526935D01*
X526268Y394733D01*
Y392067D01*
X526935Y391401D01*
X528268D01*
X528934Y392067D01*
X530267Y394733D02*
X530934Y395399D01*
X532266D01*
X532933Y394733D01*
Y394066D01*
X532266Y393400D01*
X531600D01*
X532266D01*
X532933Y392734D01*
Y392067D01*
X532266Y391401D01*
X530934D01*
X530267Y392067D01*
X534266Y394733D02*
X534932Y395399D01*
X536265D01*
X536932Y394733D01*
Y392067D01*
X536265Y391401D01*
X534932D01*
X534266Y392067D01*
Y394733D01*
X554867Y412101D02*
X554201Y411434D01*
Y410101D01*
X554867Y409435D01*
X557533D01*
X558199Y410101D01*
Y411434D01*
X557533Y412101D01*
X554867Y413434D02*
X554201Y414100D01*
Y415433D01*
X554867Y416099D01*
X555534D01*
X556200Y415433D01*
Y414767D01*
Y415433D01*
X556866Y416099D01*
X557533D01*
X558199Y415433D01*
Y414100D01*
X557533Y413434D01*
X558199Y417432D02*
Y418765D01*
Y418099D01*
X554201D01*
X554867Y417432D01*
X564967Y411334D02*
X564301Y410668D01*
Y409335D01*
X564967Y408668D01*
X567633D01*
X568299Y409335D01*
Y410668D01*
X567633Y411334D01*
X564967Y412667D02*
X564301Y413334D01*
Y414667D01*
X564967Y415333D01*
X565633D01*
X566300Y414667D01*
Y414000D01*
Y414667D01*
X566966Y415333D01*
X567633D01*
X568299Y414667D01*
Y413334D01*
X567633Y412667D01*
X568299Y419332D02*
Y416666D01*
X565633Y419332D01*
X564967D01*
X564301Y418665D01*
Y417332D01*
X564967Y416666D01*
X577434Y455933D02*
X576768Y456599D01*
X575435D01*
X574768Y455933D01*
Y453267D01*
X575435Y452601D01*
X576768D01*
X577434Y453267D01*
X578767Y455933D02*
X579434Y456599D01*
X580766D01*
X581433Y455933D01*
Y455266D01*
X580766Y454600D01*
X580100D01*
X580766D01*
X581433Y453934D01*
Y453267D01*
X580766Y452601D01*
X579434D01*
X578767Y453267D01*
X582766Y455933D02*
X583432Y456599D01*
X584765D01*
X585432Y455933D01*
Y455266D01*
X584765Y454600D01*
X584099D01*
X584765D01*
X585432Y453934D01*
Y453267D01*
X584765Y452601D01*
X583432D01*
X582766Y453267D01*
X530834Y443333D02*
X530168Y443999D01*
X528835D01*
X528168Y443333D01*
Y440667D01*
X528835Y440001D01*
X530168D01*
X530834Y440667D01*
X532167Y443333D02*
X532834Y443999D01*
X534166D01*
X534833Y443333D01*
Y442666D01*
X534166Y442000D01*
X533500D01*
X534166D01*
X534833Y441334D01*
Y440667D01*
X534166Y440001D01*
X532834D01*
X532167Y440667D01*
X538165Y440001D02*
Y443999D01*
X536166Y442000D01*
X538832D01*
X496634Y440433D02*
X495968Y441099D01*
X494635D01*
X493968Y440433D01*
Y437767D01*
X494635Y437101D01*
X495968D01*
X496634Y437767D01*
X497967Y440433D02*
X498634Y441099D01*
X499966D01*
X500633Y440433D01*
Y439766D01*
X499966Y439100D01*
X499300D01*
X499966D01*
X500633Y438434D01*
Y437767D01*
X499966Y437101D01*
X498634D01*
X497967Y437767D01*
X504632Y441099D02*
X501966D01*
Y439100D01*
X503299Y439766D01*
X503965D01*
X504632Y439100D01*
Y437767D01*
X503965Y437101D01*
X502632D01*
X501966Y437767D01*
X580534Y478333D02*
X579868Y478999D01*
X578535D01*
X577868Y478333D01*
Y475667D01*
X578535Y475001D01*
X579868D01*
X580534Y475667D01*
X581867Y478333D02*
X582534Y478999D01*
X583866D01*
X584533Y478333D01*
Y477666D01*
X583866Y477000D01*
X583200D01*
X583866D01*
X584533Y476334D01*
Y475667D01*
X583866Y475001D01*
X582534D01*
X581867Y475667D01*
X588532Y478999D02*
X587199Y478333D01*
X585866Y477000D01*
Y475667D01*
X586532Y475001D01*
X587865D01*
X588532Y475667D01*
Y476334D01*
X587865Y477000D01*
X585866D01*
X328034Y437201D02*
Y441199D01*
X330034D01*
X330700Y440533D01*
Y439200D01*
X330034Y438534D01*
X328034D01*
X329367D02*
X330700Y437201D01*
X332033D02*
X333366D01*
X332699D01*
Y441199D01*
X332033Y440533D01*
X317068Y445401D02*
Y449399D01*
X319067D01*
X319734Y448733D01*
Y447400D01*
X319067Y446734D01*
X317068D01*
X318401D02*
X319734Y445401D01*
X323732D02*
X321066D01*
X323732Y448066D01*
Y448733D01*
X323066Y449399D01*
X321733D01*
X321066Y448733D01*
X328868Y380301D02*
Y384299D01*
X330867D01*
X331534Y383633D01*
Y382300D01*
X330867Y381634D01*
X328868D01*
X330201D02*
X331534Y380301D01*
X332867Y383633D02*
X333533Y384299D01*
X334866D01*
X335532Y383633D01*
Y382966D01*
X334866Y382300D01*
X334199D01*
X334866D01*
X335532Y381634D01*
Y380967D01*
X334866Y380301D01*
X333533D01*
X332867Y380967D01*
X390799Y403468D02*
X386801D01*
Y405467D01*
X387467Y406134D01*
X388800D01*
X389466Y405467D01*
Y403468D01*
Y404801D02*
X390799Y406134D01*
Y409466D02*
X386801D01*
X388800Y407467D01*
Y410132D01*
X403968Y347201D02*
Y351199D01*
X405967D01*
X406634Y350533D01*
Y349200D01*
X405967Y348534D01*
X403968D01*
X405301D02*
X406634Y347201D01*
X410632Y351199D02*
X409299Y350533D01*
X407967Y349200D01*
Y347867D01*
X408633Y347201D01*
X409966D01*
X410632Y347867D01*
Y348534D01*
X409966Y349200D01*
X407967D01*
X406368Y467701D02*
Y471699D01*
X408367D01*
X409034Y471033D01*
Y469700D01*
X408367Y469034D01*
X406368D01*
X407701D02*
X409034Y467701D01*
X410366Y471699D02*
X413032D01*
Y471033D01*
X410366Y468367D01*
Y467701D01*
X428202Y176001D02*
Y179999D01*
X430201D01*
X430867Y179333D01*
Y178000D01*
X430201Y177333D01*
X428202D01*
X429534D02*
X430867Y176001D01*
X432200D02*
X433533D01*
X432867D01*
Y179999D01*
X432200Y179333D01*
X435533D02*
X436199Y179999D01*
X437532D01*
X438198Y179333D01*
Y176667D01*
X437532Y176001D01*
X436199D01*
X435533Y176667D01*
Y179333D01*
X408799Y212868D02*
X404801D01*
Y214867D01*
X405467Y215534D01*
X406800D01*
X407466Y214867D01*
Y212868D01*
Y214201D02*
X408799Y215534D01*
Y216867D02*
Y218200D01*
Y217533D01*
X404801D01*
X405467Y216867D01*
X408799Y220199D02*
Y221532D01*
Y220866D01*
X404801D01*
X405467Y220199D01*
X420899Y212302D02*
X416901D01*
Y214301D01*
X417567Y214967D01*
X418900D01*
X419566Y214301D01*
Y212302D01*
Y213634D02*
X420899Y214967D01*
Y216300D02*
Y217633D01*
Y216967D01*
X416901D01*
X417567Y216300D01*
X420899Y222298D02*
Y219633D01*
X418234Y222298D01*
X417567D01*
X416901Y221632D01*
Y220299D01*
X417567Y219633D01*
X306999Y182302D02*
X303001D01*
Y184301D01*
X303667Y184967D01*
X305000D01*
X305666Y184301D01*
Y182302D01*
Y183634D02*
X306999Y184967D01*
Y186300D02*
Y187633D01*
Y186967D01*
X303001D01*
X303667Y186300D01*
Y189633D02*
X303001Y190299D01*
Y191632D01*
X303667Y192298D01*
X304334D01*
X305000Y191632D01*
Y190965D01*
Y191632D01*
X305666Y192298D01*
X306333D01*
X306999Y191632D01*
Y190299D01*
X306333Y189633D01*
X317999Y181902D02*
X314001D01*
Y183901D01*
X314667Y184567D01*
X316000D01*
X316666Y183901D01*
Y181902D01*
Y183235D02*
X317999Y184567D01*
Y185900D02*
Y187233D01*
Y186567D01*
X314001D01*
X314667Y185900D01*
X317999Y191232D02*
X314001D01*
X316000Y189233D01*
Y191898D01*
X512699Y437602D02*
X508701D01*
Y439601D01*
X509367Y440267D01*
X510700D01*
X511366Y439601D01*
Y437602D01*
Y438935D02*
X512699Y440267D01*
Y441600D02*
Y442933D01*
Y442267D01*
X508701D01*
X509367Y441600D01*
X508701Y447598D02*
X509367Y446266D01*
X510700Y444933D01*
X512033D01*
X512699Y445599D01*
Y446932D01*
X512033Y447598D01*
X511366D01*
X510700Y446932D01*
Y444933D01*
X471134Y435599D02*
Y432267D01*
X471801Y431601D01*
X473134D01*
X473800Y432267D01*
Y435599D01*
X475133Y431601D02*
X476466D01*
X475799D01*
Y435599D01*
X475133Y434933D01*
X447168Y483399D02*
Y480067D01*
X447834Y479401D01*
X449167D01*
X449834Y480067D01*
Y483399D01*
X453832D02*
X451166D01*
Y481400D01*
X452499Y482066D01*
X453166D01*
X453832Y481400D01*
Y480067D01*
X453166Y479401D01*
X451833D01*
X451166Y480067D01*
X402800Y205999D02*
Y202666D01*
X403466Y202000D01*
X404799D01*
X405466Y202666D01*
Y205999D01*
X409465D02*
X408132Y205332D01*
X406799Y203999D01*
Y202666D01*
X407465Y202000D01*
X408798D01*
X409465Y202666D01*
Y203333D01*
X408798Y203999D01*
X406799D01*
X370734Y339999D02*
X373400Y336001D01*
Y339999D02*
X370734Y336001D01*
X374733D02*
X376066D01*
X375399D01*
Y339999D01*
X374733Y339333D01*
X69866Y466332D02*
X69199Y466999D01*
X67866D01*
X67200Y466332D01*
Y463666D01*
X67866Y463000D01*
X69199D01*
X69866Y463666D01*
X73198Y463000D02*
Y466999D01*
X71199Y464999D01*
X73865D01*
X75197Y466332D02*
X75864Y466999D01*
X77197D01*
X77863Y466332D01*
Y463666D01*
X77197Y463000D01*
X75864D01*
X75197Y463666D01*
Y466332D01*
X230801Y442833D02*
X230134Y443499D01*
X228801D01*
X228135Y442833D01*
Y440167D01*
X228801Y439501D01*
X230134D01*
X230801Y440167D01*
X234133Y439501D02*
Y443499D01*
X232134Y441500D01*
X234799D01*
X236132Y439501D02*
X237465D01*
X236799D01*
Y443499D01*
X236132Y442833D01*
X453066Y176932D02*
X452399Y177599D01*
X451066D01*
X450400Y176932D01*
Y174267D01*
X451066Y173600D01*
X452399D01*
X453066Y174267D01*
X456398Y173600D02*
Y177599D01*
X454399Y175599D01*
X457064D01*
X461063Y173600D02*
X458397D01*
X461063Y176266D01*
Y176932D01*
X460397Y177599D01*
X459064D01*
X458397Y176932D01*
X442034Y209133D02*
X441368Y209799D01*
X440035D01*
X439368Y209133D01*
Y206467D01*
X440035Y205801D01*
X441368D01*
X442034Y206467D01*
X445366Y205801D02*
Y209799D01*
X443367Y207800D01*
X446033D01*
X447366Y209133D02*
X448032Y209799D01*
X449365D01*
X450032Y209133D01*
Y208466D01*
X449365Y207800D01*
X448699D01*
X449365D01*
X450032Y207134D01*
Y206467D01*
X449365Y205801D01*
X448032D01*
X447366Y206467D01*
X694934Y291533D02*
X694268Y292199D01*
X692935D01*
X692268Y291533D01*
Y288867D01*
X692935Y288201D01*
X694268D01*
X694934Y288867D01*
X698266Y288201D02*
Y292199D01*
X696267Y290200D01*
X698933D01*
X702932Y292199D02*
X701599Y291533D01*
X700266Y290200D01*
Y288867D01*
X700932Y288201D01*
X702265D01*
X702932Y288867D01*
Y289534D01*
X702265Y290200D01*
X700266D01*
X29766Y341599D02*
X28433D01*
X29099D01*
Y338266D01*
X28433Y337600D01*
X27766D01*
X27100Y338266D01*
X31099Y341599D02*
X33764D01*
Y340932D01*
X31099Y338266D01*
Y337600D01*
X526868Y482101D02*
Y486099D01*
X528868D01*
X529534Y485433D01*
Y484100D01*
X528868Y483434D01*
X526868D01*
X528201D02*
X529534Y482101D01*
X533533D02*
X530867D01*
X533533Y484766D01*
Y485433D01*
X532866Y486099D01*
X531534D01*
X530867Y485433D01*
X537532Y482101D02*
X534866D01*
X537532Y484766D01*
Y485433D01*
X536865Y486099D01*
X535532D01*
X534866Y485433D01*
X486468Y189699D02*
Y186367D01*
X487134Y185701D01*
X488467D01*
X489134Y186367D01*
Y189699D01*
X490466Y186367D02*
X491133Y185701D01*
X492466D01*
X493132Y186367D01*
Y189033D01*
X492466Y189699D01*
X491133D01*
X490466Y189033D01*
Y188366D01*
X491133Y187700D01*
X493132D01*
X735634Y233099D02*
X734301D01*
X734967D01*
Y229767D01*
X734301Y229101D01*
X733634D01*
X732968Y229767D01*
X739632Y233099D02*
X736967D01*
Y231100D01*
X738299Y231766D01*
X738966D01*
X739632Y231100D01*
Y229767D01*
X738966Y229101D01*
X737633D01*
X736967Y229767D01*
X508201Y68534D02*
Y67201D01*
Y67867D01*
X511533D01*
X512199Y67201D01*
Y66534D01*
X511533Y65868D01*
Y69867D02*
X512199Y70533D01*
Y71866D01*
X511533Y72532D01*
X508867D01*
X508201Y71866D01*
Y70533D01*
X508867Y69867D01*
X509534D01*
X510200Y70533D01*
Y72532D01*
X29766Y121499D02*
X28433D01*
X29099D01*
Y118166D01*
X28433Y117500D01*
X27766D01*
X27100Y118166D01*
X31099Y117500D02*
X32432D01*
X31765D01*
Y121499D01*
X31099Y120832D01*
X34431D02*
X35097Y121499D01*
X36430D01*
X37097Y120832D01*
Y118166D01*
X36430Y117500D01*
X35097D01*
X34431Y118166D01*
Y120832D01*
X665766Y341499D02*
X664433D01*
X665099D01*
Y338166D01*
X664433Y337500D01*
X663766D01*
X663100Y338166D01*
X667099Y337500D02*
X668432D01*
X667765D01*
Y341499D01*
X667099Y340832D01*
X670431Y337500D02*
X671764D01*
X671097D01*
Y341499D01*
X670431Y340832D01*
X835766Y341499D02*
X834433D01*
X835099D01*
Y338166D01*
X834433Y337500D01*
X833766D01*
X833100Y338166D01*
X837099Y337500D02*
X838432D01*
X837765D01*
Y341499D01*
X837099Y340832D01*
X843097Y337500D02*
X840431D01*
X843097Y340166D01*
Y340832D01*
X842430Y341499D01*
X841097D01*
X840431Y340832D01*
X608635Y417499D02*
X611301D01*
X609968D01*
Y413501D01*
X612634D02*
Y417499D01*
X614633D01*
X615299Y416833D01*
Y415500D01*
X614633Y414834D01*
X612634D01*
X616632Y413501D02*
X617965D01*
X617299D01*
Y417499D01*
X616632Y416833D01*
X424068Y425099D02*
X426734D01*
X425401D01*
Y421101D01*
X428067D02*
Y425099D01*
X430066D01*
X430733Y424433D01*
Y423100D01*
X430066Y422434D01*
X428067D01*
X434732Y421101D02*
X432066D01*
X434732Y423766D01*
Y424433D01*
X434065Y425099D01*
X432732D01*
X432066Y424433D01*
X408068Y488699D02*
X410734D01*
X409401D01*
Y484701D01*
X412067D02*
Y488699D01*
X414066D01*
X414733Y488033D01*
Y486700D01*
X414066Y486034D01*
X412067D01*
X416066Y488033D02*
X416732Y488699D01*
X418065D01*
X418732Y488033D01*
Y487366D01*
X418065Y486700D01*
X417399D01*
X418065D01*
X418732Y486034D01*
Y485367D01*
X418065Y484701D01*
X416732D01*
X416066Y485367D01*
X388100Y449099D02*
X390766D01*
X389433D01*
Y445100D01*
X392099D02*
Y449099D01*
X394098D01*
X394764Y448432D01*
Y447099D01*
X394098Y446433D01*
X392099D01*
X398097Y445100D02*
Y449099D01*
X396097Y447099D01*
X398763D01*
X633968Y452299D02*
X636634D01*
X635301D01*
Y448301D01*
X637967D02*
Y452299D01*
X639966D01*
X640633Y451633D01*
Y450300D01*
X639966Y449634D01*
X637967D01*
X644632Y452299D02*
X641966D01*
Y450300D01*
X643299Y450966D01*
X643965D01*
X644632Y450300D01*
Y448967D01*
X643965Y448301D01*
X642632D01*
X641966Y448967D01*
X512668Y459099D02*
X515334D01*
X514001D01*
Y455101D01*
X516667D02*
Y459099D01*
X518666D01*
X519333Y458433D01*
Y457100D01*
X518666Y456434D01*
X516667D01*
X523332Y459099D02*
X521999Y458433D01*
X520666Y457100D01*
Y455767D01*
X521332Y455101D01*
X522665D01*
X523332Y455767D01*
Y456434D01*
X522665Y457100D01*
X520666D01*
X33299Y280932D02*
Y278266D01*
Y279599D01*
X29301D01*
Y276933D02*
X33299D01*
Y274934D01*
X32633Y274267D01*
X31300D01*
X30634Y274934D01*
Y276933D01*
X29967Y272934D02*
X29301Y272268D01*
Y270935D01*
X29967Y270268D01*
X32633D01*
X33299Y270935D01*
Y272268D01*
X32633Y272934D01*
X31966D01*
X31300Y272268D01*
Y270268D01*
X675602Y318199D02*
X678268D01*
X676935D01*
Y314201D01*
X679601D02*
Y318199D01*
X681600D01*
X682267Y317533D01*
Y316200D01*
X681600Y315534D01*
X679601D01*
X683600Y314201D02*
X684933D01*
X684266D01*
Y318199D01*
X683600Y317533D01*
X686932D02*
X687598Y318199D01*
X688931D01*
X689598Y317533D01*
Y314867D01*
X688931Y314201D01*
X687598D01*
X686932Y314867D01*
Y317533D01*
X789569Y289999D02*
X792235D01*
X790902D01*
Y286001D01*
X793567D02*
Y289999D01*
X795567D01*
X796233Y289333D01*
Y288000D01*
X795567Y287334D01*
X793567D01*
X797566Y286001D02*
X798899D01*
X798233D01*
Y289999D01*
X797566Y289333D01*
X800898Y286001D02*
X802231D01*
X801565D01*
Y289999D01*
X800898Y289333D01*
X811002Y297799D02*
X813668D01*
X812335D01*
Y293801D01*
X815001D02*
Y297799D01*
X817000D01*
X817667Y297133D01*
Y295800D01*
X817000Y295134D01*
X815001D01*
X819000Y293801D02*
X820333D01*
X819666D01*
Y297799D01*
X819000Y297133D01*
X824998Y293801D02*
X822332D01*
X824998Y296466D01*
Y297133D01*
X824331Y297799D01*
X822998D01*
X822332Y297133D01*
X721602Y282499D02*
X724268D01*
X722935D01*
Y278501D01*
X725601D02*
Y282499D01*
X727600D01*
X728267Y281833D01*
Y280500D01*
X727600Y279834D01*
X725601D01*
X729600Y278501D02*
X730933D01*
X730266D01*
Y282499D01*
X729600Y281833D01*
X732932D02*
X733598Y282499D01*
X734931D01*
X735598Y281833D01*
Y281166D01*
X734931Y280500D01*
X734265D01*
X734931D01*
X735598Y279834D01*
Y279167D01*
X734931Y278501D01*
X733598D01*
X732932Y279167D01*
X809302Y345199D02*
X811968D01*
X810635D01*
Y341201D01*
X813301D02*
Y345199D01*
X815300D01*
X815967Y344533D01*
Y343200D01*
X815300Y342534D01*
X813301D01*
X817300Y341201D02*
X818633D01*
X817966D01*
Y345199D01*
X817300Y344533D01*
X822631Y341201D02*
Y345199D01*
X820632Y343200D01*
X823298D01*
X805302Y314499D02*
X807968D01*
X806635D01*
Y310501D01*
X809301D02*
Y314499D01*
X811300D01*
X811967Y313833D01*
Y312500D01*
X811300Y311834D01*
X809301D01*
X813300Y310501D02*
X814633D01*
X813966D01*
Y314499D01*
X813300Y313833D01*
X819298Y314499D02*
X816632D01*
Y312500D01*
X817965Y313166D01*
X818631D01*
X819298Y312500D01*
Y311167D01*
X818631Y310501D01*
X817298D01*
X816632Y311167D01*
X688333Y242566D02*
X688999Y243232D01*
Y244565D01*
X688333Y245232D01*
X685667D01*
X685001Y244565D01*
Y243232D01*
X685667Y242566D01*
X685001Y239233D02*
X688999D01*
X687000Y241233D01*
Y238567D01*
X685667Y237234D02*
X685001Y236568D01*
Y235235D01*
X685667Y234568D01*
X688333D01*
X688999Y235235D01*
Y236568D01*
X688333Y237234D01*
X687666D01*
X687000Y236568D01*
Y234568D01*
X830801Y256533D02*
X830134Y257199D01*
X828801D01*
X828135Y256533D01*
Y253867D01*
X828801Y253201D01*
X830134D01*
X830801Y253867D01*
X834799Y257199D02*
X832133D01*
Y255200D01*
X833467Y255866D01*
X834133D01*
X834799Y255200D01*
Y253867D01*
X834133Y253201D01*
X832800D01*
X832133Y253867D01*
X836132Y253201D02*
X837465D01*
X836799D01*
Y257199D01*
X836132Y256533D01*
X779534Y272633D02*
X778868Y273299D01*
X777535D01*
X776868Y272633D01*
Y269967D01*
X777535Y269301D01*
X778868D01*
X779534Y269967D01*
X783533Y273299D02*
X780867D01*
Y271300D01*
X782200Y271966D01*
X782866D01*
X783533Y271300D01*
Y269967D01*
X782866Y269301D01*
X781534D01*
X780867Y269967D01*
X784866Y272633D02*
X785532Y273299D01*
X786865D01*
X787532Y272633D01*
Y271966D01*
X786865Y271300D01*
X786199D01*
X786865D01*
X787532Y270634D01*
Y269967D01*
X786865Y269301D01*
X785532D01*
X784866Y269967D01*
X727834Y272733D02*
X727168Y273399D01*
X725835D01*
X725168Y272733D01*
Y270067D01*
X725835Y269401D01*
X727168D01*
X727834Y270067D01*
X731833Y273399D02*
X729167D01*
Y271400D01*
X730500Y272066D01*
X731166D01*
X731833Y271400D01*
Y270067D01*
X731166Y269401D01*
X729834D01*
X729167Y270067D01*
X735165Y269401D02*
Y273399D01*
X733166Y271400D01*
X735832D01*
X697634Y273233D02*
X696968Y273899D01*
X695635D01*
X694968Y273233D01*
Y270567D01*
X695635Y269901D01*
X696968D01*
X697634Y270567D01*
X701633Y273899D02*
X698967D01*
Y271900D01*
X700300Y272566D01*
X700966D01*
X701633Y271900D01*
Y270567D01*
X700966Y269901D01*
X699634D01*
X698967Y270567D01*
X705632Y273899D02*
X702966D01*
Y271900D01*
X704299Y272566D01*
X704965D01*
X705632Y271900D01*
Y270567D01*
X704965Y269901D01*
X703632D01*
X702966Y270567D01*
X776434Y56333D02*
X775768Y56999D01*
X774435D01*
X773768Y56333D01*
Y53667D01*
X774435Y53001D01*
X775768D01*
X776434Y53667D01*
X780433Y56999D02*
X777767D01*
Y55000D01*
X779100Y55666D01*
X779766D01*
X780433Y55000D01*
Y53667D01*
X779766Y53001D01*
X778434D01*
X777767Y53667D01*
X784432Y56999D02*
X783099Y56333D01*
X781766Y55000D01*
Y53667D01*
X782432Y53001D01*
X783765D01*
X784432Y53667D01*
Y54334D01*
X783765Y55000D01*
X781766D01*
X830734Y43933D02*
X830068Y44599D01*
X828735D01*
X828068Y43933D01*
Y41267D01*
X828735Y40601D01*
X830068D01*
X830734Y41267D01*
X834733Y44599D02*
X832067D01*
Y42600D01*
X833400Y43266D01*
X834066D01*
X834733Y42600D01*
Y41267D01*
X834066Y40601D01*
X832734D01*
X832067Y41267D01*
X836066Y44599D02*
X838732D01*
Y43933D01*
X836066Y41267D01*
Y40601D01*
X785334Y67833D02*
X784668Y68499D01*
X783335D01*
X782668Y67833D01*
Y65167D01*
X783335Y64501D01*
X784668D01*
X785334Y65167D01*
X789333Y68499D02*
X786667D01*
Y66500D01*
X788000Y67166D01*
X788666D01*
X789333Y66500D01*
Y65167D01*
X788666Y64501D01*
X787334D01*
X786667Y65167D01*
X790666Y67833D02*
X791332Y68499D01*
X792665D01*
X793332Y67833D01*
Y67166D01*
X792665Y66500D01*
X793332Y65834D01*
Y65167D01*
X792665Y64501D01*
X791332D01*
X790666Y65167D01*
Y65834D01*
X791332Y66500D01*
X790666Y67166D01*
Y67833D01*
X791332Y66500D02*
X792665D01*
X768334Y67533D02*
X767668Y68199D01*
X766335D01*
X765668Y67533D01*
Y64867D01*
X766335Y64201D01*
X767668D01*
X768334Y64867D01*
X772333Y68199D02*
X769667D01*
Y66200D01*
X771000Y66866D01*
X771666D01*
X772333Y66200D01*
Y64867D01*
X771666Y64201D01*
X770334D01*
X769667Y64867D01*
X773666D02*
X774332Y64201D01*
X775665D01*
X776332Y64867D01*
Y67533D01*
X775665Y68199D01*
X774332D01*
X773666Y67533D01*
Y66866D01*
X774332Y66200D01*
X776332D01*
X823467Y146734D02*
X822801Y146068D01*
Y144735D01*
X823467Y144068D01*
X826133D01*
X826799Y144735D01*
Y146068D01*
X826133Y146734D01*
X822801Y150733D02*
X823467Y149400D01*
X824800Y148067D01*
X826133D01*
X826799Y148734D01*
Y150066D01*
X826133Y150733D01*
X825466D01*
X824800Y150066D01*
Y148067D01*
X826799Y154732D02*
Y152066D01*
X824133Y154732D01*
X823467D01*
X822801Y154065D01*
Y152732D01*
X823467Y152066D01*
X758734Y150333D02*
X758068Y150999D01*
X756735D01*
X756068Y150333D01*
Y147667D01*
X756735Y147001D01*
X758068D01*
X758734Y147667D01*
X762733Y150999D02*
X761400Y150333D01*
X760067Y149000D01*
Y147667D01*
X760734Y147001D01*
X762066D01*
X762733Y147667D01*
Y148334D01*
X762066Y149000D01*
X760067D01*
X766732Y150999D02*
X764066D01*
Y149000D01*
X765399Y149667D01*
X766065D01*
X766732Y149000D01*
Y147667D01*
X766065Y147001D01*
X764732D01*
X764066Y147667D01*
X759734Y180933D02*
X759068Y181599D01*
X757735D01*
X757068Y180933D01*
Y178267D01*
X757735Y177601D01*
X759068D01*
X759734Y178267D01*
X763733Y181599D02*
X762400Y180933D01*
X761067Y179600D01*
Y178267D01*
X761734Y177601D01*
X763066D01*
X763733Y178267D01*
Y178934D01*
X763066Y179600D01*
X761067D01*
X767732Y181599D02*
X766399Y180933D01*
X765066Y179600D01*
Y178267D01*
X765732Y177601D01*
X767065D01*
X767732Y178267D01*
Y178934D01*
X767065Y179600D01*
X765066D01*
X758734Y209333D02*
X758068Y209999D01*
X756735D01*
X756068Y209333D01*
Y206667D01*
X756735Y206001D01*
X758068D01*
X758734Y206667D01*
X762733Y209999D02*
X761400Y209333D01*
X760067Y208000D01*
Y206667D01*
X760734Y206001D01*
X762066D01*
X762733Y206667D01*
Y207334D01*
X762066Y208000D01*
X760067D01*
X764066Y209999D02*
X766732D01*
Y209333D01*
X764066Y206667D01*
Y206001D01*
X524735Y473199D02*
Y469201D01*
X526734D01*
X527401Y469867D01*
Y472533D01*
X526734Y473199D01*
X524735D01*
X528734Y469201D02*
Y473199D01*
X531399Y469201D01*
Y473199D01*
X532732D02*
X534065D01*
X533399D01*
Y469201D01*
X532732D01*
X534065D01*
X707367Y212499D02*
X706035D01*
X706701D01*
Y209167D01*
X706035Y208501D01*
X705368D01*
X704702Y209167D01*
X708700Y208501D02*
X710033D01*
X709367D01*
Y212499D01*
X708700Y211833D01*
X714698Y212499D02*
X713366Y211833D01*
X712033Y210500D01*
Y209167D01*
X712699Y208501D01*
X714032D01*
X714698Y209167D01*
Y209834D01*
X714032Y210500D01*
X712033D01*
X706467Y41999D02*
X705134D01*
X705801D01*
Y38667D01*
X705134Y38001D01*
X704468D01*
X703802Y38667D01*
X707800Y38001D02*
X709133D01*
X708467D01*
Y41999D01*
X707800Y41333D01*
X711133Y41999D02*
X713798D01*
Y41333D01*
X711133Y38667D01*
Y38001D01*
X674901Y246732D02*
X678899D01*
Y244732D01*
X678233Y244066D01*
X676900D01*
X676233Y244732D01*
Y246732D01*
Y245399D02*
X674901Y244066D01*
Y240067D02*
Y242733D01*
X677566Y240067D01*
X678233D01*
X678899Y240734D01*
Y242066D01*
X678233Y242733D01*
X678899Y236068D02*
Y238734D01*
X676900D01*
X677566Y237401D01*
Y236735D01*
X676900Y236068D01*
X675567D01*
X674901Y236735D01*
Y238068D01*
X675567Y238734D01*
X758899Y281168D02*
X754901D01*
Y283168D01*
X755567Y283834D01*
X756900D01*
X757566Y283168D01*
Y281168D01*
Y282501D02*
X758899Y283834D01*
Y287833D02*
Y285167D01*
X756234Y287833D01*
X755567D01*
X754901Y287166D01*
Y285834D01*
X755567Y285167D01*
X754901Y289166D02*
Y291832D01*
X755567D01*
X758233Y289166D01*
X758899D01*
X822001Y234032D02*
X825999D01*
Y232032D01*
X825333Y231366D01*
X824000D01*
X823333Y232032D01*
Y234032D01*
Y232699D02*
X822001Y231366D01*
Y227367D02*
Y230033D01*
X824666Y227367D01*
X825333D01*
X825999Y228033D01*
Y229366D01*
X825333Y230033D01*
Y226034D02*
X825999Y225368D01*
Y224035D01*
X825333Y223368D01*
X824666D01*
X824000Y224035D01*
X823333Y223368D01*
X822667D01*
X822001Y224035D01*
Y225368D01*
X822667Y226034D01*
X823333D01*
X824000Y225368D01*
X824666Y226034D01*
X825333D01*
X824000Y225368D02*
Y224035D01*
X800101Y234232D02*
X804099D01*
Y232232D01*
X803433Y231566D01*
X802100D01*
X801433Y232232D01*
Y234232D01*
Y232899D02*
X800101Y231566D01*
Y227567D02*
Y230233D01*
X802766Y227567D01*
X803433D01*
X804099Y228234D01*
Y229566D01*
X803433Y230233D01*
X800767Y226234D02*
X800101Y225568D01*
Y224235D01*
X800767Y223568D01*
X803433D01*
X804099Y224235D01*
Y225568D01*
X803433Y226234D01*
X802766D01*
X802100Y225568D01*
Y223568D01*
X811101Y233932D02*
X815099D01*
Y231932D01*
X814433Y231266D01*
X813100D01*
X812434Y231932D01*
Y233932D01*
Y232599D02*
X811101Y231266D01*
X814433Y229933D02*
X815099Y229266D01*
Y227934D01*
X814433Y227267D01*
X813766D01*
X813100Y227934D01*
Y228600D01*
Y227934D01*
X812434Y227267D01*
X811767D01*
X811101Y227934D01*
Y229266D01*
X811767Y229933D01*
X814433Y225934D02*
X815099Y225268D01*
Y223935D01*
X814433Y223268D01*
X811767D01*
X811101Y223935D01*
Y225268D01*
X811767Y225934D01*
X814433D01*
X788901Y233365D02*
X792899D01*
Y231366D01*
X792233Y230699D01*
X790900D01*
X790234Y231366D01*
Y233365D01*
Y232032D02*
X788901Y230699D01*
X792233Y229366D02*
X792899Y228700D01*
Y227367D01*
X792233Y226701D01*
X791566D01*
X790900Y227367D01*
Y228033D01*
Y227367D01*
X790234Y226701D01*
X789567D01*
X788901Y227367D01*
Y228700D01*
X789567Y229366D01*
X788901Y225368D02*
Y224035D01*
Y224701D01*
X792899D01*
X792233Y225368D01*
X832368Y63301D02*
Y67299D01*
X834368D01*
X835034Y66633D01*
Y65300D01*
X834368Y64634D01*
X832368D01*
X833701D02*
X835034Y63301D01*
X836367Y66633D02*
X837033Y67299D01*
X838367D01*
X839033Y66633D01*
Y65966D01*
X838367Y65300D01*
X837700D01*
X838367D01*
X839033Y64634D01*
Y63967D01*
X838367Y63301D01*
X837033D01*
X836367Y63967D01*
X842365Y63301D02*
Y67299D01*
X840366Y65300D01*
X843032D01*
X808899Y77668D02*
X804901D01*
Y79668D01*
X805567Y80334D01*
X806900D01*
X807566Y79668D01*
Y77668D01*
Y79001D02*
X808899Y80334D01*
X805567Y81667D02*
X804901Y82334D01*
Y83666D01*
X805567Y84333D01*
X806234D01*
X806900Y83666D01*
Y83000D01*
Y83666D01*
X807566Y84333D01*
X808233D01*
X808899Y83666D01*
Y82334D01*
X808233Y81667D01*
X804901Y88332D02*
Y85666D01*
X806900D01*
X806234Y86999D01*
Y87665D01*
X806900Y88332D01*
X808233D01*
X808899Y87665D01*
Y86332D01*
X808233Y85666D01*
X821899Y77568D02*
X817901D01*
Y79568D01*
X818567Y80234D01*
X819900D01*
X820566Y79568D01*
Y77568D01*
Y78901D02*
X821899Y80234D01*
X818567Y81567D02*
X817901Y82234D01*
Y83566D01*
X818567Y84233D01*
X819234D01*
X819900Y83566D01*
Y82900D01*
Y83566D01*
X820566Y84233D01*
X821233D01*
X821899Y83566D01*
Y82234D01*
X821233Y81567D01*
X817901Y88232D02*
X818567Y86899D01*
X819900Y85566D01*
X821233D01*
X821899Y86232D01*
Y87565D01*
X821233Y88232D01*
X820566D01*
X819900Y87565D01*
Y85566D01*
X831068Y117901D02*
Y121899D01*
X833068D01*
X833734Y121233D01*
Y119900D01*
X833068Y119234D01*
X831068D01*
X832401D02*
X833734Y117901D01*
X835067Y121233D02*
X835734Y121899D01*
X837066D01*
X837733Y121233D01*
Y120566D01*
X837066Y119900D01*
X836400D01*
X837066D01*
X837733Y119234D01*
Y118567D01*
X837066Y117901D01*
X835734D01*
X835067Y118567D01*
X839066Y121899D02*
X841732D01*
Y121233D01*
X839066Y118567D01*
Y117901D01*
X826668Y107201D02*
Y111199D01*
X828668D01*
X829334Y110533D01*
Y109200D01*
X828668Y108534D01*
X826668D01*
X828001D02*
X829334Y107201D01*
X830667Y110533D02*
X831334Y111199D01*
X832666D01*
X833333Y110533D01*
Y109866D01*
X832666Y109200D01*
X832000D01*
X832666D01*
X833333Y108534D01*
Y107867D01*
X832666Y107201D01*
X831334D01*
X830667Y107867D01*
X834666D02*
X835332Y107201D01*
X836665D01*
X837332Y107867D01*
Y110533D01*
X836665Y111199D01*
X835332D01*
X834666Y110533D01*
Y109866D01*
X835332Y109200D01*
X837332D01*
X785968Y107101D02*
Y111099D01*
X787968D01*
X788634Y110433D01*
Y109100D01*
X787968Y108433D01*
X785968D01*
X787301D02*
X788634Y107101D01*
X791966D02*
Y111099D01*
X789967Y109100D01*
X792633D01*
X793966Y110433D02*
X794632Y111099D01*
X795965D01*
X796632Y110433D01*
Y107767D01*
X795965Y107101D01*
X794632D01*
X793966Y107767D01*
Y110433D01*
X413869Y340099D02*
X416535D01*
X415202D01*
Y336101D01*
X417868D02*
Y340099D01*
X419867D01*
X420534Y339433D01*
Y338100D01*
X419867Y337434D01*
X417868D01*
X424532Y336101D02*
X421867D01*
X424532Y338766D01*
Y339433D01*
X423866Y340099D01*
X422533D01*
X421867Y339433D01*
X428531Y336101D02*
X425865D01*
X428531Y338766D01*
Y339433D01*
X427865Y340099D01*
X426532D01*
X425865Y339433D01*
X418269Y328099D02*
X420935D01*
X419602D01*
Y324101D01*
X422268D02*
Y328099D01*
X424267D01*
X424934Y327433D01*
Y326100D01*
X424267Y325434D01*
X422268D01*
X428932Y324101D02*
X426266D01*
X428932Y326766D01*
Y327433D01*
X428266Y328099D01*
X426933D01*
X426266Y327433D01*
X430265D02*
X430932Y328099D01*
X432265D01*
X432931Y327433D01*
Y326766D01*
X432265Y326100D01*
X431598D01*
X432265D01*
X432931Y325434D01*
Y324767D01*
X432265Y324101D01*
X430932D01*
X430265Y324767D01*
X485069Y126899D02*
X487735D01*
X486402D01*
Y122901D01*
X489068D02*
Y126899D01*
X491067D01*
X491734Y126233D01*
Y124900D01*
X491067Y124233D01*
X489068D01*
X495732Y122901D02*
X493067D01*
X495732Y125566D01*
Y126233D01*
X495066Y126899D01*
X493733D01*
X493067Y126233D01*
X499064Y122901D02*
Y126899D01*
X497065Y124900D01*
X499731D01*
X488969Y111899D02*
X491635D01*
X490302D01*
Y107901D01*
X492968D02*
Y111899D01*
X494967D01*
X495634Y111233D01*
Y109900D01*
X494967Y109233D01*
X492968D01*
X499632Y107901D02*
X496967D01*
X499632Y110566D01*
Y111233D01*
X498966Y111899D01*
X497633D01*
X496967Y111233D01*
X503631Y111899D02*
X500965D01*
Y109900D01*
X502298Y110566D01*
X502964D01*
X503631Y109900D01*
Y108567D01*
X502964Y107901D01*
X501632D01*
X500965Y108567D01*
X488769Y81799D02*
X491435D01*
X490102D01*
Y77801D01*
X492768D02*
Y81799D01*
X494767D01*
X495434Y81133D01*
Y79800D01*
X494767Y79134D01*
X492768D01*
X499432Y77801D02*
X496767D01*
X499432Y80466D01*
Y81133D01*
X498766Y81799D01*
X497433D01*
X496767Y81133D01*
X503431Y81799D02*
X502098Y81133D01*
X500765Y79800D01*
Y78467D01*
X501432Y77801D01*
X502765D01*
X503431Y78467D01*
Y79134D01*
X502765Y79800D01*
X500765D01*
X728069Y62099D02*
X730735D01*
X729402D01*
Y58101D01*
X732068D02*
Y62099D01*
X734067D01*
X734734Y61433D01*
Y60100D01*
X734067Y59434D01*
X732068D01*
X738732Y58101D02*
X736066D01*
X738732Y60766D01*
Y61433D01*
X738066Y62099D01*
X736733D01*
X736066Y61433D01*
X740065D02*
X740732Y62099D01*
X742065D01*
X742731Y61433D01*
Y60766D01*
X742065Y60100D01*
X742731Y59434D01*
Y58767D01*
X742065Y58101D01*
X740732D01*
X740065Y58767D01*
Y59434D01*
X740732Y60100D01*
X740065Y60766D01*
Y61433D01*
X740732Y60100D02*
X742065D01*
X790300Y96399D02*
X792966D01*
X791633D01*
Y92400D01*
X794299D02*
Y96399D01*
X796298D01*
X796965Y95732D01*
Y94399D01*
X796298Y93733D01*
X794299D01*
X798297Y95732D02*
X798964Y96399D01*
X800297D01*
X800963Y95732D01*
Y95066D01*
X800297Y94399D01*
X799630D01*
X800297D01*
X800963Y93733D01*
Y93066D01*
X800297Y92400D01*
X798964D01*
X798297Y93066D01*
X802296Y92400D02*
X803629D01*
X802963D01*
Y96399D01*
X802296Y95732D01*
X616469Y51399D02*
X619135D01*
X617802D01*
Y47401D01*
X620468D02*
Y51399D01*
X622467D01*
X623134Y50733D01*
Y49400D01*
X622467Y48734D01*
X620468D01*
X624467Y50733D02*
X625133Y51399D01*
X626466D01*
X627132Y50733D01*
Y50066D01*
X626466Y49400D01*
X625799D01*
X626466D01*
X627132Y48734D01*
Y48067D01*
X626466Y47401D01*
X625133D01*
X624467Y48067D01*
X631131Y47401D02*
X628465D01*
X631131Y50066D01*
Y50733D01*
X630465Y51399D01*
X629132D01*
X628465Y50733D01*
X664502Y276299D02*
Y272967D01*
X665168Y272301D01*
X666501D01*
X667167Y272967D01*
Y276299D01*
X668500Y272301D02*
X669833D01*
X669167D01*
Y276299D01*
X668500Y275633D01*
X671833D02*
X672499Y276299D01*
X673832D01*
X674498Y275633D01*
Y274966D01*
X673832Y274300D01*
X673166D01*
X673832D01*
X674498Y273634D01*
Y272967D01*
X673832Y272301D01*
X672499D01*
X671833Y272967D01*
X812302Y271199D02*
Y267867D01*
X812968Y267201D01*
X814301D01*
X814967Y267867D01*
Y271199D01*
X816300Y267201D02*
X817633D01*
X816967D01*
Y271199D01*
X816300Y270533D01*
X821632Y267201D02*
Y271199D01*
X819633Y269200D01*
X822298D01*
X691402Y132899D02*
Y129567D01*
X692068Y128901D01*
X693401D01*
X694067Y129567D01*
Y132899D01*
X695400Y128901D02*
X696733D01*
X696067D01*
Y132899D01*
X695400Y132233D01*
X698733Y132899D02*
X701398D01*
Y132233D01*
X698733Y129567D01*
Y128901D01*
X691000Y204599D02*
Y201267D01*
X691666Y200600D01*
X692999D01*
X693666Y201267D01*
Y204599D01*
X694999Y200600D02*
X696332D01*
X695665D01*
Y204599D01*
X694999Y203932D01*
X698331D02*
X698997Y204599D01*
X700330D01*
X700997Y203932D01*
Y203266D01*
X700330Y202599D01*
X700997Y201933D01*
Y201267D01*
X700330Y200600D01*
X698997D01*
X698331Y201267D01*
Y201933D01*
X698997Y202599D01*
X698331Y203266D01*
Y203932D01*
X698997Y202599D02*
X700330D01*
X551000Y204599D02*
Y201267D01*
X551666Y200600D01*
X552999D01*
X553666Y201267D01*
Y204599D01*
X557664Y200600D02*
X554999D01*
X557664Y203266D01*
Y203932D01*
X556998Y204599D01*
X555665D01*
X554999Y203932D01*
X558997D02*
X559664Y204599D01*
X560997D01*
X561663Y203932D01*
Y201267D01*
X560997Y200600D01*
X559664D01*
X558997Y201267D01*
Y203932D01*
X551035Y132899D02*
Y129567D01*
X551701Y128901D01*
X553034D01*
X553701Y129567D01*
Y132899D01*
X557699Y128901D02*
X555034D01*
X557699Y131567D01*
Y132233D01*
X557033Y132899D01*
X555700D01*
X555034Y132233D01*
X559032Y128901D02*
X560365D01*
X559699D01*
Y132899D01*
X559032Y132233D01*
X621000Y204599D02*
Y201267D01*
X621666Y200600D01*
X622999D01*
X623666Y201267D01*
Y204599D01*
X627665Y200600D02*
X624999D01*
X627665Y203266D01*
Y203932D01*
X626998Y204599D01*
X625665D01*
X624999Y203932D01*
X631663Y200600D02*
X628997D01*
X631663Y203266D01*
Y203932D01*
X630997Y204599D01*
X629664D01*
X628997Y203932D01*
X376734Y284333D02*
X376068Y284999D01*
X374735D01*
X374068Y284333D01*
Y281667D01*
X374735Y281001D01*
X376068D01*
X376734Y281667D01*
X378067Y284999D02*
X380733D01*
Y284333D01*
X378067Y281667D01*
Y281001D01*
X382066Y284333D02*
X382732Y284999D01*
X384065D01*
X384732Y284333D01*
Y281667D01*
X384065Y281001D01*
X382732D01*
X382066Y281667D01*
Y284333D01*
X327967Y232301D02*
X327301Y231634D01*
Y230301D01*
X327967Y229635D01*
X330633D01*
X331299Y230301D01*
Y231634D01*
X330633Y232301D01*
X327301Y233634D02*
Y236299D01*
X327967D01*
X330633Y233634D01*
X331299D01*
Y237632D02*
Y238965D01*
Y238299D01*
X327301D01*
X327967Y237632D01*
X159366Y246132D02*
X158699Y246799D01*
X157367D01*
X156700Y246132D01*
Y243466D01*
X157367Y242800D01*
X158699D01*
X159366Y243466D01*
X160699Y246799D02*
X163365D01*
Y246132D01*
X160699Y243466D01*
Y242800D01*
X164697Y246132D02*
X165364Y246799D01*
X166697D01*
X167363Y246132D01*
Y245466D01*
X166697Y244799D01*
X166030D01*
X166697D01*
X167363Y244133D01*
Y243466D01*
X166697Y242800D01*
X165364D01*
X164697Y243466D01*
X114366Y246132D02*
X113699Y246799D01*
X112366D01*
X111700Y246132D01*
Y243466D01*
X112366Y242800D01*
X113699D01*
X114366Y243466D01*
X115699Y246799D02*
X118365D01*
Y246132D01*
X115699Y243466D01*
Y242800D01*
X121697D02*
Y246799D01*
X119697Y244799D01*
X122363D01*
X381035Y254201D02*
Y258199D01*
X383034D01*
X383701Y257533D01*
Y256200D01*
X383034Y255534D01*
X381035D01*
X382368D02*
X383701Y254201D01*
X387033D02*
Y258199D01*
X385034Y256200D01*
X387699D01*
X389032Y254201D02*
X390365D01*
X389699D01*
Y258199D01*
X389032Y257533D01*
X355299Y229168D02*
X351301D01*
Y231168D01*
X351967Y231834D01*
X353300D01*
X353966Y231168D01*
Y229168D01*
Y230501D02*
X355299Y231834D01*
Y235166D02*
X351301D01*
X353300Y233167D01*
Y235833D01*
X355299Y239832D02*
Y237166D01*
X352634Y239832D01*
X351967D01*
X351301Y239165D01*
Y237832D01*
X351967Y237166D01*
X135700Y246499D02*
Y243166D01*
X136366Y242500D01*
X137699D01*
X138366Y243166D01*
Y246499D01*
X142365Y242500D02*
X139699D01*
X142365Y245166D01*
Y245832D01*
X141698Y246499D01*
X140365D01*
X139699Y245832D01*
X146363Y246499D02*
X145030Y245832D01*
X143697Y244499D01*
Y243166D01*
X144364Y242500D01*
X145697D01*
X146363Y243166D01*
Y243833D01*
X145697Y244499D01*
X143697D01*
X90700Y246499D02*
Y243166D01*
X91366Y242500D01*
X92699D01*
X93366Y243166D01*
Y246499D01*
X97364Y242500D02*
X94699D01*
X97364Y245166D01*
Y245832D01*
X96698Y246499D01*
X95365D01*
X94699Y245832D01*
X98697Y246499D02*
X101363D01*
Y245832D01*
X98697Y243166D01*
Y242500D01*
X288899Y395368D02*
X284901D01*
Y397368D01*
X285567Y398034D01*
X286900D01*
X287566Y397368D01*
Y395368D01*
Y396701D02*
X288899Y398034D01*
Y401366D02*
X284901D01*
X286900Y399367D01*
Y402033D01*
X285567Y403366D02*
X284901Y404032D01*
Y405365D01*
X285567Y406032D01*
X286234D01*
X286900Y405365D01*
X287566Y406032D01*
X288233D01*
X288899Y405365D01*
Y404032D01*
X288233Y403366D01*
X287566D01*
X286900Y404032D01*
X286234Y403366D01*
X285567D01*
X286900Y404032D02*
Y405365D01*
X261799Y409468D02*
X257801D01*
Y411468D01*
X258467Y412134D01*
X259800D01*
X260466Y411468D01*
Y409468D01*
Y410801D02*
X261799Y412134D01*
X257801Y416133D02*
Y413467D01*
X259800D01*
X259134Y414800D01*
Y415466D01*
X259800Y416133D01*
X261133D01*
X261799Y415466D01*
Y414134D01*
X261133Y413467D01*
X258467Y417466D02*
X257801Y418132D01*
Y419465D01*
X258467Y420132D01*
X261133D01*
X261799Y419465D01*
Y418132D01*
X261133Y417466D01*
X258467D01*
D18*
X346735Y373800D02*
X350067Y377132D01*
Y373800D02*
X346735Y377132D01*
X348401Y373800D02*
Y377132D01*
X350067Y375466D02*
X346735D01*
X552135Y460525D02*
X555467Y463857D01*
Y460525D02*
X552135Y463857D01*
X553801Y460525D02*
Y463857D01*
X555467Y462191D02*
X552135D01*
X370350Y384789D02*
X373682Y381457D01*
X370350D02*
X373682Y384789D01*
X370350Y383123D02*
X373682D01*
X372016Y381457D02*
Y384789D01*
X294555Y451400D02*
X291223Y448068D01*
Y451400D02*
X294555Y448068D01*
X292889Y451400D02*
Y448068D01*
X291223Y449734D02*
X294555D01*
X821022Y159950D02*
X817690Y156618D01*
Y159950D02*
X821022Y156618D01*
X819356Y159950D02*
Y156618D01*
X817690Y158284D02*
X821022D01*
X598300Y464781D02*
X601632Y461449D01*
X598300D02*
X601632Y464781D01*
X598300Y463115D02*
X601632D01*
X599966Y461449D02*
Y464781D01*
X804075Y64904D02*
X807407Y61572D01*
X804075D02*
X807407Y64904D01*
X804075Y63238D02*
X807407D01*
X805741Y61572D02*
Y64904D01*
X326300Y211185D02*
X322968Y214517D01*
X326300D02*
X322968Y211185D01*
X326300Y212851D02*
X322968D01*
X324634Y214517D02*
Y211185D01*
X171218Y430021D02*
X167885Y433354D01*
X171218D02*
X167885Y430021D01*
X171218Y431687D02*
X167885D01*
X169551Y433354D02*
Y430021D01*
X404075Y198904D02*
X407407Y195572D01*
X404075D02*
X407407Y198904D01*
X404075Y197238D02*
X407407D01*
X405741Y195572D02*
Y198904D01*
X691904Y281925D02*
X688572Y278593D01*
Y281925D02*
X691904Y278593D01*
X690238Y281925D02*
Y278593D01*
X688572Y280259D02*
X691904D01*
X814022Y281950D02*
X810690Y278618D01*
Y281950D02*
X814022Y278618D01*
X812356Y281950D02*
Y278618D01*
X810690Y280284D02*
X814022D01*
D19*
X316734Y427700D02*
Y429700D01*
X317734D01*
X318067Y429366D01*
Y428700D01*
X317734Y428367D01*
X316734D01*
X317401D02*
X318067Y427700D01*
X319733D02*
Y429700D01*
X318734Y428700D01*
X320066D01*
X322066Y429700D02*
X320733D01*
Y428700D01*
X321399Y429033D01*
X321733D01*
X322066Y428700D01*
Y428034D01*
X321733Y427700D01*
X321066D01*
X320733Y428034D01*
X305234Y435400D02*
Y437400D01*
X306234D01*
X306567Y437067D01*
Y436400D01*
X306234Y436067D01*
X305234D01*
X305901D02*
X306567Y435400D01*
X308233D02*
Y437400D01*
X307234Y436400D01*
X308566D01*
X310233Y435400D02*
Y437400D01*
X309233Y436400D01*
X310566D01*
X405134Y344866D02*
X404801Y345200D01*
X404134D01*
X403801Y344866D01*
Y343534D01*
X404134Y343200D01*
X404801D01*
X405134Y343534D01*
X405800Y343200D02*
X406467D01*
X406133D01*
Y345200D01*
X405800Y344866D01*
X407466Y345200D02*
X408799D01*
Y344866D01*
X407466Y343534D01*
Y343200D01*
X547367Y459400D02*
Y461400D01*
X548367D01*
X548700Y461066D01*
Y460400D01*
X548367Y460067D01*
X547367D01*
X548034D02*
X548700Y459400D01*
X550700D02*
X549367D01*
X550700Y460733D01*
Y461066D01*
X550366Y461400D01*
X549700D01*
X549367Y461066D01*
X551366Y459400D02*
X552033D01*
X551699D01*
Y461400D01*
X551366Y461066D01*
X304068Y443600D02*
Y441600D01*
X305401D01*
X307400Y443600D02*
X306067D01*
Y441600D01*
X307400D01*
X306067Y442600D02*
X306734D01*
X308066Y443600D02*
Y441600D01*
X309066D01*
X309399Y441934D01*
Y443266D01*
X309066Y443600D01*
X308066D01*
X310066Y441600D02*
X310732D01*
X310399D01*
Y443600D01*
X310066Y443266D01*
M02*
