G04*
G04 #@! TF.GenerationSoftware,Altium Limited,Altium Designer,25.1.2 (22)*
G04*
G04 Layer_Color=2752767*
%FSLAX25Y25*%
%MOIN*%
G70*
G04*
G04 #@! TF.SameCoordinates,8E005385-37C7-4AF7-BD02-3189F887F830*
G04*
G04*
G04 #@! TF.FilePolarity,Positive*
G04*
G01*
G75*
%ADD13C,0.00500*%
%ADD19C,0.00400*%
%ADD130C,0.00667*%
D13*
X222132Y414665D02*
X221299Y415498D01*
X219633D01*
X218800Y414665D01*
Y411333D01*
X219633Y410500D01*
X221299D01*
X222132Y411333D01*
Y412999D01*
X220466D01*
X222132Y394665D02*
X221299Y395498D01*
X219633D01*
X218800Y394665D01*
Y391333D01*
X219633Y390500D01*
X221299D01*
X222132Y391333D01*
Y392999D01*
X220466D01*
X640000Y79000D02*
X641000D01*
X642000Y80000D01*
X643000Y79000D01*
X644000D01*
Y80000D01*
X643000Y81000D01*
X644000Y82000D01*
Y83000D01*
X643000D01*
X642000Y82000D01*
X641000Y83000D01*
X640000D01*
Y82000D01*
X641000Y81000D01*
X640000Y80000D01*
Y79000D01*
X640800Y79800D02*
X641400D01*
X642000Y80400D01*
X642600Y79800D01*
X643200D01*
Y80400D01*
X642600Y81000D01*
X643200Y81600D01*
Y82200D01*
X642600D01*
X642000Y81600D01*
X641400Y82200D01*
X640800D01*
Y81600D01*
X641400Y81000D01*
X640800Y80400D01*
Y79800D01*
X630000Y104000D02*
X631000D01*
X632000Y105000D01*
X633000Y104000D01*
X634000D01*
Y105000D01*
X633000Y106000D01*
X634000Y107000D01*
Y108000D01*
X633000D01*
X632000Y107000D01*
X631000Y108000D01*
X630000D01*
Y107000D01*
X631000Y106000D01*
X630000Y105000D01*
Y104000D01*
X630800Y104800D02*
X631400D01*
X632000Y105400D01*
X632600Y104800D01*
X633200D01*
Y105400D01*
X632600Y106000D01*
X633200Y106600D01*
Y107200D01*
X632600D01*
X632000Y106600D01*
X631400Y107200D01*
X630800D01*
Y106600D01*
X631400Y106000D01*
X630800Y105400D01*
Y104800D01*
X650000Y94000D02*
X651000D01*
X652000Y95000D01*
X653000Y94000D01*
X654000D01*
Y95000D01*
X653000Y96000D01*
X654000Y97000D01*
Y98000D01*
X653000D01*
X652000Y97000D01*
X651000Y98000D01*
X650000D01*
Y97000D01*
X651000Y96000D01*
X650000Y95000D01*
Y94000D01*
X651000Y75000D02*
Y74000D01*
X653000D01*
Y75000D01*
X654000D01*
Y77000D01*
X653000D01*
Y78000D01*
X651000D01*
Y77000D01*
X650000D01*
Y75000D01*
X651000D01*
Y115000D02*
Y114000D01*
X653000D01*
Y115000D01*
X654000D01*
Y117000D01*
X653000D01*
Y118000D01*
X651000D01*
Y117000D01*
X650000D01*
Y115000D01*
X651000D01*
X769014Y296743D02*
X771014Y298743D01*
X773014Y296743D01*
X771014Y294743D01*
X769014Y296743D01*
X782794D02*
X784794Y298743D01*
X786794Y296743D01*
X784794Y294743D01*
X782794Y296743D01*
X769014Y468003D02*
X771014Y470003D01*
X773014Y468003D01*
X771014Y466003D01*
X769014Y468003D01*
X759172Y315806D02*
Y319806D01*
X763172D01*
Y315806D01*
X759172D01*
X759972Y316606D02*
Y319006D01*
X762372D01*
Y316606D01*
X759972D01*
X792636Y311082D02*
Y315082D01*
X796636D01*
Y311082D01*
X792636D01*
X793436Y311882D02*
Y314282D01*
X795836D01*
Y311882D01*
X793436D01*
X792636Y449664D02*
Y453664D01*
X796636D01*
Y449664D01*
X792636D01*
X793436Y450464D02*
Y452865D01*
X795836D01*
Y450464D01*
X793436D01*
X759172Y444940D02*
Y448940D01*
X763172D01*
Y444940D01*
X759172D01*
X759972Y445740D02*
Y448140D01*
X762372D01*
Y445740D01*
X759972D01*
X589046Y449304D02*
Y453304D01*
X593046D01*
Y449304D01*
X589046D01*
X607550Y461116D02*
Y465116D01*
X611550D01*
Y461116D01*
X607550D01*
X355132Y429098D02*
X351800D01*
Y426599D01*
X353466D01*
X351800D01*
Y424100D01*
X345132Y429098D02*
X341800D01*
Y426599D01*
X343466D01*
X341800D01*
Y424100D01*
X335132Y429098D02*
X331800D01*
Y426599D01*
X333466D01*
X331800D01*
Y424100D01*
X325132Y429098D02*
X321800D01*
Y426599D01*
X323466D01*
X321800D01*
Y424100D01*
X325132Y459098D02*
X321800D01*
Y456599D01*
X323466D01*
X321800D01*
Y454100D01*
X335132Y459098D02*
X331800D01*
Y456599D01*
X333466D01*
X331800D01*
Y454100D01*
X345132Y459098D02*
X341800D01*
Y456599D01*
X343466D01*
X341800D01*
Y454100D01*
X355132Y459098D02*
X351800D01*
Y456599D01*
X353466D01*
X351800D01*
Y454100D01*
X69159Y268890D02*
X68326Y269723D01*
X66660D01*
X65827Y268890D01*
Y265558D01*
X66660Y264724D01*
X68326D01*
X69159Y265558D01*
Y359441D02*
X68326Y360274D01*
X66660D01*
X65827Y359441D01*
Y356109D01*
X66660Y355276D01*
X68326D01*
X69159Y356109D01*
X297505Y268890D02*
X296672Y269723D01*
X295006D01*
X294173Y268890D01*
Y265558D01*
X295006Y264724D01*
X296672D01*
X297505Y265558D01*
Y359441D02*
X296672Y360274D01*
X295006D01*
X294173Y359441D01*
Y356109D01*
X295006Y355276D01*
X296672D01*
X297505Y356109D01*
X85000Y264723D02*
Y259724D01*
X87499D01*
X88332Y260558D01*
Y261390D01*
X87499Y262224D01*
X85000D01*
X87499D01*
X88332Y263057D01*
Y263890D01*
X87499Y264723D01*
X85000D01*
Y274723D02*
Y269724D01*
X87499D01*
X88332Y270557D01*
Y271391D01*
X87499Y272224D01*
X85000D01*
X87499D01*
X88332Y273057D01*
Y273890D01*
X87499Y274723D01*
X85000D01*
X95000Y264723D02*
Y259724D01*
X97499D01*
X98332Y260558D01*
Y261390D01*
X97499Y262224D01*
X95000D01*
X97499D01*
X98332Y263057D01*
Y263890D01*
X97499Y264723D01*
X95000D01*
Y274723D02*
Y269724D01*
X97499D01*
X98332Y270557D01*
Y271391D01*
X97499Y272224D01*
X95000D01*
X97499D01*
X98332Y273057D01*
Y273890D01*
X97499Y274723D01*
X95000D01*
X105000Y264723D02*
Y259724D01*
X107499D01*
X108332Y260558D01*
Y261390D01*
X107499Y262224D01*
X105000D01*
X107499D01*
X108332Y263057D01*
Y263890D01*
X107499Y264723D01*
X105000D01*
Y274723D02*
Y269724D01*
X107499D01*
X108332Y270557D01*
Y271391D01*
X107499Y272224D01*
X105000D01*
X107499D01*
X108332Y273057D01*
Y273890D01*
X107499Y274723D01*
X105000D01*
X115000Y264723D02*
Y259724D01*
X117499D01*
X118332Y260558D01*
Y261390D01*
X117499Y262224D01*
X115000D01*
X117499D01*
X118332Y263057D01*
Y263890D01*
X117499Y264723D01*
X115000D01*
Y274723D02*
Y269724D01*
X117499D01*
X118332Y270557D01*
Y271391D01*
X117499Y272224D01*
X115000D01*
X117499D01*
X118332Y273057D01*
Y273890D01*
X117499Y274723D01*
X115000D01*
X125000Y264723D02*
Y259724D01*
X127499D01*
X128332Y260558D01*
Y261390D01*
X127499Y262224D01*
X125000D01*
X127499D01*
X128332Y263057D01*
Y263890D01*
X127499Y264723D01*
X125000D01*
Y274723D02*
Y269724D01*
X127499D01*
X128332Y270557D01*
Y271391D01*
X127499Y272224D01*
X125000D01*
X127499D01*
X128332Y273057D01*
Y273890D01*
X127499Y274723D01*
X125000D01*
X135000Y264723D02*
Y259724D01*
X137499D01*
X138332Y260558D01*
Y261390D01*
X137499Y262224D01*
X135000D01*
X137499D01*
X138332Y263057D01*
Y263890D01*
X137499Y264723D01*
X135000D01*
Y274723D02*
Y269724D01*
X137499D01*
X138332Y270557D01*
Y271391D01*
X137499Y272224D01*
X135000D01*
X137499D01*
X138332Y273057D01*
Y273890D01*
X137499Y274723D01*
X135000D01*
X145000Y264723D02*
Y259724D01*
X147499D01*
X148332Y260558D01*
Y261390D01*
X147499Y262224D01*
X145000D01*
X147499D01*
X148332Y263057D01*
Y263890D01*
X147499Y264723D01*
X145000D01*
Y274723D02*
Y269724D01*
X147499D01*
X148332Y270557D01*
Y271391D01*
X147499Y272224D01*
X145000D01*
X147499D01*
X148332Y273057D01*
Y273890D01*
X147499Y274723D01*
X145000D01*
X155000Y264723D02*
Y259724D01*
X157499D01*
X158332Y260558D01*
Y261390D01*
X157499Y262224D01*
X155000D01*
X157499D01*
X158332Y263057D01*
Y263890D01*
X157499Y264723D01*
X155000D01*
Y274723D02*
Y269724D01*
X157499D01*
X158332Y270557D01*
Y271391D01*
X157499Y272224D01*
X155000D01*
X157499D01*
X158332Y273057D01*
Y273890D01*
X157499Y274723D01*
X155000D01*
X165000Y264723D02*
Y259724D01*
X167499D01*
X168332Y260558D01*
Y261390D01*
X167499Y262224D01*
X165000D01*
X167499D01*
X168332Y263057D01*
Y263890D01*
X167499Y264723D01*
X165000D01*
Y274723D02*
Y269724D01*
X167499D01*
X168332Y270557D01*
Y271391D01*
X167499Y272224D01*
X165000D01*
X167499D01*
X168332Y273057D01*
Y273890D01*
X167499Y274723D01*
X165000D01*
X175000Y264723D02*
Y259724D01*
X177499D01*
X178332Y260558D01*
Y261390D01*
X177499Y262224D01*
X175000D01*
X177499D01*
X178332Y263057D01*
Y263890D01*
X177499Y264723D01*
X175000D01*
Y274723D02*
Y269724D01*
X177499D01*
X178332Y270557D01*
Y271391D01*
X177499Y272224D01*
X175000D01*
X177499D01*
X178332Y273057D01*
Y273890D01*
X177499Y274723D01*
X175000D01*
X185000Y264723D02*
Y259724D01*
X187499D01*
X188332Y260558D01*
Y261390D01*
X187499Y262224D01*
X185000D01*
X187499D01*
X188332Y263057D01*
Y263890D01*
X187499Y264723D01*
X185000D01*
Y274723D02*
Y269724D01*
X187499D01*
X188332Y270557D01*
Y271391D01*
X187499Y272224D01*
X185000D01*
X187499D01*
X188332Y273057D01*
Y273890D01*
X187499Y274723D01*
X185000D01*
X195000Y264723D02*
Y259724D01*
X197499D01*
X198332Y260558D01*
Y261390D01*
X197499Y262224D01*
X195000D01*
X197499D01*
X198332Y263057D01*
Y263890D01*
X197499Y264723D01*
X195000D01*
Y274723D02*
Y269724D01*
X197499D01*
X198332Y270557D01*
Y271391D01*
X197499Y272224D01*
X195000D01*
X197499D01*
X198332Y273057D01*
Y273890D01*
X197499Y274723D01*
X195000D01*
X205000Y264723D02*
Y259724D01*
X207499D01*
X208332Y260558D01*
Y261390D01*
X207499Y262224D01*
X205000D01*
X207499D01*
X208332Y263057D01*
Y263890D01*
X207499Y264723D01*
X205000D01*
Y274723D02*
Y269724D01*
X207499D01*
X208332Y270557D01*
Y271391D01*
X207499Y272224D01*
X205000D01*
X207499D01*
X208332Y273057D01*
Y273890D01*
X207499Y274723D01*
X205000D01*
X215000Y264723D02*
Y259724D01*
X217499D01*
X218332Y260558D01*
Y261390D01*
X217499Y262224D01*
X215000D01*
X217499D01*
X218332Y263057D01*
Y263890D01*
X217499Y264723D01*
X215000D01*
Y274723D02*
Y269724D01*
X217499D01*
X218332Y270557D01*
Y271391D01*
X217499Y272224D01*
X215000D01*
X217499D01*
X218332Y273057D01*
Y273890D01*
X217499Y274723D01*
X215000D01*
X225000Y264723D02*
Y259724D01*
X227499D01*
X228332Y260558D01*
Y261390D01*
X227499Y262224D01*
X225000D01*
X227499D01*
X228332Y263057D01*
Y263890D01*
X227499Y264723D01*
X225000D01*
Y274723D02*
Y269724D01*
X227499D01*
X228332Y270557D01*
Y271391D01*
X227499Y272224D01*
X225000D01*
X227499D01*
X228332Y273057D01*
Y273890D01*
X227499Y274723D01*
X225000D01*
X235000Y264723D02*
Y259724D01*
X237499D01*
X238332Y260558D01*
Y261390D01*
X237499Y262224D01*
X235000D01*
X237499D01*
X238332Y263057D01*
Y263890D01*
X237499Y264723D01*
X235000D01*
Y274723D02*
Y269724D01*
X237499D01*
X238332Y270557D01*
Y271391D01*
X237499Y272224D01*
X235000D01*
X237499D01*
X238332Y273057D01*
Y273890D01*
X237499Y274723D01*
X235000D01*
X245000Y264723D02*
Y259724D01*
X247499D01*
X248332Y260558D01*
Y261390D01*
X247499Y262224D01*
X245000D01*
X247499D01*
X248332Y263057D01*
Y263890D01*
X247499Y264723D01*
X245000D01*
Y274723D02*
Y269724D01*
X247499D01*
X248332Y270557D01*
Y271391D01*
X247499Y272224D01*
X245000D01*
X247499D01*
X248332Y273057D01*
Y273890D01*
X247499Y274723D01*
X245000D01*
X255000Y264723D02*
Y259724D01*
X257499D01*
X258332Y260558D01*
Y261390D01*
X257499Y262224D01*
X255000D01*
X257499D01*
X258332Y263057D01*
Y263890D01*
X257499Y264723D01*
X255000D01*
Y274723D02*
Y269724D01*
X257499D01*
X258332Y270557D01*
Y271391D01*
X257499Y272224D01*
X255000D01*
X257499D01*
X258332Y273057D01*
Y273890D01*
X257499Y274723D01*
X255000D01*
X265000Y264723D02*
Y259724D01*
X267499D01*
X268332Y260558D01*
Y261390D01*
X267499Y262224D01*
X265000D01*
X267499D01*
X268332Y263057D01*
Y263890D01*
X267499Y264723D01*
X265000D01*
Y274723D02*
Y269724D01*
X267499D01*
X268332Y270557D01*
Y271391D01*
X267499Y272224D01*
X265000D01*
X267499D01*
X268332Y273057D01*
Y273890D01*
X267499Y274723D01*
X265000D01*
X275000Y264723D02*
Y259724D01*
X277499D01*
X278332Y260558D01*
Y261390D01*
X277499Y262224D01*
X275000D01*
X277499D01*
X278332Y263057D01*
Y263890D01*
X277499Y264723D01*
X275000D01*
Y274723D02*
Y269724D01*
X277499D01*
X278332Y270557D01*
Y271391D01*
X277499Y272224D01*
X275000D01*
X277499D01*
X278332Y273057D01*
Y273890D01*
X277499Y274723D01*
X275000D01*
X541000Y364000D02*
X542000D01*
X543000Y365000D01*
X544000Y364000D01*
X545000D01*
Y365000D01*
X544000Y366000D01*
X545000Y367000D01*
Y368000D01*
X544000D01*
X543000Y367000D01*
X542000Y368000D01*
X541000D01*
Y367000D01*
X542000Y366000D01*
X541000Y365000D01*
Y364000D01*
X541800Y364800D02*
X542400D01*
X543000Y365400D01*
X543600Y364800D01*
X544200D01*
Y365400D01*
X543600Y366000D01*
X544200Y366600D01*
Y367200D01*
X543600D01*
X543000Y366600D01*
X542400Y367200D01*
X541800D01*
Y366600D01*
X542400Y366000D01*
X541800Y365400D01*
Y364800D01*
X551000Y339000D02*
X552000D01*
X553000Y340000D01*
X554000Y339000D01*
X555000D01*
Y340000D01*
X554000Y341000D01*
X555000Y342000D01*
Y343000D01*
X554000D01*
X553000Y342000D01*
X552000Y343000D01*
X551000D01*
Y342000D01*
X552000Y341000D01*
X551000Y340000D01*
Y339000D01*
X551800Y339800D02*
X552400D01*
X553000Y340400D01*
X553600Y339800D01*
X554200D01*
Y340400D01*
X553600Y341000D01*
X554200Y341600D01*
Y342200D01*
X553600D01*
X553000Y341600D01*
X552400Y342200D01*
X551800D01*
Y341600D01*
X552400Y341000D01*
X551800Y340400D01*
Y339800D01*
X531000Y349000D02*
X532000D01*
X533000Y350000D01*
X534000Y349000D01*
X535000D01*
Y350000D01*
X534000Y351000D01*
X535000Y352000D01*
Y353000D01*
X534000D01*
X533000Y352000D01*
X532000Y353000D01*
X531000D01*
Y352000D01*
X532000Y351000D01*
X531000Y350000D01*
Y349000D01*
X532000Y370000D02*
Y369000D01*
X534000D01*
Y370000D01*
X535000D01*
Y372000D01*
X534000D01*
Y373000D01*
X532000D01*
Y372000D01*
X531000D01*
Y370000D01*
X532000D01*
Y330000D02*
Y329000D01*
X534000D01*
Y330000D01*
X535000D01*
Y332000D01*
X534000D01*
Y333000D01*
X532000D01*
Y332000D01*
X531000D01*
Y330000D01*
X532000D01*
X541000Y292100D02*
X542000D01*
X543000Y293100D01*
X544000Y292100D01*
X545000D01*
Y293100D01*
X544000Y294100D01*
X545000Y295100D01*
Y296100D01*
X544000D01*
X543000Y295100D01*
X542000Y296100D01*
X541000D01*
Y295100D01*
X542000Y294100D01*
X541000Y293100D01*
Y292100D01*
X541800Y292900D02*
X542400D01*
X543000Y293500D01*
X543600Y292900D01*
X544200D01*
Y293500D01*
X543600Y294100D01*
X544200Y294700D01*
Y295300D01*
X543600D01*
X543000Y294700D01*
X542400Y295300D01*
X541800D01*
Y294700D01*
X542400Y294100D01*
X541800Y293500D01*
Y292900D01*
X551000Y267100D02*
X552000D01*
X553000Y268100D01*
X554000Y267100D01*
X555000D01*
Y268100D01*
X554000Y269100D01*
X555000Y270100D01*
Y271100D01*
X554000D01*
X553000Y270100D01*
X552000Y271100D01*
X551000D01*
Y270100D01*
X552000Y269100D01*
X551000Y268100D01*
Y267100D01*
X551800Y267900D02*
X552400D01*
X553000Y268500D01*
X553600Y267900D01*
X554200D01*
Y268500D01*
X553600Y269100D01*
X554200Y269700D01*
Y270300D01*
X553600D01*
X553000Y269700D01*
X552400Y270300D01*
X551800D01*
Y269700D01*
X552400Y269100D01*
X551800Y268500D01*
Y267900D01*
X531000Y277100D02*
X532000D01*
X533000Y278100D01*
X534000Y277100D01*
X535000D01*
Y278100D01*
X534000Y279100D01*
X535000Y280100D01*
Y281100D01*
X534000D01*
X533000Y280100D01*
X532000Y281100D01*
X531000D01*
Y280100D01*
X532000Y279100D01*
X531000Y278100D01*
Y277100D01*
X532000Y298100D02*
Y297100D01*
X534000D01*
Y298100D01*
X535000D01*
Y300100D01*
X534000D01*
Y301100D01*
X532000D01*
Y300100D01*
X531000D01*
Y298100D01*
X532000D01*
Y258100D02*
Y257100D01*
X534000D01*
Y258100D01*
X535000D01*
Y260100D01*
X534000D01*
Y261100D01*
X532000D01*
Y260100D01*
X531000D01*
Y258100D01*
X532000D01*
X613300Y292100D02*
X614300D01*
X615300Y293100D01*
X616300Y292100D01*
X617300D01*
Y293100D01*
X616300Y294100D01*
X617300Y295100D01*
Y296100D01*
X616300D01*
X615300Y295100D01*
X614300Y296100D01*
X613300D01*
Y295100D01*
X614300Y294100D01*
X613300Y293100D01*
Y292100D01*
X614100Y292900D02*
X614700D01*
X615300Y293500D01*
X615900Y292900D01*
X616500D01*
Y293500D01*
X615900Y294100D01*
X616500Y294700D01*
Y295300D01*
X615900D01*
X615300Y294700D01*
X614700Y295300D01*
X614100D01*
Y294700D01*
X614700Y294100D01*
X614100Y293500D01*
Y292900D01*
X623300Y267100D02*
X624300D01*
X625300Y268100D01*
X626300Y267100D01*
X627300D01*
Y268100D01*
X626300Y269100D01*
X627300Y270100D01*
Y271100D01*
X626300D01*
X625300Y270100D01*
X624300Y271100D01*
X623300D01*
Y270100D01*
X624300Y269100D01*
X623300Y268100D01*
Y267100D01*
X624100Y267900D02*
X624700D01*
X625300Y268500D01*
X625900Y267900D01*
X626500D01*
Y268500D01*
X625900Y269100D01*
X626500Y269700D01*
Y270300D01*
X625900D01*
X625300Y269700D01*
X624700Y270300D01*
X624100D01*
Y269700D01*
X624700Y269100D01*
X624100Y268500D01*
Y267900D01*
X603300Y277100D02*
X604300D01*
X605300Y278100D01*
X606300Y277100D01*
X607300D01*
Y278100D01*
X606300Y279100D01*
X607300Y280100D01*
Y281100D01*
X606300D01*
X605300Y280100D01*
X604300Y281100D01*
X603300D01*
Y280100D01*
X604300Y279100D01*
X603300Y278100D01*
Y277100D01*
X604300Y298100D02*
Y297100D01*
X606300D01*
Y298100D01*
X607300D01*
Y300100D01*
X606300D01*
Y301100D01*
X604300D01*
Y300100D01*
X603300D01*
Y298100D01*
X604300D01*
Y258100D02*
Y257100D01*
X606300D01*
Y258100D01*
X607300D01*
Y260100D01*
X606300D01*
Y261100D01*
X604300D01*
Y260100D01*
X603300D01*
Y258100D01*
X604300D01*
X613300Y364000D02*
X614300D01*
X615300Y365000D01*
X616300Y364000D01*
X617300D01*
Y365000D01*
X616300Y366000D01*
X617300Y367000D01*
Y368000D01*
X616300D01*
X615300Y367000D01*
X614300Y368000D01*
X613300D01*
Y367000D01*
X614300Y366000D01*
X613300Y365000D01*
Y364000D01*
X614100Y364800D02*
X614700D01*
X615300Y365400D01*
X615900Y364800D01*
X616500D01*
Y365400D01*
X615900Y366000D01*
X616500Y366600D01*
Y367200D01*
X615900D01*
X615300Y366600D01*
X614700Y367200D01*
X614100D01*
Y366600D01*
X614700Y366000D01*
X614100Y365400D01*
Y364800D01*
X623300Y339000D02*
X624300D01*
X625300Y340000D01*
X626300Y339000D01*
X627300D01*
Y340000D01*
X626300Y341000D01*
X627300Y342000D01*
Y343000D01*
X626300D01*
X625300Y342000D01*
X624300Y343000D01*
X623300D01*
Y342000D01*
X624300Y341000D01*
X623300Y340000D01*
Y339000D01*
X624100Y339800D02*
X624700D01*
X625300Y340400D01*
X625900Y339800D01*
X626500D01*
Y340400D01*
X625900Y341000D01*
X626500Y341600D01*
Y342200D01*
X625900D01*
X625300Y341600D01*
X624700Y342200D01*
X624100D01*
Y341600D01*
X624700Y341000D01*
X624100Y340400D01*
Y339800D01*
X603300Y349000D02*
X604300D01*
X605300Y350000D01*
X606300Y349000D01*
X607300D01*
Y350000D01*
X606300Y351000D01*
X607300Y352000D01*
Y353000D01*
X606300D01*
X605300Y352000D01*
X604300Y353000D01*
X603300D01*
Y352000D01*
X604300Y351000D01*
X603300Y350000D01*
Y349000D01*
X604300Y370000D02*
Y369000D01*
X606300D01*
Y370000D01*
X607300D01*
Y372000D01*
X606300D01*
Y373000D01*
X604300D01*
Y372000D01*
X603300D01*
Y370000D01*
X604300D01*
Y330000D02*
Y329000D01*
X606300D01*
Y330000D01*
X607300D01*
Y332000D01*
X606300D01*
Y333000D01*
X604300D01*
Y332000D01*
X603300D01*
Y330000D01*
X604300D01*
X118322Y428309D02*
X119322Y430309D01*
X118322Y432309D01*
X120322Y431309D01*
X122322Y432309D01*
X121322Y430309D01*
X122322Y428309D01*
X120322Y429309D01*
X118322Y428309D01*
X170054D02*
X171054Y430309D01*
X170054Y432309D01*
X172054Y431309D01*
X174054Y432309D01*
X173054Y430309D01*
X174054Y428309D01*
X172054Y429309D01*
X170054Y428309D01*
X118322Y450671D02*
X119322Y452671D01*
X118322Y454671D01*
X120322Y453671D01*
X122322Y454671D01*
X121322Y452671D01*
X122322Y450671D01*
X120322Y451671D01*
X118322Y450671D01*
X170054D02*
X171054Y452671D01*
X170054Y454671D01*
X172054Y453671D01*
X174054Y454671D01*
X173054Y452671D01*
X174054Y450671D01*
X172054Y451671D01*
X170054Y450671D01*
X132408Y440356D02*
X133408Y441356D01*
X134408D01*
X133408Y442356D01*
X134408Y443356D01*
X133408D01*
X132408Y444356D01*
X131409Y443356D01*
X130409D01*
X131409Y442356D01*
X130409Y441356D01*
X131409D01*
X132408Y440356D01*
X142251D02*
X143251Y441356D01*
X144251D01*
X143251Y442356D01*
X144251Y443356D01*
X143251D01*
X142251Y444356D01*
X141251Y443356D01*
X140251D01*
X141251Y442356D01*
X140251Y441356D01*
X141251D01*
X142251Y440356D01*
X150125D02*
X151125Y441356D01*
X152125D01*
X151125Y442356D01*
X152125Y443356D01*
X151125D01*
X150125Y444356D01*
X149125Y443356D01*
X148125D01*
X149125Y442356D01*
X148125Y441356D01*
X149125D01*
X150125Y440356D01*
X159968D02*
X160968Y441356D01*
X161968D01*
X160968Y442356D01*
X161968Y443356D01*
X160968D01*
X159968Y444356D01*
X158968Y443356D01*
X157968D01*
X158968Y442356D01*
X157968Y441356D01*
X158968D01*
X159968Y440356D01*
X132408Y429687D02*
X133408Y430687D01*
X134408D01*
X133408Y431687D01*
X134408Y432687D01*
X133408D01*
X132408Y433687D01*
X131409Y432687D01*
X130409D01*
X131409Y431687D01*
X130409Y430687D01*
X131409D01*
X132408Y429687D01*
X142251D02*
X143251Y430687D01*
X144251D01*
X143251Y431687D01*
X144251Y432687D01*
X143251D01*
X142251Y433687D01*
X141251Y432687D01*
X140251D01*
X141251Y431687D01*
X140251Y430687D01*
X141251D01*
X142251Y429687D01*
X150125D02*
X151125Y430687D01*
X152125D01*
X151125Y431687D01*
X152125Y432687D01*
X151125D01*
X150125Y433687D01*
X149125Y432687D01*
X148125D01*
X149125Y431687D01*
X148125Y430687D01*
X149125D01*
X150125Y429687D01*
X159968D02*
X160968Y430687D01*
X161968D01*
X160968Y431687D01*
X161968Y432687D01*
X160968D01*
X159968Y433687D01*
X158968Y432687D01*
X157968D01*
X158968Y431687D01*
X157968Y430687D01*
X158968D01*
X159968Y429687D01*
X99000Y434000D02*
Y433000D01*
X101000D01*
Y434000D01*
X102000D01*
Y436000D01*
X101000D01*
Y437000D01*
X99000D01*
Y436000D01*
X98000D01*
Y434000D01*
X99000D01*
X99400Y434400D02*
Y433800D01*
X100600D01*
Y434400D01*
X101200D01*
Y435600D01*
X100600D01*
Y436200D01*
X99400D01*
Y435600D01*
X98800D01*
Y434400D01*
X99400D01*
X89157Y434000D02*
Y433000D01*
X91158D01*
Y434000D01*
X92158D01*
Y436000D01*
X91158D01*
Y437000D01*
X89157D01*
Y436000D01*
X88157D01*
Y434000D01*
X89157D01*
X89557Y434400D02*
Y433800D01*
X90758D01*
Y434400D01*
X91357D01*
Y435600D01*
X90758D01*
Y436200D01*
X89557D01*
Y435600D01*
X88958D01*
Y434400D01*
X89557D01*
X387500Y467500D02*
X385500Y471500D01*
X389500D01*
X387500Y467500D01*
Y468300D02*
X386300Y470700D01*
X388700D01*
X387500Y468300D01*
X364744Y467500D02*
X362744Y471500D01*
X366744D01*
X364744Y467500D01*
Y468300D02*
X363544Y470700D01*
X365944D01*
X364744Y468300D01*
X359114Y481988D02*
X360114Y482988D01*
X361114D01*
X360114Y483988D01*
X361114Y484988D01*
X360114D01*
X359114Y485988D01*
X358114Y484988D01*
X357114D01*
X358114Y483988D01*
X357114Y482988D01*
X358114D01*
X359114Y481988D01*
Y482788D02*
X359714Y483388D01*
X360314D01*
X359714Y483988D01*
X360314Y484588D01*
X359714D01*
X359114Y485188D01*
X358514Y484588D01*
X357914D01*
X358514Y483988D01*
X357914Y483388D01*
X358514D01*
X359114Y482788D01*
X393130Y481988D02*
X394130Y482988D01*
X395130D01*
X394130Y483988D01*
X395130Y484988D01*
X394130D01*
X393130Y485988D01*
X392130Y484988D01*
X391130D01*
X392130Y483988D01*
X391130Y482988D01*
X392130D01*
X393130Y481988D01*
Y482788D02*
X393730Y483388D01*
X394330D01*
X393730Y483988D01*
X394330Y484588D01*
X393730D01*
X393130Y485188D01*
X392530Y484588D01*
X391930D01*
X392530Y483988D01*
X391930Y483388D01*
X392530D01*
X393130Y482788D01*
X357114Y465531D02*
X358114Y467531D01*
X357114Y469531D01*
X359114Y468532D01*
X361114Y469531D01*
X360114Y467531D01*
X361114Y465531D01*
X359114Y466532D01*
X357114Y465531D01*
X357914Y466331D02*
X358514Y467531D01*
X357914Y468731D01*
X359114Y468131D01*
X360314Y468731D01*
X359714Y467531D01*
X360314Y466331D01*
X359114Y466931D01*
X357914Y466331D01*
X391130Y465531D02*
X392130Y467531D01*
X391130Y469531D01*
X393130Y468532D01*
X395130Y469531D01*
X394130Y467531D01*
X395130Y465531D01*
X393130Y466532D01*
X391130Y465531D01*
X391930Y466331D02*
X392530Y467531D01*
X391930Y468731D01*
X393130Y468131D01*
X394330Y468731D01*
X393730Y467531D01*
X394330Y466331D01*
X393130Y466931D01*
X391930Y466331D01*
X355700Y344400D02*
X353700Y348400D01*
X357700D01*
X355700Y344400D01*
Y334400D02*
X353700Y338400D01*
X357700D01*
X355700Y334400D01*
Y324400D02*
X353700Y328400D01*
X357700D01*
X355700Y324400D01*
Y314400D02*
X353700Y318400D01*
X357700D01*
X355700Y314400D01*
X365700Y334400D02*
X363700Y338400D01*
X367700D01*
X365700Y334400D01*
Y324400D02*
X363700Y328400D01*
X367700D01*
X365700Y324400D01*
Y314400D02*
X363700Y318400D01*
X367700D01*
X365700Y314400D01*
X645000Y298000D02*
X643000Y302000D01*
X647000D01*
X645000Y298000D01*
Y308000D02*
X643000Y312000D01*
X647000D01*
X645000Y308000D01*
Y318000D02*
X643000Y322000D01*
X647000D01*
X645000Y318000D01*
Y328000D02*
X643000Y332000D01*
X647000D01*
X645000Y328000D01*
X586200Y396300D02*
X584200Y400300D01*
X588200D01*
X586200Y396300D01*
Y406300D02*
X584200Y410300D01*
X588200D01*
X586200Y406300D01*
Y416300D02*
X584200Y420300D01*
X588200D01*
X586200Y416300D01*
X54000Y233000D02*
X52000Y237000D01*
X56000D01*
X54000Y233000D01*
X44000D02*
X42000Y237000D01*
X46000D01*
X44000Y233000D01*
X707172Y444940D02*
Y448940D01*
X711172D01*
Y444940D01*
X707172D01*
X707972Y445740D02*
Y448140D01*
X710372D01*
Y445740D01*
X707972D01*
X740636Y449664D02*
Y453664D01*
X744636D01*
Y449664D01*
X740636D01*
X741436Y450464D02*
Y452865D01*
X743836D01*
Y450464D01*
X741436D01*
X740636Y311082D02*
Y315082D01*
X744636D01*
Y311082D01*
X740636D01*
X741436Y311882D02*
Y314282D01*
X743836D01*
Y311882D01*
X741436D01*
X707172Y315806D02*
Y319806D01*
X711172D01*
Y315806D01*
X707172D01*
X707972Y316606D02*
Y319006D01*
X710372D01*
Y316606D01*
X707972D01*
X717014Y468003D02*
X719014Y470003D01*
X721014Y468003D01*
X719014Y466003D01*
X717014Y468003D01*
X730794Y296743D02*
X732794Y298743D01*
X734794Y296743D01*
X732794Y294743D01*
X730794Y296743D01*
X717014D02*
X719014Y298743D01*
X721014Y296743D01*
X719014Y294743D01*
X717014Y296743D01*
X570000Y431000D02*
Y430000D01*
X572000D01*
Y431000D01*
X573000D01*
Y433000D01*
X572000D01*
Y434000D01*
X570000D01*
Y433000D01*
X569000D01*
Y431000D01*
X570000D01*
X570400Y431400D02*
Y430800D01*
X571600D01*
Y431400D01*
X572200D01*
Y432600D01*
X571600D01*
Y433200D01*
X570400D01*
Y432600D01*
X569800D01*
Y431400D01*
X570400D01*
X570000Y440842D02*
Y439843D01*
X572000D01*
Y440842D01*
X573000D01*
Y442842D01*
X572000D01*
Y443843D01*
X570000D01*
Y442842D01*
X569000D01*
Y440842D01*
X570000D01*
X570400Y441243D02*
Y440642D01*
X571600D01*
Y441243D01*
X572200D01*
Y442443D01*
X571600D01*
Y443043D01*
X570400D01*
Y442443D01*
X569800D01*
Y441243D01*
X570400D01*
X89157Y464000D02*
Y463000D01*
X91158D01*
Y464000D01*
X92158D01*
Y466000D01*
X91158D01*
Y467000D01*
X89157D01*
Y466000D01*
X88157D01*
Y464000D01*
X89157D01*
X89557Y464400D02*
Y463800D01*
X90758D01*
Y464400D01*
X91357D01*
Y465600D01*
X90758D01*
Y466200D01*
X89557D01*
Y465600D01*
X88958D01*
Y464400D01*
X89557D01*
X99000Y464000D02*
Y463000D01*
X101000D01*
Y464000D01*
X102000D01*
Y466000D01*
X101000D01*
Y467000D01*
X99000D01*
Y466000D01*
X98000D01*
Y464000D01*
X99000D01*
X99400Y464400D02*
Y463800D01*
X100600D01*
Y464400D01*
X101200D01*
Y465600D01*
X100600D01*
Y466200D01*
X99400D01*
Y465600D01*
X98800D01*
Y464400D01*
X99400D01*
X31000Y298100D02*
X29000Y302100D01*
X33000D01*
X31000Y298100D01*
Y308100D02*
X29000Y312100D01*
X33000D01*
X31000Y308100D01*
Y318100D02*
X29000Y322100D01*
X33000D01*
X31000Y318100D01*
Y328100D02*
X29000Y332100D01*
X33000D01*
X31000Y328100D01*
X747000Y229000D02*
X745000Y233000D01*
X749000D01*
X747000Y229000D01*
X757000D02*
X755000Y233000D01*
X759000D01*
X757000Y229000D01*
X767000D02*
X765000Y233000D01*
X769000D01*
X767000Y229000D01*
X777000D02*
X775000Y233000D01*
X779000D01*
X777000Y229000D01*
X510000Y78000D02*
X508000Y82000D01*
X512000D01*
X510000Y78000D01*
Y88000D02*
X508000Y92000D01*
X512000D01*
X510000Y88000D01*
Y98000D02*
X508000Y102000D01*
X512000D01*
X510000Y98000D01*
Y108000D02*
X508000Y112000D01*
X512000D01*
X510000Y108000D01*
X31000Y78000D02*
X29000Y82000D01*
X33000D01*
X31000Y78000D01*
Y88000D02*
X29000Y92000D01*
X33000D01*
X31000Y88000D01*
Y98000D02*
X29000Y102000D01*
X33000D01*
X31000Y98000D01*
Y108000D02*
X29000Y112000D01*
X33000D01*
X31000Y108000D01*
X667000Y298000D02*
X665000Y302000D01*
X669000D01*
X667000Y298000D01*
Y308000D02*
X665000Y312000D01*
X669000D01*
X667000Y308000D01*
Y318000D02*
X665000Y322000D01*
X669000D01*
X667000Y318000D01*
Y328000D02*
X665000Y332000D01*
X669000D01*
X667000Y328000D01*
X837000D02*
X835000Y332000D01*
X839000D01*
X837000Y328000D01*
Y318000D02*
X835000Y322000D01*
X839000D01*
X837000Y318000D01*
Y308000D02*
X835000Y312000D01*
X839000D01*
X837000Y308000D01*
Y298000D02*
X835000Y302000D01*
X839000D01*
X837000Y298000D01*
X771000Y259000D02*
Y258000D01*
X773000D01*
Y259000D01*
X774000D01*
Y261000D01*
X773000D01*
Y262000D01*
X771000D01*
Y261000D01*
X770000D01*
Y259000D01*
X771000D01*
X771400Y259400D02*
Y258800D01*
X772600D01*
Y259400D01*
X773200D01*
Y260600D01*
X772600D01*
Y261200D01*
X771400D01*
Y260600D01*
X770800D01*
Y259400D01*
X771400D01*
X771000Y249158D02*
Y248158D01*
X773000D01*
Y249158D01*
X774000D01*
Y251157D01*
X773000D01*
Y252157D01*
X771000D01*
Y251157D01*
X770000D01*
Y249158D01*
X771000D01*
X771400Y249557D02*
Y248957D01*
X772600D01*
Y249557D01*
X773200D01*
Y250758D01*
X772600D01*
Y251358D01*
X771400D01*
Y250758D01*
X770800D01*
Y249557D01*
X771400D01*
X741000Y249000D02*
Y248000D01*
X743000D01*
Y249000D01*
X744000D01*
Y251000D01*
X743000D01*
Y252000D01*
X741000D01*
Y251000D01*
X740000D01*
Y249000D01*
X741000D01*
X741400Y249400D02*
Y248800D01*
X742600D01*
Y249400D01*
X743200D01*
Y250600D01*
X742600D01*
Y251200D01*
X741400D01*
Y250600D01*
X740800D01*
Y249400D01*
X741400D01*
X741000Y258842D02*
Y257842D01*
X743000D01*
Y258842D01*
X744000D01*
Y260842D01*
X743000D01*
Y261842D01*
X741000D01*
Y260842D01*
X740000D01*
Y258842D01*
X741000D01*
X741400Y259243D02*
Y258643D01*
X742600D01*
Y259243D01*
X743200D01*
Y260442D01*
X742600D01*
Y261042D01*
X741400D01*
Y260442D01*
X740800D01*
Y259243D01*
X741400D01*
X711000Y249158D02*
Y248158D01*
X713000D01*
Y249158D01*
X714000D01*
Y251157D01*
X713000D01*
Y252157D01*
X711000D01*
Y251157D01*
X710000D01*
Y249158D01*
X711000D01*
X711400Y249557D02*
Y248957D01*
X712600D01*
Y249557D01*
X713200D01*
Y250758D01*
X712600D01*
Y251358D01*
X711400D01*
Y250758D01*
X710800D01*
Y249557D01*
X711400D01*
X711000Y259000D02*
Y258000D01*
X713000D01*
Y259000D01*
X714000D01*
Y261000D01*
X713000D01*
Y262000D01*
X711000D01*
Y261000D01*
X710000D01*
Y259000D01*
X711000D01*
X711400Y259400D02*
Y258800D01*
X712600D01*
Y259400D01*
X713200D01*
Y260600D01*
X712600D01*
Y261200D01*
X711400D01*
Y260600D01*
X710800D01*
Y259400D01*
X711400D01*
X770157Y133000D02*
Y132000D01*
X772157D01*
Y133000D01*
X773158D01*
Y135000D01*
X772157D01*
Y136000D01*
X770157D01*
Y135000D01*
X769158D01*
Y133000D01*
X770157D01*
X770557Y133400D02*
Y132800D01*
X771758D01*
Y133400D01*
X772358D01*
Y134600D01*
X771758D01*
Y135200D01*
X770557D01*
Y134600D01*
X769957D01*
Y133400D01*
X770557D01*
X780000Y133000D02*
Y132000D01*
X782000D01*
Y133000D01*
X783000D01*
Y135000D01*
X782000D01*
Y136000D01*
X780000D01*
Y135000D01*
X779000D01*
Y133000D01*
X780000D01*
X780400Y133400D02*
Y132800D01*
X781600D01*
Y133400D01*
X782200D01*
Y134600D01*
X781600D01*
Y135200D01*
X780400D01*
Y134600D01*
X779800D01*
Y133400D01*
X780400D01*
X770000Y163000D02*
Y162000D01*
X772000D01*
Y163000D01*
X773000D01*
Y165000D01*
X772000D01*
Y166000D01*
X770000D01*
Y165000D01*
X769000D01*
Y163000D01*
X770000D01*
X770400Y163400D02*
Y162800D01*
X771600D01*
Y163400D01*
X772200D01*
Y164600D01*
X771600D01*
Y165200D01*
X770400D01*
Y164600D01*
X769800D01*
Y163400D01*
X770400D01*
X779843Y163000D02*
Y162000D01*
X781843D01*
Y163000D01*
X782842D01*
Y165000D01*
X781843D01*
Y166000D01*
X779843D01*
Y165000D01*
X778842D01*
Y163000D01*
X779843D01*
X780242Y163400D02*
Y162800D01*
X781442D01*
Y163400D01*
X782043D01*
Y164600D01*
X781442D01*
Y165200D01*
X780242D01*
Y164600D01*
X779642D01*
Y163400D01*
X780242D01*
X779843Y193000D02*
Y192000D01*
X781843D01*
Y193000D01*
X782842D01*
Y195000D01*
X781843D01*
Y196000D01*
X779843D01*
Y195000D01*
X778842D01*
Y193000D01*
X779843D01*
X780242Y193400D02*
Y192800D01*
X781442D01*
Y193400D01*
X782043D01*
Y194600D01*
X781442D01*
Y195200D01*
X780242D01*
Y194600D01*
X779642D01*
Y193400D01*
X780242D01*
X770000Y193000D02*
Y192000D01*
X772000D01*
Y193000D01*
X773000D01*
Y195000D01*
X772000D01*
Y196000D01*
X770000D01*
Y195000D01*
X769000D01*
Y193000D01*
X770000D01*
X770400Y193400D02*
Y192800D01*
X771600D01*
Y193400D01*
X772200D01*
Y194600D01*
X771600D01*
Y195200D01*
X770400D01*
Y194600D01*
X769800D01*
Y193400D01*
X770400D01*
X667000Y208000D02*
X665000Y212000D01*
X669000D01*
X667000Y208000D01*
X677000D02*
X675000Y212000D01*
X679000D01*
X677000Y208000D01*
X687000D02*
X685000Y212000D01*
X689000D01*
X687000Y208000D01*
X697000D02*
X695000Y212000D01*
X699000D01*
X697000Y208000D01*
Y38000D02*
X695000Y42000D01*
X699000D01*
X697000Y38000D01*
X687000D02*
X685000Y42000D01*
X689000D01*
X687000Y38000D01*
X677000D02*
X675000Y42000D01*
X679000D01*
X677000Y38000D01*
X667000D02*
X665000Y42000D01*
X669000D01*
X667000Y38000D01*
X710000Y79000D02*
X711000D01*
X712000Y80000D01*
X713000Y79000D01*
X714000D01*
Y80000D01*
X713000Y81000D01*
X714000Y82000D01*
Y83000D01*
X713000D01*
X712000Y82000D01*
X711000Y83000D01*
X710000D01*
Y82000D01*
X711000Y81000D01*
X710000Y80000D01*
Y79000D01*
X710800Y79800D02*
X711400D01*
X712000Y80400D01*
X712600Y79800D01*
X713200D01*
Y80400D01*
X712600Y81000D01*
X713200Y81600D01*
Y82200D01*
X712600D01*
X712000Y81600D01*
X711400Y82200D01*
X710800D01*
Y81600D01*
X711400Y81000D01*
X710800Y80400D01*
Y79800D01*
X700000Y104000D02*
X701000D01*
X702000Y105000D01*
X703000Y104000D01*
X704000D01*
Y105000D01*
X703000Y106000D01*
X704000Y107000D01*
Y108000D01*
X703000D01*
X702000Y107000D01*
X701000Y108000D01*
X700000D01*
Y107000D01*
X701000Y106000D01*
X700000Y105000D01*
Y104000D01*
X700800Y104800D02*
X701400D01*
X702000Y105400D01*
X702600Y104800D01*
X703200D01*
Y105400D01*
X702600Y106000D01*
X703200Y106600D01*
Y107200D01*
X702600D01*
X702000Y106600D01*
X701400Y107200D01*
X700800D01*
Y106600D01*
X701400Y106000D01*
X700800Y105400D01*
Y104800D01*
X720000Y94000D02*
X721000D01*
X722000Y95000D01*
X723000Y94000D01*
X724000D01*
Y95000D01*
X723000Y96000D01*
X724000Y97000D01*
Y98000D01*
X723000D01*
X722000Y97000D01*
X721000Y98000D01*
X720000D01*
Y97000D01*
X721000Y96000D01*
X720000Y95000D01*
Y94000D01*
X721000Y75000D02*
Y74000D01*
X723000D01*
Y75000D01*
X724000D01*
Y77000D01*
X723000D01*
Y78000D01*
X721000D01*
Y77000D01*
X720000D01*
Y75000D01*
X721000D01*
Y115000D02*
Y114000D01*
X723000D01*
Y115000D01*
X724000D01*
Y117000D01*
X723000D01*
Y118000D01*
X721000D01*
Y117000D01*
X720000D01*
Y115000D01*
X721000D01*
X710000Y149000D02*
X711000D01*
X712000Y150000D01*
X713000Y149000D01*
X714000D01*
Y150000D01*
X713000Y151000D01*
X714000Y152000D01*
Y153000D01*
X713000D01*
X712000Y152000D01*
X711000Y153000D01*
X710000D01*
Y152000D01*
X711000Y151000D01*
X710000Y150000D01*
Y149000D01*
X710800Y149800D02*
X711400D01*
X712000Y150400D01*
X712600Y149800D01*
X713200D01*
Y150400D01*
X712600Y151000D01*
X713200Y151600D01*
Y152200D01*
X712600D01*
X712000Y151600D01*
X711400Y152200D01*
X710800D01*
Y151600D01*
X711400Y151000D01*
X710800Y150400D01*
Y149800D01*
X700000Y174000D02*
X701000D01*
X702000Y175000D01*
X703000Y174000D01*
X704000D01*
Y175000D01*
X703000Y176000D01*
X704000Y177000D01*
Y178000D01*
X703000D01*
X702000Y177000D01*
X701000Y178000D01*
X700000D01*
Y177000D01*
X701000Y176000D01*
X700000Y175000D01*
Y174000D01*
X700800Y174800D02*
X701400D01*
X702000Y175400D01*
X702600Y174800D01*
X703200D01*
Y175400D01*
X702600Y176000D01*
X703200Y176600D01*
Y177200D01*
X702600D01*
X702000Y176600D01*
X701400Y177200D01*
X700800D01*
Y176600D01*
X701400Y176000D01*
X700800Y175400D01*
Y174800D01*
X720000Y164000D02*
X721000D01*
X722000Y165000D01*
X723000Y164000D01*
X724000D01*
Y165000D01*
X723000Y166000D01*
X724000Y167000D01*
Y168000D01*
X723000D01*
X722000Y167000D01*
X721000Y168000D01*
X720000D01*
Y167000D01*
X721000Y166000D01*
X720000Y165000D01*
Y164000D01*
X721000Y145000D02*
Y144000D01*
X723000D01*
Y145000D01*
X724000D01*
Y147000D01*
X723000D01*
Y148000D01*
X721000D01*
Y147000D01*
X720000D01*
Y145000D01*
X721000D01*
Y185000D02*
Y184000D01*
X723000D01*
Y185000D01*
X724000D01*
Y187000D01*
X723000D01*
Y188000D01*
X721000D01*
Y187000D01*
X720000D01*
Y185000D01*
X721000D01*
X570000Y149000D02*
X571000D01*
X572000Y150000D01*
X573000Y149000D01*
X574000D01*
Y150000D01*
X573000Y151000D01*
X574000Y152000D01*
Y153000D01*
X573000D01*
X572000Y152000D01*
X571000Y153000D01*
X570000D01*
Y152000D01*
X571000Y151000D01*
X570000Y150000D01*
Y149000D01*
X570800Y149800D02*
X571400D01*
X572000Y150400D01*
X572600Y149800D01*
X573200D01*
Y150400D01*
X572600Y151000D01*
X573200Y151600D01*
Y152200D01*
X572600D01*
X572000Y151600D01*
X571400Y152200D01*
X570800D01*
Y151600D01*
X571400Y151000D01*
X570800Y150400D01*
Y149800D01*
X560000Y174000D02*
X561000D01*
X562000Y175000D01*
X563000Y174000D01*
X564000D01*
Y175000D01*
X563000Y176000D01*
X564000Y177000D01*
Y178000D01*
X563000D01*
X562000Y177000D01*
X561000Y178000D01*
X560000D01*
Y177000D01*
X561000Y176000D01*
X560000Y175000D01*
Y174000D01*
X560800Y174800D02*
X561400D01*
X562000Y175400D01*
X562600Y174800D01*
X563200D01*
Y175400D01*
X562600Y176000D01*
X563200Y176600D01*
Y177200D01*
X562600D01*
X562000Y176600D01*
X561400Y177200D01*
X560800D01*
Y176600D01*
X561400Y176000D01*
X560800Y175400D01*
Y174800D01*
X580000Y164000D02*
X581000D01*
X582000Y165000D01*
X583000Y164000D01*
X584000D01*
Y165000D01*
X583000Y166000D01*
X584000Y167000D01*
Y168000D01*
X583000D01*
X582000Y167000D01*
X581000Y168000D01*
X580000D01*
Y167000D01*
X581000Y166000D01*
X580000Y165000D01*
Y164000D01*
X581000Y145000D02*
Y144000D01*
X583000D01*
Y145000D01*
X584000D01*
Y147000D01*
X583000D01*
Y148000D01*
X581000D01*
Y147000D01*
X580000D01*
Y145000D01*
X581000D01*
Y185000D02*
Y184000D01*
X583000D01*
Y185000D01*
X584000D01*
Y187000D01*
X583000D01*
Y188000D01*
X581000D01*
Y187000D01*
X580000D01*
Y185000D01*
X581000D01*
Y115000D02*
Y114000D01*
X583000D01*
Y115000D01*
X584000D01*
Y117000D01*
X583000D01*
Y118000D01*
X581000D01*
Y117000D01*
X580000D01*
Y115000D01*
X581000D01*
Y75000D02*
Y74000D01*
X583000D01*
Y75000D01*
X584000D01*
Y77000D01*
X583000D01*
Y78000D01*
X581000D01*
Y77000D01*
X580000D01*
Y75000D01*
X581000D01*
X580000Y94000D02*
X581000D01*
X582000Y95000D01*
X583000Y94000D01*
X584000D01*
Y95000D01*
X583000Y96000D01*
X584000Y97000D01*
Y98000D01*
X583000D01*
X582000Y97000D01*
X581000Y98000D01*
X580000D01*
Y97000D01*
X581000Y96000D01*
X580000Y95000D01*
Y94000D01*
X560000Y104000D02*
X561000D01*
X562000Y105000D01*
X563000Y104000D01*
X564000D01*
Y105000D01*
X563000Y106000D01*
X564000Y107000D01*
Y108000D01*
X563000D01*
X562000Y107000D01*
X561000Y108000D01*
X560000D01*
Y107000D01*
X561000Y106000D01*
X560000Y105000D01*
Y104000D01*
X560800Y104800D02*
X561400D01*
X562000Y105400D01*
X562600Y104800D01*
X563200D01*
Y105400D01*
X562600Y106000D01*
X563200Y106600D01*
Y107200D01*
X562600D01*
X562000Y106600D01*
X561400Y107200D01*
X560800D01*
Y106600D01*
X561400Y106000D01*
X560800Y105400D01*
Y104800D01*
X570000Y79000D02*
X571000D01*
X572000Y80000D01*
X573000Y79000D01*
X574000D01*
Y80000D01*
X573000Y81000D01*
X574000Y82000D01*
Y83000D01*
X573000D01*
X572000Y82000D01*
X571000Y83000D01*
X570000D01*
Y82000D01*
X571000Y81000D01*
X570000Y80000D01*
Y79000D01*
X570800Y79800D02*
X571400D01*
X572000Y80400D01*
X572600Y79800D01*
X573200D01*
Y80400D01*
X572600Y81000D01*
X573200Y81600D01*
Y82200D01*
X572600D01*
X572000Y81600D01*
X571400Y82200D01*
X570800D01*
Y81600D01*
X571400Y81000D01*
X570800Y80400D01*
Y79800D01*
X640000Y149000D02*
X641000D01*
X642000Y150000D01*
X643000Y149000D01*
X644000D01*
Y150000D01*
X643000Y151000D01*
X644000Y152000D01*
Y153000D01*
X643000D01*
X642000Y152000D01*
X641000Y153000D01*
X640000D01*
Y152000D01*
X641000Y151000D01*
X640000Y150000D01*
Y149000D01*
X640800Y149800D02*
X641400D01*
X642000Y150400D01*
X642600Y149800D01*
X643200D01*
Y150400D01*
X642600Y151000D01*
X643200Y151600D01*
Y152200D01*
X642600D01*
X642000Y151600D01*
X641400Y152200D01*
X640800D01*
Y151600D01*
X641400Y151000D01*
X640800Y150400D01*
Y149800D01*
X630000Y174000D02*
X631000D01*
X632000Y175000D01*
X633000Y174000D01*
X634000D01*
Y175000D01*
X633000Y176000D01*
X634000Y177000D01*
Y178000D01*
X633000D01*
X632000Y177000D01*
X631000Y178000D01*
X630000D01*
Y177000D01*
X631000Y176000D01*
X630000Y175000D01*
Y174000D01*
X630800Y174800D02*
X631400D01*
X632000Y175400D01*
X632600Y174800D01*
X633200D01*
Y175400D01*
X632600Y176000D01*
X633200Y176600D01*
Y177200D01*
X632600D01*
X632000Y176600D01*
X631400Y177200D01*
X630800D01*
Y176600D01*
X631400Y176000D01*
X630800Y175400D01*
Y174800D01*
X650000Y164000D02*
X651000D01*
X652000Y165000D01*
X653000Y164000D01*
X654000D01*
Y165000D01*
X653000Y166000D01*
X654000Y167000D01*
Y168000D01*
X653000D01*
X652000Y167000D01*
X651000Y168000D01*
X650000D01*
Y167000D01*
X651000Y166000D01*
X650000Y165000D01*
Y164000D01*
X651000Y145000D02*
Y144000D01*
X653000D01*
Y145000D01*
X654000D01*
Y147000D01*
X653000D01*
Y148000D01*
X651000D01*
Y147000D01*
X650000D01*
Y145000D01*
X651000D01*
Y185000D02*
Y184000D01*
X653000D01*
Y185000D01*
X654000D01*
Y187000D01*
X653000D01*
Y188000D01*
X651000D01*
Y187000D01*
X650000D01*
Y185000D01*
X651000D01*
X146000Y233000D02*
X144000Y237000D01*
X148000D01*
X146000Y233000D01*
X136000D02*
X134000Y237000D01*
X138000D01*
X136000Y233000D01*
X101000D02*
X99000Y237000D01*
X103000D01*
X101000Y233000D01*
X91000D02*
X89000Y237000D01*
X93000D01*
X91000Y233000D01*
X371900Y377698D02*
Y372700D01*
Y375199D01*
X375232D01*
Y377698D01*
Y372700D01*
X749600Y282998D02*
Y278000D01*
Y280499D01*
X752932D01*
Y282998D01*
Y278000D01*
X406600Y376898D02*
Y371900D01*
Y374399D01*
X409932D01*
Y376898D01*
Y371900D01*
X493700Y433198D02*
Y428200D01*
Y430699D01*
X497032D01*
Y433198D01*
Y428200D01*
X496200Y334800D02*
Y338132D01*
X497866Y339798D01*
X499532Y338132D01*
Y334800D01*
Y337299D01*
X496200D01*
X433100Y340900D02*
Y344232D01*
X434766Y345898D01*
X436432Y344232D01*
Y340900D01*
Y343399D01*
X433100D01*
X425300Y355600D02*
Y358932D01*
X426966Y360598D01*
X428632Y358932D01*
Y355600D01*
Y358099D01*
X425300D01*
X373300Y384900D02*
Y388232D01*
X374966Y389898D01*
X376632Y388232D01*
Y384900D01*
Y387399D01*
X373300D01*
X357000Y353000D02*
Y356332D01*
X358666Y357998D01*
X360332Y356332D01*
Y353000D01*
Y355499D01*
X357000D01*
X390500Y386880D02*
Y381882D01*
Y384381D01*
X393832D01*
Y386880D01*
Y381882D01*
X393476Y386885D02*
Y381887D01*
Y384386D01*
X396809D01*
Y386885D01*
Y381887D01*
X371800Y380498D02*
Y375500D01*
Y377999D01*
X375132D01*
Y380498D01*
Y375500D01*
X372400Y374848D02*
Y369850D01*
Y372349D01*
X375732D01*
Y374848D01*
Y369850D01*
X372400Y367198D02*
Y362200D01*
Y364699D01*
X375732D01*
Y367198D01*
Y362200D01*
X379300Y359698D02*
Y354700D01*
Y357199D01*
X382632D01*
Y359698D01*
Y354700D01*
X266000Y449298D02*
Y444300D01*
Y446799D01*
X269332D01*
Y449298D01*
Y444300D01*
X239600Y437498D02*
Y432500D01*
Y434999D01*
X242932D01*
Y437498D01*
Y432500D01*
X251800Y412398D02*
Y407400D01*
Y409899D01*
X255132D01*
Y412398D01*
Y407400D01*
X233900Y412498D02*
Y407500D01*
Y409999D01*
X237232D01*
Y412498D01*
Y407500D01*
X415400Y454898D02*
Y449900D01*
Y452399D01*
X418732D01*
Y454898D01*
Y449900D01*
X415300Y467098D02*
Y462100D01*
Y464599D01*
X418632D01*
Y467098D01*
Y462100D01*
X382000Y453798D02*
Y448800D01*
Y451299D01*
X385332D01*
Y453798D01*
Y448800D01*
X800000Y444998D02*
Y440000D01*
Y442499D01*
X803332D01*
Y444998D01*
Y440000D01*
X820000Y404998D02*
Y400000D01*
Y402499D01*
X823332D01*
Y404998D01*
Y400000D01*
X800000Y364998D02*
Y360000D01*
Y362499D01*
X803332D01*
Y364998D01*
Y360000D01*
X800000Y204998D02*
Y200000D01*
Y202499D01*
X803332D01*
Y204998D01*
Y200000D01*
X820000Y164998D02*
Y160000D01*
Y162499D01*
X823332D01*
Y164998D01*
Y160000D01*
X760000Y444998D02*
Y440000D01*
Y442499D01*
X763332D01*
Y444998D01*
Y440000D01*
X780000Y404998D02*
Y400000D01*
Y402499D01*
X783332D01*
Y404998D01*
Y400000D01*
X760000Y364998D02*
Y360000D01*
Y362499D01*
X763332D01*
Y364998D01*
Y360000D01*
X780000Y324998D02*
Y320000D01*
Y322499D01*
X783332D01*
Y324998D01*
Y320000D01*
X760000Y124998D02*
Y120000D01*
Y122499D01*
X763332D01*
Y124998D01*
Y120000D01*
X720000Y444998D02*
Y440000D01*
Y442499D01*
X723332D01*
Y444998D01*
Y440000D01*
X740000Y404998D02*
Y400000D01*
Y402499D01*
X743332D01*
Y404998D01*
Y400000D01*
X720000Y364998D02*
Y360000D01*
Y362499D01*
X723332D01*
Y364998D01*
Y360000D01*
X740000Y324998D02*
Y320000D01*
Y322499D01*
X743332D01*
Y324998D01*
Y320000D01*
X740000Y164998D02*
Y160000D01*
Y162499D01*
X743332D01*
Y164998D01*
Y160000D01*
X740000Y84998D02*
Y80000D01*
Y82499D01*
X743332D01*
Y84998D01*
Y80000D01*
X680000Y444998D02*
Y440000D01*
Y442499D01*
X683332D01*
Y444998D01*
Y440000D01*
X700000Y404998D02*
Y400000D01*
Y402499D01*
X703332D01*
Y404998D01*
Y400000D01*
X680000Y364998D02*
Y360000D01*
Y362499D01*
X683332D01*
Y364998D01*
Y360000D01*
X700000Y244998D02*
Y240000D01*
Y242499D01*
X703332D01*
Y244998D01*
Y240000D01*
X640000Y364998D02*
Y360000D01*
Y362499D01*
X643332D01*
Y364998D01*
Y360000D01*
X640000Y284998D02*
Y280000D01*
Y282499D01*
X643332D01*
Y284998D01*
Y280000D01*
X660000Y164998D02*
Y160000D01*
Y162499D01*
X663332D01*
Y164998D01*
Y160000D01*
X640000Y44998D02*
Y40000D01*
Y42499D01*
X643332D01*
Y44998D01*
Y40000D01*
X600000Y364998D02*
Y360000D01*
Y362499D01*
X603332D01*
Y364998D01*
Y360000D01*
X620000Y244998D02*
Y240000D01*
Y242499D01*
X623332D01*
Y244998D01*
Y240000D01*
X620000Y164998D02*
Y160000D01*
Y162499D01*
X623332D01*
Y164998D01*
Y160000D01*
X600000Y44998D02*
Y40000D01*
Y42499D01*
X603332D01*
Y44998D01*
Y40000D01*
X580000Y404998D02*
Y400000D01*
Y402499D01*
X583332D01*
Y404998D01*
Y400000D01*
X560000Y364998D02*
Y360000D01*
Y362499D01*
X563332D01*
Y364998D01*
Y360000D01*
X560000Y284998D02*
Y280000D01*
Y282499D01*
X563332D01*
Y284998D01*
Y280000D01*
X580000Y244998D02*
Y240000D01*
Y242499D01*
X583332D01*
Y244998D01*
Y240000D01*
X560000Y44998D02*
Y40000D01*
Y42499D01*
X563332D01*
Y44998D01*
Y40000D01*
X520000Y444998D02*
Y440000D01*
Y442499D01*
X523332D01*
Y444998D01*
Y440000D01*
X540000Y404998D02*
Y400000D01*
Y402499D01*
X543332D01*
Y404998D01*
Y400000D01*
X520000Y284998D02*
Y280000D01*
Y282499D01*
X523332D01*
Y284998D01*
Y280000D01*
X540000Y244998D02*
Y240000D01*
Y242499D01*
X543332D01*
Y244998D01*
Y240000D01*
X480000Y444998D02*
Y440000D01*
Y442499D01*
X483332D01*
Y444998D01*
Y440000D01*
X480000Y284998D02*
Y280000D01*
Y282499D01*
X483332D01*
Y284998D01*
Y280000D01*
X500000Y244998D02*
Y240000D01*
Y242499D01*
X503332D01*
Y244998D01*
Y240000D01*
X480000Y204998D02*
Y200000D01*
Y202499D01*
X483332D01*
Y204998D01*
Y200000D01*
X500000Y164998D02*
Y160000D01*
Y162499D01*
X503332D01*
Y164998D01*
Y160000D01*
X440000Y444998D02*
Y440000D01*
Y442499D01*
X443332D01*
Y444998D01*
Y440000D01*
X460000Y244998D02*
Y240000D01*
Y242499D01*
X463332D01*
Y244998D01*
Y240000D01*
X440000Y204998D02*
Y200000D01*
Y202499D01*
X443332D01*
Y204998D01*
Y200000D01*
X420000Y244998D02*
Y240000D01*
Y242499D01*
X423332D01*
Y244998D01*
Y240000D01*
X400000Y204998D02*
Y200000D01*
Y202499D01*
X403332D01*
Y204998D01*
Y200000D01*
X380000Y324998D02*
Y320000D01*
Y322499D01*
X383332D01*
Y324998D01*
Y320000D01*
X380000Y244998D02*
Y240000D01*
Y242499D01*
X383332D01*
Y244998D01*
Y240000D01*
X360000Y204998D02*
Y200000D01*
Y202499D01*
X363332D01*
Y204998D01*
Y200000D01*
X340000Y404998D02*
Y400000D01*
Y402499D01*
X343332D01*
Y404998D01*
Y400000D01*
X320000Y364998D02*
Y360000D01*
Y362499D01*
X323332D01*
Y364998D01*
Y360000D01*
X320000Y284998D02*
Y280000D01*
Y282499D01*
X323332D01*
Y284998D01*
Y280000D01*
X280000Y364998D02*
Y360000D01*
Y362499D01*
X283332D01*
Y364998D01*
Y360000D01*
X300000Y324998D02*
Y320000D01*
Y322499D01*
X303332D01*
Y324998D01*
Y320000D01*
X300000Y244998D02*
Y240000D01*
Y242499D01*
X303332D01*
Y244998D01*
Y240000D01*
X240000Y364998D02*
Y360000D01*
Y362499D01*
X243332D01*
Y364998D01*
Y360000D01*
X260000Y324998D02*
Y320000D01*
Y322499D01*
X263332D01*
Y324998D01*
Y320000D01*
X240000Y284998D02*
Y280000D01*
Y282499D01*
X243332D01*
Y284998D01*
Y280000D01*
X260000Y244998D02*
Y240000D01*
Y242499D01*
X263332D01*
Y244998D01*
Y240000D01*
X220000Y404998D02*
Y400000D01*
Y402499D01*
X223332D01*
Y404998D01*
Y400000D01*
X200000Y364998D02*
Y360000D01*
Y362499D01*
X203332D01*
Y364998D01*
Y360000D01*
X220000Y324998D02*
Y320000D01*
Y322499D01*
X223332D01*
Y324998D01*
Y320000D01*
X200000Y284998D02*
Y280000D01*
Y282499D01*
X203332D01*
Y284998D01*
Y280000D01*
X220000Y244998D02*
Y240000D01*
Y242499D01*
X223332D01*
Y244998D01*
Y240000D01*
X180000Y404998D02*
Y400000D01*
Y402499D01*
X183332D01*
Y404998D01*
Y400000D01*
X160000Y364998D02*
Y360000D01*
Y362499D01*
X163332D01*
Y364998D01*
Y360000D01*
X160000Y284998D02*
Y280000D01*
Y282499D01*
X163332D01*
Y284998D01*
Y280000D01*
X180000Y244998D02*
Y240000D01*
Y242499D01*
X183332D01*
Y244998D01*
Y240000D01*
X120000Y444998D02*
Y440000D01*
Y442499D01*
X123332D01*
Y444998D01*
Y440000D01*
X140000Y404998D02*
Y400000D01*
Y402499D01*
X143332D01*
Y404998D01*
Y400000D01*
X120000Y364998D02*
Y360000D01*
Y362499D01*
X123332D01*
Y364998D01*
Y360000D01*
X120000Y284998D02*
Y280000D01*
Y282499D01*
X123332D01*
Y284998D01*
Y280000D01*
X140000Y244998D02*
Y240000D01*
Y242499D01*
X143332D01*
Y244998D01*
Y240000D01*
X120000Y204998D02*
Y200000D01*
Y202499D01*
X123332D01*
Y204998D01*
Y200000D01*
X80000Y364998D02*
Y360000D01*
Y362499D01*
X83332D01*
Y364998D01*
Y360000D01*
X80000Y284998D02*
Y280000D01*
Y282499D01*
X83332D01*
Y284998D01*
Y280000D01*
X80000Y204998D02*
Y200000D01*
Y202499D01*
X83332D01*
Y204998D01*
Y200000D01*
X40000Y444998D02*
Y440000D01*
Y442499D01*
X43332D01*
Y444998D01*
Y440000D01*
X60000Y404998D02*
Y400000D01*
Y402499D01*
X63332D01*
Y404998D01*
Y400000D01*
X40000Y364998D02*
Y360000D01*
Y362499D01*
X43332D01*
Y364998D01*
Y360000D01*
X60000Y324998D02*
Y320000D01*
Y322499D01*
X63332D01*
Y324998D01*
Y320000D01*
X40000Y284998D02*
Y280000D01*
Y282499D01*
X43332D01*
Y284998D01*
Y280000D01*
X60000Y244998D02*
Y240000D01*
Y242499D01*
X63332D01*
Y244998D01*
Y240000D01*
X40000Y204998D02*
Y200000D01*
Y202499D01*
X43332D01*
Y204998D01*
Y200000D01*
X60000Y164998D02*
Y160000D01*
Y162499D01*
X63332D01*
Y164998D01*
Y160000D01*
X40000Y124998D02*
Y120000D01*
Y122499D01*
X43332D01*
Y124998D01*
Y120000D01*
X40000Y44998D02*
Y40000D01*
Y42499D01*
X43332D01*
Y44998D01*
Y40000D01*
X295700Y428198D02*
Y423200D01*
Y425699D01*
X299032D01*
Y428198D01*
Y423200D01*
X300500Y450398D02*
Y445400D01*
Y447899D01*
X303832D01*
Y450398D01*
Y445400D01*
X489900Y407298D02*
Y402300D01*
Y404799D01*
X493232D01*
Y407298D01*
Y402300D01*
X483300Y416498D02*
Y411500D01*
Y413999D01*
X486632D01*
Y416498D01*
Y411500D01*
X511300Y404598D02*
Y399600D01*
Y402099D01*
X514632D01*
Y404598D01*
Y399600D01*
X511200Y413298D02*
Y408300D01*
Y410799D01*
X514532D01*
Y413298D01*
Y408300D01*
X504600Y421398D02*
Y416400D01*
Y418899D01*
X507932D01*
Y421398D01*
Y416400D01*
X503500Y431698D02*
Y426700D01*
Y429199D01*
X506832D01*
Y431698D01*
Y426700D01*
X496300Y431698D02*
Y426700D01*
Y429199D01*
X499632D01*
Y431698D01*
Y426700D01*
X480100Y433498D02*
Y428500D01*
Y430999D01*
X483432D01*
Y433498D01*
Y428500D01*
X369000Y441798D02*
Y436800D01*
Y439299D01*
X372332D01*
Y441798D01*
Y436800D01*
X310100Y410198D02*
Y405200D01*
Y407699D01*
X313432D01*
Y410198D01*
Y405200D01*
X299000Y434098D02*
Y429100D01*
Y431599D01*
X302332D01*
Y434098D01*
Y429100D01*
X293500Y430898D02*
Y425900D01*
Y428399D01*
X296832D01*
Y430898D01*
Y425900D01*
X482600Y433398D02*
Y428400D01*
Y430899D01*
X485932D01*
Y433398D01*
Y428400D01*
X484300Y413998D02*
Y409000D01*
Y411499D01*
X487632D01*
Y413998D01*
Y409000D01*
X491700Y405398D02*
Y400400D01*
Y402899D01*
X495032D01*
Y405398D01*
Y400400D01*
X513700Y404598D02*
Y399600D01*
Y402099D01*
X517032D01*
Y404598D01*
Y399600D01*
X507100Y421298D02*
Y416300D01*
Y418799D01*
X510432D01*
Y421298D01*
Y416300D01*
X513700Y413098D02*
Y408100D01*
Y410599D01*
X517032D01*
Y413098D01*
Y408100D01*
X516300Y433598D02*
Y428600D01*
Y431099D01*
X519632D01*
Y433598D01*
Y428600D01*
X408900Y398698D02*
Y393700D01*
Y396199D01*
X412232D01*
Y398698D01*
Y393700D01*
X352400Y404698D02*
Y399700D01*
Y402199D01*
X355732D01*
Y404698D01*
Y399700D01*
X416300Y399098D02*
Y394100D01*
Y396599D01*
X419632D01*
Y399098D01*
Y394100D01*
X367600Y367298D02*
Y362300D01*
Y364799D01*
X370932D01*
Y367298D01*
Y362300D01*
X416300Y395798D02*
Y390800D01*
Y393299D01*
X419632D01*
Y395798D01*
Y390800D01*
X411400Y398698D02*
Y393700D01*
Y396199D01*
X414732D01*
Y398698D01*
Y393700D01*
X396600Y386998D02*
Y382000D01*
Y384499D01*
X399932D01*
Y386998D01*
Y382000D01*
X320400Y264998D02*
Y260000D01*
Y262499D01*
X323732D01*
Y264998D01*
Y260000D01*
X325200Y264898D02*
Y259900D01*
Y262399D01*
X328532D01*
Y264898D01*
Y259900D01*
X315500Y264898D02*
Y259900D01*
Y262399D01*
X318832D01*
Y264898D01*
Y259900D01*
X328707Y441798D02*
Y436800D01*
Y439299D01*
X332039D01*
Y441798D01*
Y436800D01*
X331356Y452042D02*
Y447044D01*
Y449543D01*
X334688D01*
Y452042D01*
Y447044D01*
X270736Y446734D02*
Y441736D01*
Y444235D01*
X274068D01*
Y446734D01*
Y441736D01*
X278600Y459398D02*
Y454400D01*
Y456899D01*
X281932D01*
Y459398D01*
Y454400D01*
X289500Y412498D02*
Y407500D01*
Y409999D01*
X292832D01*
Y412498D01*
Y407500D01*
X276800Y433198D02*
Y428200D01*
Y430699D01*
X280132D01*
Y433198D01*
Y428200D01*
X506000Y431598D02*
Y426600D01*
Y429099D01*
X509332D01*
Y431598D01*
Y426600D01*
X372443Y382788D02*
Y377790D01*
Y380289D01*
X375775D01*
Y382788D01*
Y377790D01*
X379100Y371898D02*
Y366900D01*
Y369399D01*
X382432D01*
Y371898D01*
Y366900D01*
X372600Y369998D02*
Y365000D01*
Y367499D01*
X375932D01*
Y369998D01*
Y365000D01*
X379100Y369198D02*
Y364200D01*
Y366699D01*
X382432D01*
Y369198D01*
Y364200D01*
X693000Y261998D02*
Y257000D01*
Y259499D01*
X696332D01*
Y261998D01*
Y257000D01*
X802000Y237998D02*
Y233000D01*
Y235499D01*
X805332D01*
Y237998D01*
Y233000D01*
X824000Y237998D02*
Y233000D01*
Y235499D01*
X827332D01*
Y237998D01*
Y233000D01*
X817000Y265998D02*
Y261000D01*
Y263499D01*
X820332D01*
Y265998D01*
Y261000D01*
X780000Y282998D02*
Y278000D01*
Y280499D01*
X783332D01*
Y282998D01*
Y278000D01*
X689000Y308998D02*
Y304000D01*
Y306499D01*
X692332D01*
Y308998D01*
Y304000D01*
X691000Y314998D02*
Y310000D01*
Y312499D01*
X694332D01*
Y314998D01*
Y310000D01*
X696000Y328998D02*
Y324000D01*
Y326499D01*
X699332D01*
Y328998D01*
Y324000D01*
X820000Y204998D02*
Y200000D01*
Y202499D01*
X823332D01*
Y204998D01*
Y200000D01*
X830000Y184998D02*
Y180000D01*
Y182499D01*
X833332D01*
Y184998D01*
Y180000D01*
X810000Y184998D02*
Y180000D01*
Y182499D01*
X813332D01*
Y184998D01*
Y180000D01*
X760000Y164998D02*
Y160000D01*
Y162499D01*
X763332D01*
Y164998D01*
Y160000D01*
X770000Y104998D02*
Y100000D01*
Y102499D01*
X773332D01*
Y104998D01*
Y100000D01*
X760000Y84998D02*
Y80000D01*
Y82499D01*
X763332D01*
Y84998D01*
Y80000D01*
X750000Y104998D02*
Y100000D01*
Y102499D01*
X753332D01*
Y104998D01*
Y100000D01*
X730000Y144998D02*
Y140000D01*
Y142499D01*
X733332D01*
Y144998D01*
Y140000D01*
X690000Y184998D02*
Y180000D01*
Y182499D01*
X693332D01*
Y184998D01*
Y180000D01*
X680000Y164998D02*
Y160000D01*
Y162499D01*
X683332D01*
Y164998D01*
Y160000D01*
X670000Y184998D02*
Y180000D01*
Y182499D01*
X673332D01*
Y184998D01*
Y180000D01*
X670000Y64998D02*
Y60000D01*
Y62499D01*
X673332D01*
Y64998D01*
Y60000D01*
X660000Y44998D02*
Y40000D01*
Y42499D01*
X663332D01*
Y44998D01*
Y40000D01*
X640000Y164998D02*
Y160000D01*
Y162499D01*
X643332D01*
Y164998D01*
Y160000D01*
X650000Y64998D02*
Y60000D01*
Y62499D01*
X653332D01*
Y64998D01*
Y60000D01*
X630000Y64998D02*
Y60000D01*
Y62499D01*
X633332D01*
Y64998D01*
Y60000D01*
X620000Y44998D02*
Y40000D01*
Y42499D01*
X623332D01*
Y44998D01*
Y40000D01*
X610000Y184998D02*
Y180000D01*
Y182499D01*
X613332D01*
Y184998D01*
Y180000D01*
X600000Y164998D02*
Y160000D01*
Y162499D01*
X603332D01*
Y164998D01*
Y160000D01*
X610000Y64998D02*
Y60000D01*
Y62499D01*
X613332D01*
Y64998D01*
Y60000D01*
X590000Y184998D02*
Y180000D01*
Y182499D01*
X593332D01*
Y184998D01*
Y180000D01*
X590000Y64998D02*
Y60000D01*
Y62499D01*
X593332D01*
Y64998D01*
Y60000D01*
X580000Y44998D02*
Y40000D01*
Y42499D01*
X583332D01*
Y44998D01*
Y40000D01*
X570000Y184998D02*
Y180000D01*
Y182499D01*
X573332D01*
Y184998D01*
Y180000D01*
X560000Y164998D02*
Y160000D01*
Y162499D01*
X563332D01*
Y164998D01*
Y160000D01*
X570000Y64998D02*
Y60000D01*
Y62499D01*
X573332D01*
Y64998D01*
Y60000D01*
X550000Y184998D02*
Y180000D01*
Y182499D01*
X553332D01*
Y184998D01*
Y180000D01*
X550000Y144998D02*
Y140000D01*
Y142499D01*
X553332D01*
Y144998D01*
Y140000D01*
X550000Y104998D02*
Y100000D01*
Y102499D01*
X553332D01*
Y104998D01*
Y100000D01*
X540000Y44998D02*
Y40000D01*
Y42499D01*
X543332D01*
Y44998D01*
Y40000D01*
X530000Y64998D02*
Y60000D01*
Y62499D01*
X533332D01*
Y64998D01*
Y60000D01*
X500000Y204998D02*
Y200000D01*
Y202499D01*
X503332D01*
Y204998D01*
Y200000D01*
X510000Y184998D02*
Y180000D01*
Y182499D01*
X513332D01*
Y184998D01*
Y180000D01*
X510000Y144998D02*
Y140000D01*
Y142499D01*
X513332D01*
Y144998D01*
Y140000D01*
X500000Y44998D02*
Y40000D01*
Y42499D01*
X503332D01*
Y44998D01*
Y40000D01*
X490000Y184998D02*
Y180000D01*
Y182499D01*
X493332D01*
Y184998D01*
Y180000D01*
X460000Y204998D02*
Y200000D01*
Y202499D01*
X463332D01*
Y204998D01*
Y200000D01*
X380000Y204998D02*
Y200000D01*
Y202499D01*
X383332D01*
Y204998D01*
Y200000D01*
X300000Y204998D02*
Y200000D01*
Y202499D01*
X303332D01*
Y204998D01*
Y200000D01*
X140000Y204998D02*
Y200000D01*
Y202499D01*
X143332D01*
Y204998D01*
Y200000D01*
X130000Y184998D02*
Y180000D01*
Y182499D01*
X133332D01*
Y184998D01*
Y180000D01*
X100000Y204998D02*
Y200000D01*
Y202499D01*
X103332D01*
Y204998D01*
Y200000D01*
X110000Y184998D02*
Y180000D01*
Y182499D01*
X113332D01*
Y184998D01*
Y180000D01*
X90000Y184998D02*
Y180000D01*
Y182499D01*
X93332D01*
Y184998D01*
Y180000D01*
X60000Y204998D02*
Y200000D01*
Y202499D01*
X63332D01*
Y204998D01*
Y200000D01*
X70000Y184998D02*
Y180000D01*
Y182499D01*
X73332D01*
Y184998D01*
Y180000D01*
X50000Y184998D02*
Y180000D01*
Y182499D01*
X53332D01*
Y184998D01*
Y180000D01*
X40000Y164998D02*
Y160000D01*
Y162499D01*
X43332D01*
Y164998D01*
Y160000D01*
X697000Y67998D02*
Y63000D01*
Y65499D01*
X700332D01*
Y67998D01*
Y63000D01*
X687000Y67998D02*
Y63000D01*
Y65499D01*
X690332D01*
Y67998D01*
Y63000D01*
X784000Y72998D02*
Y68000D01*
Y70499D01*
X787332D01*
Y72998D01*
Y68000D01*
X829210Y69156D02*
Y64157D01*
Y66657D01*
X832542D01*
Y69156D01*
Y64157D01*
X825000Y78998D02*
Y74000D01*
Y76499D01*
X828332D01*
Y78998D01*
Y74000D01*
X802000Y78998D02*
Y74000D01*
Y76499D01*
X805332D01*
Y78998D01*
Y74000D01*
X795000Y124998D02*
Y120000D01*
Y122499D01*
X798332D01*
Y124998D01*
Y120000D01*
X828000Y124998D02*
Y120000D01*
Y122499D01*
X831332D01*
Y124998D01*
Y120000D01*
X831000Y137998D02*
Y133000D01*
Y135499D01*
X834332D01*
Y137998D01*
Y133000D01*
X328000Y178998D02*
Y174000D01*
Y176499D01*
X331332D01*
Y178998D01*
Y174000D01*
X399000Y214998D02*
Y210000D01*
Y212499D01*
X402332D01*
Y214998D01*
Y210000D01*
X425000Y212998D02*
Y208000D01*
Y210499D01*
X428332D01*
Y212998D01*
Y208000D01*
X429000Y204998D02*
Y200000D01*
Y202499D01*
X432332D01*
Y204998D01*
Y200000D01*
X445000Y181998D02*
Y177000D01*
Y179499D01*
X448332D01*
Y181998D01*
Y177000D01*
X118000Y156498D02*
Y151500D01*
Y153999D01*
X121332D01*
Y156498D01*
Y151500D01*
X111000Y156430D02*
Y151431D01*
Y153930D01*
X114332D01*
Y156430D01*
Y151431D01*
X98000Y155998D02*
Y151000D01*
Y153499D01*
X101332D01*
Y155998D01*
Y151000D01*
X98000Y149998D02*
Y145000D01*
Y147499D01*
X101332D01*
Y149998D01*
Y145000D01*
X484000Y149998D02*
Y145000D01*
Y147499D01*
X487332D01*
Y149998D01*
Y145000D01*
X440000Y149998D02*
Y145000D01*
Y147499D01*
X443332D01*
Y149998D01*
Y145000D01*
X396000Y149998D02*
Y145000D01*
Y147499D01*
X399332D01*
Y149998D01*
Y145000D01*
X353000Y149998D02*
Y145000D01*
Y147499D01*
X356332D01*
Y149998D01*
Y145000D01*
X320000Y147998D02*
Y143000D01*
Y145499D01*
X323332D01*
Y147998D01*
Y143000D01*
X266000Y149998D02*
Y145000D01*
Y147499D01*
X269332D01*
Y149998D01*
Y145000D01*
X233000Y147998D02*
Y143000D01*
Y145499D01*
X236332D01*
Y147998D01*
Y143000D01*
X180000Y149998D02*
Y145000D01*
Y147499D01*
X183332D01*
Y149998D01*
Y145000D01*
X291000Y195998D02*
Y191000D01*
Y193499D01*
X294332D01*
Y195998D01*
Y191000D01*
X286000Y195998D02*
Y191000D01*
Y193499D01*
X289332D01*
Y195998D01*
Y191000D01*
X281000Y195998D02*
Y191000D01*
Y193499D01*
X284332D01*
Y195998D01*
Y191000D01*
X276000Y195998D02*
Y191000D01*
Y193499D01*
X279332D01*
Y195998D01*
Y191000D01*
X271000Y195998D02*
Y191000D01*
Y193499D01*
X274332D01*
Y195998D01*
Y191000D01*
X266000Y195998D02*
Y191000D01*
Y193499D01*
X269332D01*
Y195998D01*
Y191000D01*
X261000Y195998D02*
Y191000D01*
Y193499D01*
X264332D01*
Y195998D01*
Y191000D01*
X256000Y195998D02*
Y191000D01*
Y193499D01*
X259332D01*
Y195998D01*
Y191000D01*
X77000Y95998D02*
Y91000D01*
Y93499D01*
X80332D01*
Y95998D01*
Y91000D01*
X72000Y105998D02*
Y101000D01*
Y103499D01*
X75332D01*
Y105998D01*
Y101000D01*
X402000Y390598D02*
Y385600D01*
Y388099D01*
X405332D01*
Y390598D01*
Y385600D01*
X390063Y367147D02*
Y362149D01*
Y364648D01*
X393395D01*
Y367147D01*
Y362149D01*
X392833Y367168D02*
Y362170D01*
Y364669D01*
X396166D01*
Y367168D01*
Y362170D01*
X379500Y387098D02*
Y382100D01*
Y384599D01*
X382832D01*
Y387098D01*
Y382100D01*
X387000Y387098D02*
Y382100D01*
Y384599D01*
X390332D01*
Y387098D01*
Y382100D01*
D19*
X60672Y136500D02*
G03*
X60672Y136500I-1200J0D01*
G01*
Y126500D02*
G03*
X60672Y126500I-1200J0D01*
G01*
Y116500D02*
G03*
X60672Y116500I-1200J0D01*
G01*
Y106500D02*
G03*
X60672Y106500I-1200J0D01*
G01*
Y96500D02*
G03*
X60672Y96500I-1200J0D01*
G01*
Y86500D02*
G03*
X60672Y86500I-1200J0D01*
G01*
Y76500D02*
G03*
X60672Y76500I-1200J0D01*
G01*
Y66500D02*
G03*
X60672Y66500I-1200J0D01*
G01*
Y56500D02*
G03*
X60672Y56500I-1200J0D01*
G01*
Y46500D02*
G03*
X60672Y46500I-1200J0D01*
G01*
X90200D02*
G03*
X90200Y46500I-1200J0D01*
G01*
Y56500D02*
G03*
X90200Y56500I-1200J0D01*
G01*
Y66500D02*
G03*
X90200Y66500I-1200J0D01*
G01*
Y76500D02*
G03*
X90200Y76500I-1200J0D01*
G01*
Y86500D02*
G03*
X90200Y86500I-1200J0D01*
G01*
Y96500D02*
G03*
X90200Y96500I-1200J0D01*
G01*
Y106500D02*
G03*
X90200Y106500I-1200J0D01*
G01*
Y116500D02*
G03*
X90200Y116500I-1200J0D01*
G01*
Y126500D02*
G03*
X90200Y126500I-1200J0D01*
G01*
Y136500D02*
G03*
X90200Y136500I-1200J0D01*
G01*
X481728D02*
G03*
X481728Y136500I-1200J0D01*
G01*
Y126500D02*
G03*
X481728Y126500I-1200J0D01*
G01*
Y116500D02*
G03*
X481728Y116500I-1200J0D01*
G01*
Y106500D02*
G03*
X481728Y106500I-1200J0D01*
G01*
Y96500D02*
G03*
X481728Y96500I-1200J0D01*
G01*
Y86500D02*
G03*
X481728Y86500I-1200J0D01*
G01*
Y76500D02*
G03*
X481728Y76500I-1200J0D01*
G01*
Y66500D02*
G03*
X481728Y66500I-1200J0D01*
G01*
Y56500D02*
G03*
X481728Y56500I-1200J0D01*
G01*
Y46500D02*
G03*
X481728Y46500I-1200J0D01*
G01*
X452200D02*
G03*
X452200Y46500I-1200J0D01*
G01*
Y56500D02*
G03*
X452200Y56500I-1200J0D01*
G01*
Y66500D02*
G03*
X452200Y66500I-1200J0D01*
G01*
Y76500D02*
G03*
X452200Y76500I-1200J0D01*
G01*
Y86500D02*
G03*
X452200Y86500I-1200J0D01*
G01*
Y96500D02*
G03*
X452200Y96500I-1200J0D01*
G01*
Y106500D02*
G03*
X452200Y106500I-1200J0D01*
G01*
Y116500D02*
G03*
X452200Y116500I-1200J0D01*
G01*
Y126500D02*
G03*
X452200Y126500I-1200J0D01*
G01*
Y136500D02*
G03*
X452200Y136500I-1200J0D01*
G01*
X408700D02*
G03*
X408700Y136500I-1200J0D01*
G01*
Y126500D02*
G03*
X408700Y126500I-1200J0D01*
G01*
Y116500D02*
G03*
X408700Y116500I-1200J0D01*
G01*
Y106500D02*
G03*
X408700Y106500I-1200J0D01*
G01*
Y96500D02*
G03*
X408700Y96500I-1200J0D01*
G01*
Y86500D02*
G03*
X408700Y86500I-1200J0D01*
G01*
Y76500D02*
G03*
X408700Y76500I-1200J0D01*
G01*
Y66500D02*
G03*
X408700Y66500I-1200J0D01*
G01*
Y56500D02*
G03*
X408700Y56500I-1200J0D01*
G01*
Y46500D02*
G03*
X408700Y46500I-1200J0D01*
G01*
X438228D02*
G03*
X438228Y46500I-1200J0D01*
G01*
Y56500D02*
G03*
X438228Y56500I-1200J0D01*
G01*
Y66500D02*
G03*
X438228Y66500I-1200J0D01*
G01*
Y76500D02*
G03*
X438228Y76500I-1200J0D01*
G01*
Y86500D02*
G03*
X438228Y86500I-1200J0D01*
G01*
Y96500D02*
G03*
X438228Y96500I-1200J0D01*
G01*
Y106500D02*
G03*
X438228Y106500I-1200J0D01*
G01*
Y116500D02*
G03*
X438228Y116500I-1200J0D01*
G01*
Y126500D02*
G03*
X438228Y126500I-1200J0D01*
G01*
Y136500D02*
G03*
X438228Y136500I-1200J0D01*
G01*
X394727D02*
G03*
X394727Y136500I-1200J0D01*
G01*
Y126500D02*
G03*
X394727Y126500I-1200J0D01*
G01*
Y116500D02*
G03*
X394727Y116500I-1200J0D01*
G01*
Y106500D02*
G03*
X394727Y106500I-1200J0D01*
G01*
Y96500D02*
G03*
X394727Y96500I-1200J0D01*
G01*
Y86500D02*
G03*
X394727Y86500I-1200J0D01*
G01*
Y76500D02*
G03*
X394727Y76500I-1200J0D01*
G01*
Y66500D02*
G03*
X394727Y66500I-1200J0D01*
G01*
Y56500D02*
G03*
X394727Y56500I-1200J0D01*
G01*
Y46500D02*
G03*
X394727Y46500I-1200J0D01*
G01*
X365200D02*
G03*
X365200Y46500I-1200J0D01*
G01*
Y56500D02*
G03*
X365200Y56500I-1200J0D01*
G01*
Y66500D02*
G03*
X365200Y66500I-1200J0D01*
G01*
Y76500D02*
G03*
X365200Y76500I-1200J0D01*
G01*
Y86500D02*
G03*
X365200Y86500I-1200J0D01*
G01*
Y96500D02*
G03*
X365200Y96500I-1200J0D01*
G01*
Y106500D02*
G03*
X365200Y106500I-1200J0D01*
G01*
Y116500D02*
G03*
X365200Y116500I-1200J0D01*
G01*
Y126500D02*
G03*
X365200Y126500I-1200J0D01*
G01*
Y136500D02*
G03*
X365200Y136500I-1200J0D01*
G01*
X351200D02*
G03*
X351200Y136500I-1200J0D01*
G01*
Y126500D02*
G03*
X351200Y126500I-1200J0D01*
G01*
Y116500D02*
G03*
X351200Y116500I-1200J0D01*
G01*
Y106500D02*
G03*
X351200Y106500I-1200J0D01*
G01*
Y96500D02*
G03*
X351200Y96500I-1200J0D01*
G01*
Y86500D02*
G03*
X351200Y86500I-1200J0D01*
G01*
Y76500D02*
G03*
X351200Y76500I-1200J0D01*
G01*
Y66500D02*
G03*
X351200Y66500I-1200J0D01*
G01*
Y56500D02*
G03*
X351200Y56500I-1200J0D01*
G01*
Y46500D02*
G03*
X351200Y46500I-1200J0D01*
G01*
X321672D02*
G03*
X321672Y46500I-1200J0D01*
G01*
Y56500D02*
G03*
X321672Y56500I-1200J0D01*
G01*
Y66500D02*
G03*
X321672Y66500I-1200J0D01*
G01*
Y76500D02*
G03*
X321672Y76500I-1200J0D01*
G01*
Y86500D02*
G03*
X321672Y86500I-1200J0D01*
G01*
Y96500D02*
G03*
X321672Y96500I-1200J0D01*
G01*
Y106500D02*
G03*
X321672Y106500I-1200J0D01*
G01*
Y116500D02*
G03*
X321672Y116500I-1200J0D01*
G01*
Y126500D02*
G03*
X321672Y126500I-1200J0D01*
G01*
Y136500D02*
G03*
X321672Y136500I-1200J0D01*
G01*
X307700D02*
G03*
X307700Y136500I-1200J0D01*
G01*
Y126500D02*
G03*
X307700Y126500I-1200J0D01*
G01*
Y116500D02*
G03*
X307700Y116500I-1200J0D01*
G01*
Y106500D02*
G03*
X307700Y106500I-1200J0D01*
G01*
Y96500D02*
G03*
X307700Y96500I-1200J0D01*
G01*
Y86500D02*
G03*
X307700Y86500I-1200J0D01*
G01*
Y76500D02*
G03*
X307700Y76500I-1200J0D01*
G01*
Y66500D02*
G03*
X307700Y66500I-1200J0D01*
G01*
Y56500D02*
G03*
X307700Y56500I-1200J0D01*
G01*
Y46500D02*
G03*
X307700Y46500I-1200J0D01*
G01*
X278172D02*
G03*
X278172Y46500I-1200J0D01*
G01*
Y56500D02*
G03*
X278172Y56500I-1200J0D01*
G01*
Y66500D02*
G03*
X278172Y66500I-1200J0D01*
G01*
Y76500D02*
G03*
X278172Y76500I-1200J0D01*
G01*
Y86500D02*
G03*
X278172Y86500I-1200J0D01*
G01*
Y96500D02*
G03*
X278172Y96500I-1200J0D01*
G01*
Y106500D02*
G03*
X278172Y106500I-1200J0D01*
G01*
Y116500D02*
G03*
X278172Y116500I-1200J0D01*
G01*
Y126500D02*
G03*
X278172Y126500I-1200J0D01*
G01*
Y136500D02*
G03*
X278172Y136500I-1200J0D01*
G01*
X264200D02*
G03*
X264200Y136500I-1200J0D01*
G01*
Y126500D02*
G03*
X264200Y126500I-1200J0D01*
G01*
Y116500D02*
G03*
X264200Y116500I-1200J0D01*
G01*
Y106500D02*
G03*
X264200Y106500I-1200J0D01*
G01*
Y96500D02*
G03*
X264200Y96500I-1200J0D01*
G01*
Y86500D02*
G03*
X264200Y86500I-1200J0D01*
G01*
Y76500D02*
G03*
X264200Y76500I-1200J0D01*
G01*
Y66500D02*
G03*
X264200Y66500I-1200J0D01*
G01*
Y56500D02*
G03*
X264200Y56500I-1200J0D01*
G01*
Y46500D02*
G03*
X264200Y46500I-1200J0D01*
G01*
X234672D02*
G03*
X234672Y46500I-1200J0D01*
G01*
Y56500D02*
G03*
X234672Y56500I-1200J0D01*
G01*
Y66500D02*
G03*
X234672Y66500I-1200J0D01*
G01*
Y76500D02*
G03*
X234672Y76500I-1200J0D01*
G01*
Y86500D02*
G03*
X234672Y86500I-1200J0D01*
G01*
Y96500D02*
G03*
X234672Y96500I-1200J0D01*
G01*
Y106500D02*
G03*
X234672Y106500I-1200J0D01*
G01*
Y116500D02*
G03*
X234672Y116500I-1200J0D01*
G01*
Y126500D02*
G03*
X234672Y126500I-1200J0D01*
G01*
Y136500D02*
G03*
X234672Y136500I-1200J0D01*
G01*
X191200D02*
G03*
X191200Y136500I-1200J0D01*
G01*
Y126500D02*
G03*
X191200Y126500I-1200J0D01*
G01*
Y116500D02*
G03*
X191200Y116500I-1200J0D01*
G01*
Y106500D02*
G03*
X191200Y106500I-1200J0D01*
G01*
Y96500D02*
G03*
X191200Y96500I-1200J0D01*
G01*
Y86500D02*
G03*
X191200Y86500I-1200J0D01*
G01*
Y76500D02*
G03*
X191200Y76500I-1200J0D01*
G01*
Y66500D02*
G03*
X191200Y66500I-1200J0D01*
G01*
Y56500D02*
G03*
X191200Y56500I-1200J0D01*
G01*
Y46500D02*
G03*
X191200Y46500I-1200J0D01*
G01*
X220728D02*
G03*
X220728Y46500I-1200J0D01*
G01*
Y56500D02*
G03*
X220728Y56500I-1200J0D01*
G01*
Y66500D02*
G03*
X220728Y66500I-1200J0D01*
G01*
Y76500D02*
G03*
X220728Y76500I-1200J0D01*
G01*
Y86500D02*
G03*
X220728Y86500I-1200J0D01*
G01*
Y96500D02*
G03*
X220728Y96500I-1200J0D01*
G01*
Y106500D02*
G03*
X220728Y106500I-1200J0D01*
G01*
Y116500D02*
G03*
X220728Y116500I-1200J0D01*
G01*
Y126500D02*
G03*
X220728Y126500I-1200J0D01*
G01*
Y136500D02*
G03*
X220728Y136500I-1200J0D01*
G01*
X147700D02*
G03*
X147700Y136500I-1200J0D01*
G01*
Y126500D02*
G03*
X147700Y126500I-1200J0D01*
G01*
Y116500D02*
G03*
X147700Y116500I-1200J0D01*
G01*
Y106500D02*
G03*
X147700Y106500I-1200J0D01*
G01*
Y96500D02*
G03*
X147700Y96500I-1200J0D01*
G01*
Y86500D02*
G03*
X147700Y86500I-1200J0D01*
G01*
Y76500D02*
G03*
X147700Y76500I-1200J0D01*
G01*
Y66500D02*
G03*
X147700Y66500I-1200J0D01*
G01*
Y56500D02*
G03*
X147700Y56500I-1200J0D01*
G01*
Y46500D02*
G03*
X147700Y46500I-1200J0D01*
G01*
X177228D02*
G03*
X177228Y46500I-1200J0D01*
G01*
Y56500D02*
G03*
X177228Y56500I-1200J0D01*
G01*
Y66500D02*
G03*
X177228Y66500I-1200J0D01*
G01*
Y76500D02*
G03*
X177228Y76500I-1200J0D01*
G01*
Y86500D02*
G03*
X177228Y86500I-1200J0D01*
G01*
Y96500D02*
G03*
X177228Y96500I-1200J0D01*
G01*
Y106500D02*
G03*
X177228Y106500I-1200J0D01*
G01*
Y116500D02*
G03*
X177228Y116500I-1200J0D01*
G01*
Y126500D02*
G03*
X177228Y126500I-1200J0D01*
G01*
Y136500D02*
G03*
X177228Y136500I-1200J0D01*
G01*
X104200D02*
G03*
X104200Y136500I-1200J0D01*
G01*
Y126500D02*
G03*
X104200Y126500I-1200J0D01*
G01*
Y116500D02*
G03*
X104200Y116500I-1200J0D01*
G01*
Y106500D02*
G03*
X104200Y106500I-1200J0D01*
G01*
Y96500D02*
G03*
X104200Y96500I-1200J0D01*
G01*
Y86500D02*
G03*
X104200Y86500I-1200J0D01*
G01*
Y76500D02*
G03*
X104200Y76500I-1200J0D01*
G01*
Y66500D02*
G03*
X104200Y66500I-1200J0D01*
G01*
Y56500D02*
G03*
X104200Y56500I-1200J0D01*
G01*
Y46500D02*
G03*
X104200Y46500I-1200J0D01*
G01*
X133728D02*
G03*
X133728Y46500I-1200J0D01*
G01*
Y56500D02*
G03*
X133728Y56500I-1200J0D01*
G01*
Y66500D02*
G03*
X133728Y66500I-1200J0D01*
G01*
Y76500D02*
G03*
X133728Y76500I-1200J0D01*
G01*
Y86500D02*
G03*
X133728Y86500I-1200J0D01*
G01*
Y96500D02*
G03*
X133728Y96500I-1200J0D01*
G01*
Y106500D02*
G03*
X133728Y106500I-1200J0D01*
G01*
Y116500D02*
G03*
X133728Y116500I-1200J0D01*
G01*
Y126500D02*
G03*
X133728Y126500I-1200J0D01*
G01*
Y136500D02*
G03*
X133728Y136500I-1200J0D01*
G01*
D130*
X611550Y439494D02*
G03*
X611550Y439494I-2000J0D01*
G01*
X61472Y136500D02*
G03*
X61472Y136500I-2000J0D01*
G01*
Y126500D02*
G03*
X61472Y126500I-2000J0D01*
G01*
Y116500D02*
G03*
X61472Y116500I-2000J0D01*
G01*
Y106500D02*
G03*
X61472Y106500I-2000J0D01*
G01*
Y96500D02*
G03*
X61472Y96500I-2000J0D01*
G01*
Y86500D02*
G03*
X61472Y86500I-2000J0D01*
G01*
Y76500D02*
G03*
X61472Y76500I-2000J0D01*
G01*
Y66500D02*
G03*
X61472Y66500I-2000J0D01*
G01*
Y56500D02*
G03*
X61472Y56500I-2000J0D01*
G01*
Y46500D02*
G03*
X61472Y46500I-2000J0D01*
G01*
X91000D02*
G03*
X91000Y46500I-2000J0D01*
G01*
Y56500D02*
G03*
X91000Y56500I-2000J0D01*
G01*
Y66500D02*
G03*
X91000Y66500I-2000J0D01*
G01*
Y76500D02*
G03*
X91000Y76500I-2000J0D01*
G01*
Y86500D02*
G03*
X91000Y86500I-2000J0D01*
G01*
Y96500D02*
G03*
X91000Y96500I-2000J0D01*
G01*
Y106500D02*
G03*
X91000Y106500I-2000J0D01*
G01*
Y116500D02*
G03*
X91000Y116500I-2000J0D01*
G01*
Y126500D02*
G03*
X91000Y126500I-2000J0D01*
G01*
Y136500D02*
G03*
X91000Y136500I-2000J0D01*
G01*
X482528D02*
G03*
X482528Y136500I-2000J0D01*
G01*
Y126500D02*
G03*
X482528Y126500I-2000J0D01*
G01*
Y116500D02*
G03*
X482528Y116500I-2000J0D01*
G01*
Y106500D02*
G03*
X482528Y106500I-2000J0D01*
G01*
Y96500D02*
G03*
X482528Y96500I-2000J0D01*
G01*
Y86500D02*
G03*
X482528Y86500I-2000J0D01*
G01*
Y76500D02*
G03*
X482528Y76500I-2000J0D01*
G01*
Y66500D02*
G03*
X482528Y66500I-2000J0D01*
G01*
Y56500D02*
G03*
X482528Y56500I-2000J0D01*
G01*
Y46500D02*
G03*
X482528Y46500I-2000J0D01*
G01*
X453000D02*
G03*
X453000Y46500I-2000J0D01*
G01*
Y56500D02*
G03*
X453000Y56500I-2000J0D01*
G01*
Y66500D02*
G03*
X453000Y66500I-2000J0D01*
G01*
Y76500D02*
G03*
X453000Y76500I-2000J0D01*
G01*
Y86500D02*
G03*
X453000Y86500I-2000J0D01*
G01*
Y96500D02*
G03*
X453000Y96500I-2000J0D01*
G01*
Y106500D02*
G03*
X453000Y106500I-2000J0D01*
G01*
Y116500D02*
G03*
X453000Y116500I-2000J0D01*
G01*
Y126500D02*
G03*
X453000Y126500I-2000J0D01*
G01*
Y136500D02*
G03*
X453000Y136500I-2000J0D01*
G01*
X409500D02*
G03*
X409500Y136500I-2000J0D01*
G01*
Y126500D02*
G03*
X409500Y126500I-2000J0D01*
G01*
Y116500D02*
G03*
X409500Y116500I-2000J0D01*
G01*
Y106500D02*
G03*
X409500Y106500I-2000J0D01*
G01*
Y96500D02*
G03*
X409500Y96500I-2000J0D01*
G01*
Y86500D02*
G03*
X409500Y86500I-2000J0D01*
G01*
Y76500D02*
G03*
X409500Y76500I-2000J0D01*
G01*
Y66500D02*
G03*
X409500Y66500I-2000J0D01*
G01*
Y56500D02*
G03*
X409500Y56500I-2000J0D01*
G01*
Y46500D02*
G03*
X409500Y46500I-2000J0D01*
G01*
X439028D02*
G03*
X439028Y46500I-2000J0D01*
G01*
Y56500D02*
G03*
X439028Y56500I-2000J0D01*
G01*
Y66500D02*
G03*
X439028Y66500I-2000J0D01*
G01*
Y76500D02*
G03*
X439028Y76500I-2000J0D01*
G01*
Y86500D02*
G03*
X439028Y86500I-2000J0D01*
G01*
Y96500D02*
G03*
X439028Y96500I-2000J0D01*
G01*
Y106500D02*
G03*
X439028Y106500I-2000J0D01*
G01*
Y116500D02*
G03*
X439028Y116500I-2000J0D01*
G01*
Y126500D02*
G03*
X439028Y126500I-2000J0D01*
G01*
Y136500D02*
G03*
X439028Y136500I-2000J0D01*
G01*
X395528D02*
G03*
X395528Y136500I-2000J0D01*
G01*
Y126500D02*
G03*
X395528Y126500I-2000J0D01*
G01*
Y116500D02*
G03*
X395528Y116500I-2000J0D01*
G01*
Y106500D02*
G03*
X395528Y106500I-2000J0D01*
G01*
Y96500D02*
G03*
X395528Y96500I-2000J0D01*
G01*
Y86500D02*
G03*
X395528Y86500I-2000J0D01*
G01*
Y76500D02*
G03*
X395528Y76500I-2000J0D01*
G01*
Y66500D02*
G03*
X395528Y66500I-2000J0D01*
G01*
Y56500D02*
G03*
X395528Y56500I-2000J0D01*
G01*
Y46500D02*
G03*
X395528Y46500I-2000J0D01*
G01*
X366000D02*
G03*
X366000Y46500I-2000J0D01*
G01*
Y56500D02*
G03*
X366000Y56500I-2000J0D01*
G01*
Y66500D02*
G03*
X366000Y66500I-2000J0D01*
G01*
Y76500D02*
G03*
X366000Y76500I-2000J0D01*
G01*
Y86500D02*
G03*
X366000Y86500I-2000J0D01*
G01*
Y96500D02*
G03*
X366000Y96500I-2000J0D01*
G01*
Y106500D02*
G03*
X366000Y106500I-2000J0D01*
G01*
Y116500D02*
G03*
X366000Y116500I-2000J0D01*
G01*
Y126500D02*
G03*
X366000Y126500I-2000J0D01*
G01*
Y136500D02*
G03*
X366000Y136500I-2000J0D01*
G01*
X352000D02*
G03*
X352000Y136500I-2000J0D01*
G01*
Y126500D02*
G03*
X352000Y126500I-2000J0D01*
G01*
Y116500D02*
G03*
X352000Y116500I-2000J0D01*
G01*
Y106500D02*
G03*
X352000Y106500I-2000J0D01*
G01*
Y96500D02*
G03*
X352000Y96500I-2000J0D01*
G01*
Y86500D02*
G03*
X352000Y86500I-2000J0D01*
G01*
Y76500D02*
G03*
X352000Y76500I-2000J0D01*
G01*
Y66500D02*
G03*
X352000Y66500I-2000J0D01*
G01*
Y56500D02*
G03*
X352000Y56500I-2000J0D01*
G01*
Y46500D02*
G03*
X352000Y46500I-2000J0D01*
G01*
X322472D02*
G03*
X322472Y46500I-2000J0D01*
G01*
Y56500D02*
G03*
X322472Y56500I-2000J0D01*
G01*
Y66500D02*
G03*
X322472Y66500I-2000J0D01*
G01*
Y76500D02*
G03*
X322472Y76500I-2000J0D01*
G01*
Y86500D02*
G03*
X322472Y86500I-2000J0D01*
G01*
Y96500D02*
G03*
X322472Y96500I-2000J0D01*
G01*
Y106500D02*
G03*
X322472Y106500I-2000J0D01*
G01*
Y116500D02*
G03*
X322472Y116500I-2000J0D01*
G01*
Y126500D02*
G03*
X322472Y126500I-2000J0D01*
G01*
Y136500D02*
G03*
X322472Y136500I-2000J0D01*
G01*
X308500D02*
G03*
X308500Y136500I-2000J0D01*
G01*
Y126500D02*
G03*
X308500Y126500I-2000J0D01*
G01*
Y116500D02*
G03*
X308500Y116500I-2000J0D01*
G01*
Y106500D02*
G03*
X308500Y106500I-2000J0D01*
G01*
Y96500D02*
G03*
X308500Y96500I-2000J0D01*
G01*
Y86500D02*
G03*
X308500Y86500I-2000J0D01*
G01*
Y76500D02*
G03*
X308500Y76500I-2000J0D01*
G01*
Y66500D02*
G03*
X308500Y66500I-2000J0D01*
G01*
Y56500D02*
G03*
X308500Y56500I-2000J0D01*
G01*
Y46500D02*
G03*
X308500Y46500I-2000J0D01*
G01*
X278972D02*
G03*
X278972Y46500I-2000J0D01*
G01*
Y56500D02*
G03*
X278972Y56500I-2000J0D01*
G01*
Y66500D02*
G03*
X278972Y66500I-2000J0D01*
G01*
Y76500D02*
G03*
X278972Y76500I-2000J0D01*
G01*
Y86500D02*
G03*
X278972Y86500I-2000J0D01*
G01*
Y96500D02*
G03*
X278972Y96500I-2000J0D01*
G01*
Y106500D02*
G03*
X278972Y106500I-2000J0D01*
G01*
Y116500D02*
G03*
X278972Y116500I-2000J0D01*
G01*
Y126500D02*
G03*
X278972Y126500I-2000J0D01*
G01*
Y136500D02*
G03*
X278972Y136500I-2000J0D01*
G01*
X265000D02*
G03*
X265000Y136500I-2000J0D01*
G01*
Y126500D02*
G03*
X265000Y126500I-2000J0D01*
G01*
Y116500D02*
G03*
X265000Y116500I-2000J0D01*
G01*
Y106500D02*
G03*
X265000Y106500I-2000J0D01*
G01*
Y96500D02*
G03*
X265000Y96500I-2000J0D01*
G01*
Y86500D02*
G03*
X265000Y86500I-2000J0D01*
G01*
Y76500D02*
G03*
X265000Y76500I-2000J0D01*
G01*
Y66500D02*
G03*
X265000Y66500I-2000J0D01*
G01*
Y56500D02*
G03*
X265000Y56500I-2000J0D01*
G01*
Y46500D02*
G03*
X265000Y46500I-2000J0D01*
G01*
X235472D02*
G03*
X235472Y46500I-2000J0D01*
G01*
Y56500D02*
G03*
X235472Y56500I-2000J0D01*
G01*
Y66500D02*
G03*
X235472Y66500I-2000J0D01*
G01*
Y76500D02*
G03*
X235472Y76500I-2000J0D01*
G01*
Y86500D02*
G03*
X235472Y86500I-2000J0D01*
G01*
Y96500D02*
G03*
X235472Y96500I-2000J0D01*
G01*
Y106500D02*
G03*
X235472Y106500I-2000J0D01*
G01*
Y116500D02*
G03*
X235472Y116500I-2000J0D01*
G01*
Y126500D02*
G03*
X235472Y126500I-2000J0D01*
G01*
Y136500D02*
G03*
X235472Y136500I-2000J0D01*
G01*
X192000D02*
G03*
X192000Y136500I-2000J0D01*
G01*
Y126500D02*
G03*
X192000Y126500I-2000J0D01*
G01*
Y116500D02*
G03*
X192000Y116500I-2000J0D01*
G01*
Y106500D02*
G03*
X192000Y106500I-2000J0D01*
G01*
Y96500D02*
G03*
X192000Y96500I-2000J0D01*
G01*
Y86500D02*
G03*
X192000Y86500I-2000J0D01*
G01*
Y76500D02*
G03*
X192000Y76500I-2000J0D01*
G01*
Y66500D02*
G03*
X192000Y66500I-2000J0D01*
G01*
Y56500D02*
G03*
X192000Y56500I-2000J0D01*
G01*
Y46500D02*
G03*
X192000Y46500I-2000J0D01*
G01*
X221528D02*
G03*
X221528Y46500I-2000J0D01*
G01*
Y56500D02*
G03*
X221528Y56500I-2000J0D01*
G01*
Y66500D02*
G03*
X221528Y66500I-2000J0D01*
G01*
Y76500D02*
G03*
X221528Y76500I-2000J0D01*
G01*
Y86500D02*
G03*
X221528Y86500I-2000J0D01*
G01*
Y96500D02*
G03*
X221528Y96500I-2000J0D01*
G01*
Y106500D02*
G03*
X221528Y106500I-2000J0D01*
G01*
Y116500D02*
G03*
X221528Y116500I-2000J0D01*
G01*
Y126500D02*
G03*
X221528Y126500I-2000J0D01*
G01*
Y136500D02*
G03*
X221528Y136500I-2000J0D01*
G01*
X148500D02*
G03*
X148500Y136500I-2000J0D01*
G01*
Y126500D02*
G03*
X148500Y126500I-2000J0D01*
G01*
Y116500D02*
G03*
X148500Y116500I-2000J0D01*
G01*
Y106500D02*
G03*
X148500Y106500I-2000J0D01*
G01*
Y96500D02*
G03*
X148500Y96500I-2000J0D01*
G01*
Y86500D02*
G03*
X148500Y86500I-2000J0D01*
G01*
Y76500D02*
G03*
X148500Y76500I-2000J0D01*
G01*
Y66500D02*
G03*
X148500Y66500I-2000J0D01*
G01*
Y56500D02*
G03*
X148500Y56500I-2000J0D01*
G01*
Y46500D02*
G03*
X148500Y46500I-2000J0D01*
G01*
X178028D02*
G03*
X178028Y46500I-2000J0D01*
G01*
Y56500D02*
G03*
X178028Y56500I-2000J0D01*
G01*
Y66500D02*
G03*
X178028Y66500I-2000J0D01*
G01*
Y76500D02*
G03*
X178028Y76500I-2000J0D01*
G01*
Y86500D02*
G03*
X178028Y86500I-2000J0D01*
G01*
Y96500D02*
G03*
X178028Y96500I-2000J0D01*
G01*
Y106500D02*
G03*
X178028Y106500I-2000J0D01*
G01*
Y116500D02*
G03*
X178028Y116500I-2000J0D01*
G01*
Y126500D02*
G03*
X178028Y126500I-2000J0D01*
G01*
Y136500D02*
G03*
X178028Y136500I-2000J0D01*
G01*
X105000D02*
G03*
X105000Y136500I-2000J0D01*
G01*
Y126500D02*
G03*
X105000Y126500I-2000J0D01*
G01*
Y116500D02*
G03*
X105000Y116500I-2000J0D01*
G01*
Y106500D02*
G03*
X105000Y106500I-2000J0D01*
G01*
Y96500D02*
G03*
X105000Y96500I-2000J0D01*
G01*
Y86500D02*
G03*
X105000Y86500I-2000J0D01*
G01*
Y76500D02*
G03*
X105000Y76500I-2000J0D01*
G01*
Y66500D02*
G03*
X105000Y66500I-2000J0D01*
G01*
Y56500D02*
G03*
X105000Y56500I-2000J0D01*
G01*
Y46500D02*
G03*
X105000Y46500I-2000J0D01*
G01*
X134528D02*
G03*
X134528Y46500I-2000J0D01*
G01*
Y56500D02*
G03*
X134528Y56500I-2000J0D01*
G01*
Y66500D02*
G03*
X134528Y66500I-2000J0D01*
G01*
Y76500D02*
G03*
X134528Y76500I-2000J0D01*
G01*
Y86500D02*
G03*
X134528Y86500I-2000J0D01*
G01*
Y96500D02*
G03*
X134528Y96500I-2000J0D01*
G01*
Y106500D02*
G03*
X134528Y106500I-2000J0D01*
G01*
Y116500D02*
G03*
X134528Y116500I-2000J0D01*
G01*
Y126500D02*
G03*
X134528Y126500I-2000J0D01*
G01*
Y136500D02*
G03*
X134528Y136500I-2000J0D01*
G01*
M02*
