M48
;Layer_Color=9474304
;FILE_FORMAT=4:4
METRIC,LZ
;TYPE=PLATED
T01F00S00C0.2032
T02F00S00C0.2286
T04F00S00C0.7620
T05F00S00C0.9144
T06F00S00C0.9906
T07F00S00C1.0000
T09F00S00C1.0922
T10F00S00C1.1000
T11F00S00C1.2000
T12F00S00C1.2500
T13F00S00C1.5494
T14F00S00C1.7000
T15F00S00C1.7526
;TYPE=NON_PLATED
T16F00S00C0.6500
T17F00S00C2.3114
T18F00S00C2.7500
T19F00S00C4.0894
%
T01
X0090678Y0089662
X00948182Y00977646
X01080262Y00903224
X01100074Y00865886
X01260348Y00850392
T02
X001016Y001016
Y003048
X0018288Y0025654
X0019558Y0023114
X0024892Y003683
Y0038354
X0028194Y00384635
X0029972Y0038481
X004572Y003683
X0059182Y0036322
X0067564Y003683
X008128Y0036322
X0089662Y003683
X0100584
X011176
X0122936
X012954Y003556
X01397
Y00254
X014478Y001524
X014986
X015494
X01524Y001016
X015748
X014732
X014224
X013716
X013462Y001524
X0127Y001016
X016256
X016764
X017018Y001524
X01651
X016002
X0174498Y0016002
X0177038
X018796Y002032
X019304
X019558Y00254
X01905
X019304Y003048
X018542Y003556
X020193Y003048
X0210312
X0211074Y0033782
X020955Y0018796
X02106193Y0016296
X0203708Y0018796
X0199136Y0017272
X020828Y004064
X021082Y004572
X020574
X02032Y00508
X020828
X0209296Y0059182
X0203708
X0207518Y0066294
X019812Y0070612
X01903984
X0176022Y0065278
X01778Y006096
X017526Y004572
X017018
X016764Y004064
X017272
X016256
X018796
X019304
X0175006Y0077216
X0175514Y007874
X016256Y007112
X015748Y006096
X014732
X013716
X0127
Y00508
X012192
X012446Y004572
X012954
X0127Y004064
X014224
X014478Y004572
X014986
X015494
X015748Y004064
X01524
X01397Y004572
X014224Y007112
X013208
X012192
X011684Y006096
X010668
X010795Y0052832
X0108966Y00508
X011176
X011684
X011303Y0044958
X01016Y00508
X0101346Y005334
X009652Y00508
X009144
X0083312Y0044196
X00826008Y00660146
X00813816Y006604
X0080137Y00660146
X008128Y007112
X009652Y006096
X00762
X006604
X005588
X004572
X00508Y007112
X006096
X004064
X0065024Y0048514
X0066294
X0067564
X0068834
X0070104
X0071374
X0072644
X0073914
X00762Y00508
X003556
X003048
X00254
X002032
X001524
X001016
X00127Y004572
X001778
X002286
X002794
X003302
X003556Y006096
X003048Y007112
X002032
X001016
X001524Y006096
Y004064
X001016
X001524Y008128
X002032Y009144
X003048
X003556Y01016
X003048Y011176
X001016
X001524Y01016
X001016Y009144
X004064
X00508
X006096
X007112
X0073533Y0103505
X00751078Y01074928
X0074549Y01081786
X0075946Y01089914
X0076327Y01131316
X00707644Y01154176
X00687669Y01122009
X0067564Y01128522
X00703072Y01087628
X00608584Y0109855
X00594106Y0103505
X00639572Y01034796
X005588Y01016
X004572
X005588Y008128
X006604
X00762
X00787654Y01029208
X008636Y01016
X00895096Y01015238
X00946005Y00959586
X00944372Y0095377
X00944626Y00946658
X00945896Y00939419
X00946404Y009271
X00945896Y00919988
X00933704Y00920242
X00962914Y00925068
Y00931926
X00963422Y00900938
X0099076Y00919858
X00997797Y00919911
X0099943Y00969993
X0099187Y0096998
X0098298Y00970534
X0096393
X01007364Y0097028
X0102108Y00979424
X01038606Y00999998
X01044956
X01057402Y01001014
Y00992632
X01032764Y00944626
X009652Y008128
X008128Y009144
X00834916Y01109472
X00841644Y01135492
X0093726Y01109472
X0097028Y01139952
X01055116Y01142746
X01054862Y01173734
X011176Y011176
X012192
X01219454Y0108839
X01225804Y01088136
X01253998Y01087628
X01260602Y01083818
X0127889
X0128524Y01083564
X01288034Y01057402
X01281684Y01057656
X01298448Y01037082
X01304798Y01036574
Y01014984
X01298702
X01248918Y01017016
X01244346Y01021842
X01230122Y0103886
X01227582Y0104521
X01311402Y01088644
X013208Y011176
X013716Y01016
X014732
X01524Y009144
X014224
X016256
X017272
X018288
X019304
X019812Y01016
X018796
X01778
X018288Y011176
X019304
X017272
X0176784Y0082296
X018796Y008128
X019812
X02032Y009144
X020828Y01016
X02032Y011176
T04
X0195874Y0034036
X0198374
X0198334Y0041656
X0195834
Y0049276
X0198334
X0196088Y006354
Y006604
X0188468Y0066
Y00635
X0180848Y006354
Y006604
X00254Y011049
X00229
Y011811
X00254
X0145034Y0112228
Y0109728
T05
X00336318Y01096484
X00361318
X00381318
Y01123584
X00361318
X00336318
X00406318
Y01096484
T06
X00817372Y01077214
X00842772
X00868172
X00893572
Y01153414
X00868172
X00842772
X00817372
T07
X004191Y006597
Y006851
X004445
Y006597
X004699
Y006851
X004953
Y006597
X005207
Y006851
X005461
Y006597
X005715
Y006851
X005969
Y006597
X006223
Y006851
X006477
Y006597
X006731
Y006851
X006985
Y006597
X003937
X003683
X003429
X003175
X002921
X002667
X002413
X002159
Y006851
X002413
X002667
X002921
X003175
X003429
X003683
X003937
T09
X00555752Y0099187
Y0104267
T10
X0007874Y002032
Y002286
Y00254
Y002794
X012954
Y00254
Y002286
Y002032
X0169418Y001016
X0171958
X0174498
X0177038
X0212598Y00762
Y007874
X0197358Y0058674
X0194818
X0192278
X0189738
X0177038Y005334
X0174498
X0171958
X0169418
Y00762
Y007874
X016383
Y00762
X0037084Y005969
X0034544
X0025654
X0023114
X0013716
X0011176
X0007874Y00762254
Y00787654
Y00813054
Y00838454
X00903478Y00829056
Y00854456
Y00879856
X00928878Y00854456
Y00829056
Y00803656
X00903478
X01488948Y01011682
Y01037082
Y01062482
X016383Y008382
Y008128
X0169418
Y008382
X0212598
Y008128
T11
X01993377Y00753728
X01958377
X01861297
X01826297
Y01188728
X01958377
T12
X0015106Y0011811
Y0014351
Y0016891
Y0019431
Y0021971
Y0024511
Y0027051
Y0029591
Y0032131
Y0034671
X0022606
Y0032131
Y0029591
Y0027051
Y0024511
Y0021971
Y0019431
Y0016891
Y0014351
Y0011811
X0026162
Y0014351
Y0016891
Y0019431
Y0021971
Y0024511
Y0027051
Y0029591
Y0032131
Y0034671
X0033662
Y0032131
Y0029591
Y0027051
Y0024511
Y0021971
Y0019431
Y0016891
Y0014351
Y0011811
X0037211
Y0014351
Y0016891
Y0019431
Y0021971
Y0024511
Y0027051
Y0029591
Y0032131
Y0034671
X0044711
Y0032131
Y0029591
Y0027051
Y0024511
Y0021971
Y0019431
Y0016891
Y0014351
Y0011811
X004826
Y0014351
Y0016891
Y0019431
Y0021971
Y0024511
Y0027051
Y0029591
Y0032131
Y0034671
X005576
Y0032131
Y0029591
Y0027051
Y0024511
Y0021971
Y0019431
Y0016891
Y0014351
Y0011811
X0059302
Y0014351
Y0016891
Y0019431
Y0021971
Y0024511
Y0027051
Y0029591
Y0032131
Y0034671
X0066802
Y0032131
Y0029591
Y0027051
Y0024511
Y0021971
Y0019431
Y0016891
Y0014351
Y0011811
X0070351
Y0014351
Y0016891
Y0019431
Y0021971
Y0024511
Y0027051
Y0029591
Y0032131
Y0034671
X0077851
Y0032131
Y0029591
Y0027051
Y0024511
Y0021971
Y0019431
Y0016891
Y0014351
Y0011811
X00814
Y0014351
Y0016891
Y0019431
Y0021971
Y0024511
Y0027051
Y0029591
Y0032131
Y0034671
X00889
Y0032131
Y0029591
Y0027051
Y0024511
Y0021971
Y0019431
Y0016891
Y0014351
Y0011811
X0092456
Y0014351
Y0016891
Y0019431
Y0021971
Y0024511
Y0027051
Y0029591
Y0032131
Y0034671
X0099956
Y0032131
Y0029591
Y0027051
Y0024511
Y0021971
Y0019431
Y0016891
Y0014351
Y0011811
X0103505
Y0014351
Y0016891
Y0019431
Y0021971
Y0024511
Y0027051
Y0029591
Y0032131
Y0034671
X0111005
Y0032131
Y0029591
Y0027051
Y0024511
Y0021971
Y0019431
Y0016891
Y0014351
Y0011811
X0114554
Y0014351
Y0016891
Y0019431
Y0021971
Y0024511
Y0027051
Y0029591
Y0032131
Y0034671
X0122054
Y0032131
Y0029591
Y0027051
Y0024511
Y0021971
Y0019431
Y0016891
Y0014351
Y0011811
T13
X0145288Y0020574
X0142748Y0026924
X0145288Y0038354
X0163068
X0160528Y0026924
X0163068Y0020574
X0180848
X0178308Y0026924
X0180848Y0038354
X0178308Y0044704
X0160528
X01588262Y00683514
X01562862Y00747014
X0137922
X0140462Y00683514
X0142748Y0044704
X0140462Y0086614
X0137922Y0092964
X01562862
X01588262Y0086614
T14
X01801297Y00807228
X01886297Y00795228
X01933377Y00807228
Y01135228
X01886297Y01147228
X01801297Y01135228
X02018377Y01147228
Y00795228
T15
X0147828Y0019304
Y0029464
Y0037084
X0165608
Y0029464
Y0019304
X0183388
Y0029464
Y0037084
Y0047244
X0165608
X0147828
X01537462Y00658114
Y00759714
X0135382
Y00658114
Y0084074
Y0094234
X01537462
Y0084074
T16
X0092645Y0119253
X0098425
T17
X00305618Y01092984
Y01149784
X00437018
Y01092984
T18
X007472Y006724
X001672
Y009024
X007472
T19
X0147828Y0024384
X0165608
X0183388
Y0042164
X0165608
X0147828
X01537462Y00708914
X0135382
Y0089154
X01537462
M30
